{"glyphs":{"0":{"ha":814,"x_min":79,"x_max":735,"o":"m 407 -14 q 79 475 79 -14 q 407 977 79 977 q 735 475 735 977 q 407 -14 735 -14 m 407 111 q 590 475 590 111 q 407 852 590 852 q 224 475 224 852 q 407 111 224 111 m 412 373 q 341 402 371 373 q 312 475 312 432 q 341 546 312 517 q 412 575 371 575 q 485 546 455 575 q 514 475 514 517 q 485 402 514 432 q 412 373 455 373 z "},"1":{"ha":814,"x_min":115,"x_max":713,"o":"m 115 0 l 115 126 l 355 126 l 355 823 l 129 745 l 129 882 l 355 963 l 499 963 l 499 126 l 713 126 l 713 0 l 115 0 z "},"2":{"ha":814,"x_min":85,"x_max":743,"o":"m 117 0 l 117 152 q 450 410 340 275 q 560 686 560 544 q 396 852 560 852 q 281 820 341 852 q 179 735 222 788 l 85 828 q 218 936 132 895 q 399 977 304 977 q 703 686 703 977 q 610 405 703 540 q 328 146 517 271 l 328 126 l 743 126 l 743 0 l 117 0 z "},"3":{"ha":814,"x_min":85,"x_max":708,"o":"m 349 -14 q 212 -5 274 -14 q 102 19 150 4 l 119 149 q 212 124 160 137 q 343 111 264 111 q 505 153 448 111 q 563 271 563 195 q 489 397 563 353 q 279 441 415 441 l 258 441 l 241 529 q 471 602 400 551 q 543 727 543 653 q 505 819 543 786 q 397 852 467 852 q 288 826 346 852 q 178 749 230 800 l 85 842 q 229 944 147 912 q 412 977 311 977 q 616 921 544 977 q 688 761 688 865 q 632 610 688 674 q 487 522 576 546 l 487 508 q 647 426 587 490 q 708 258 708 362 q 614 58 708 129 q 349 -14 520 -14 z "},"4":{"ha":814,"x_min":49,"x_max":760,"o":"m 49 216 l 51 218 l 186 909 l 326 909 l 212 335 l 532 335 l 532 963 l 669 963 l 669 335 l 760 335 l 760 216 l 669 216 l 669 0 l 532 0 l 532 216 l 49 216 z "},"5":{"ha":814,"x_min":90,"x_max":742,"o":"m 403 -14 q 172 61 254 -14 q 90 270 90 135 l 235 270 q 279 153 235 195 q 404 111 323 111 q 547 164 497 111 q 597 311 597 216 q 395 506 597 506 q 224 461 303 506 l 148 461 l 161 963 l 681 963 l 681 837 l 297 837 l 283 600 q 363 622 323 616 q 442 628 402 628 q 667 547 593 628 q 742 311 742 467 q 654 71 742 156 q 403 -14 566 -14 z "},"6":{"ha":814,"x_min":80,"x_max":735,"o":"m 419 -14 q 168 83 256 -14 q 80 357 80 180 l 80 389 q 220 809 80 665 q 647 967 360 953 l 661 838 q 231 453 231 820 l 243 453 q 324 569 263 528 q 472 610 385 610 q 667 532 598 610 q 735 312 735 454 q 653 72 735 157 q 419 -14 571 -14 m 420 111 q 543 164 500 111 q 586 312 586 216 q 541 440 586 395 q 411 486 496 486 q 277 437 324 486 q 229 298 229 388 q 420 111 229 111 z "},"7":{"ha":814,"x_min":76,"x_max":783,"o":"m 303 0 l 590 834 l 216 834 l 216 625 l 76 625 l 76 963 l 783 963 l 452 0 l 303 0 z "},"8":{"ha":814,"x_min":79,"x_max":735,"o":"m 407 -14 q 164 59 250 -14 q 79 264 79 132 q 135 424 79 361 q 294 507 191 486 l 294 517 q 155 593 203 538 q 106 732 106 648 q 185 912 106 848 q 407 977 264 977 q 629 912 551 977 q 708 732 708 848 q 660 593 708 648 q 521 517 611 538 l 521 507 q 680 424 624 486 q 735 264 735 361 q 649 59 735 132 q 407 -14 564 -14 m 407 574 q 522 609 481 574 q 563 705 563 644 q 522 814 563 776 q 407 852 481 852 q 292 814 333 852 q 251 705 251 776 q 292 609 251 644 q 407 574 333 574 m 407 111 q 542 153 494 111 q 590 271 590 195 q 542 398 590 353 q 407 444 494 444 q 272 398 319 444 q 224 271 224 353 q 272 153 224 195 q 407 111 319 111 z "},"9":{"ha":814,"x_min":80,"x_max":735,"o":"m 168 -4 l 155 125 q 585 510 585 143 l 572 510 q 491 394 552 435 q 343 353 431 353 q 149 431 217 353 q 80 651 80 509 q 162 891 80 806 q 396 977 245 977 q 647 880 559 977 q 735 606 735 783 l 735 574 q 595 154 735 298 q 168 -4 455 10 m 404 477 q 538 526 491 477 q 585 665 585 575 q 395 852 585 852 q 269 799 313 852 q 225 651 225 747 q 272 523 225 568 q 404 477 318 477 z "},"A":{"ha":814,"x_min":31,"x_max":783,"o":"m 31 0 l 309 963 l 505 963 l 783 0 l 641 0 l 578 235 l 236 235 l 173 0 l 31 0 m 401 846 l 271 363 l 543 363 l 413 846 l 401 846 z "},"Á":{"ha":814,"x_min":31,"x_max":783,"o":"m 31 0 l 309 963 l 505 963 l 783 0 l 641 0 l 578 235 l 236 235 l 173 0 l 31 0 m 401 846 l 271 363 l 543 363 l 413 846 l 401 846 m 318 1072 l 467 1241 l 659 1241 l 482 1072 l 318 1072 z "},"Ă":{"ha":814,"x_min":31,"x_max":783,"o":"m 31 0 l 309 963 l 505 963 l 783 0 l 641 0 l 578 235 l 236 235 l 173 0 l 31 0 m 401 846 l 271 363 l 543 363 l 413 846 l 401 846 m 407 1065 q 255 1116 309 1065 q 201 1261 201 1168 l 319 1261 q 342 1184 319 1212 q 407 1157 366 1157 q 472 1184 449 1157 q 494 1261 494 1212 l 613 1261 q 559 1116 613 1168 q 407 1065 505 1065 z "},"Ắ":{"ha":814,"x_min":31,"x_max":783,"o":"m 31 0 l 309 963 l 505 963 l 783 0 l 641 0 l 578 235 l 236 235 l 173 0 l 31 0 m 401 846 l 271 363 l 543 363 l 413 846 l 401 846 m 407 1065 q 255 1116 309 1065 q 201 1261 201 1168 l 319 1261 q 342 1184 319 1212 q 407 1157 366 1157 q 472 1184 449 1157 q 494 1261 494 1212 l 613 1261 q 559 1116 613 1168 q 407 1065 505 1065 m 318 1290 l 467 1459 l 659 1459 l 482 1290 l 318 1290 z "},"Ặ":{"ha":814,"x_min":31,"x_max":783,"o":"m 31 0 l 309 963 l 505 963 l 783 0 l 641 0 l 578 235 l 236 235 l 173 0 l 31 0 m 401 846 l 271 363 l 543 363 l 413 846 l 401 846 m 407 -285 q 343 -258 370 -285 q 316 -194 316 -231 q 343 -130 316 -156 q 407 -103 370 -103 q 471 -130 445 -103 q 498 -194 498 -156 q 471 -258 498 -231 q 407 -285 445 -285 m 407 1065 q 255 1116 309 1065 q 201 1261 201 1168 l 319 1261 q 342 1184 319 1212 q 407 1157 366 1157 q 472 1184 449 1157 q 494 1261 494 1212 l 613 1261 q 559 1116 613 1168 q 407 1065 505 1065 z "},"Ằ":{"ha":814,"x_min":31,"x_max":783,"o":"m 31 0 l 309 963 l 505 963 l 783 0 l 641 0 l 578 235 l 236 235 l 173 0 l 31 0 m 401 846 l 271 363 l 543 363 l 413 846 l 401 846 m 407 1065 q 255 1116 309 1065 q 201 1261 201 1168 l 319 1261 q 342 1184 319 1212 q 407 1157 366 1157 q 472 1184 449 1157 q 494 1261 494 1212 l 613 1261 q 559 1116 613 1168 q 407 1065 505 1065 m 338 1290 l 162 1459 l 353 1459 l 503 1290 l 338 1290 z "},"Ẳ":{"ha":814,"x_min":31,"x_max":783,"o":"m 31 0 l 309 963 l 505 963 l 783 0 l 641 0 l 578 235 l 236 235 l 173 0 l 31 0 m 401 846 l 271 363 l 543 363 l 413 846 l 401 846 m 407 1065 q 255 1116 309 1065 q 201 1261 201 1168 l 319 1261 q 342 1184 319 1212 q 407 1157 366 1157 q 472 1184 449 1157 q 494 1261 494 1212 l 613 1261 q 559 1116 613 1168 q 407 1065 505 1065 m 361 1255 l 361 1270 q 406 1322 361 1292 q 443 1351 432 1339 q 454 1373 454 1362 q 398 1407 454 1407 q 287 1378 333 1407 l 241 1459 q 412 1510 296 1510 q 566 1399 566 1510 q 548 1332 566 1358 q 486 1279 530 1305 q 466 1255 466 1267 l 361 1255 z "},"Ẵ":{"ha":814,"x_min":31,"x_max":783,"o":"m 31 0 l 309 963 l 505 963 l 783 0 l 641 0 l 578 235 l 236 235 l 173 0 l 31 0 m 401 846 l 271 363 l 543 363 l 413 846 l 401 846 m 407 1065 q 255 1116 309 1065 q 201 1261 201 1168 l 319 1261 q 342 1184 319 1212 q 407 1157 366 1157 q 472 1184 449 1157 q 494 1261 494 1212 l 613 1261 q 559 1116 613 1168 q 407 1065 505 1065 m 153 1280 l 153 1314 q 295 1484 153 1484 q 353 1475 323 1484 q 422 1451 383 1467 q 484 1425 463 1434 q 522 1416 505 1416 q 558 1459 558 1416 l 558 1500 l 675 1500 l 675 1466 q 547 1303 675 1303 q 492 1313 524 1303 q 416 1341 460 1322 q 363 1362 387 1353 q 321 1371 338 1371 q 271 1321 271 1371 l 271 1280 l 153 1280 z "},"Â":{"ha":814,"x_min":31,"x_max":783,"o":"m 31 0 l 309 963 l 505 963 l 783 0 l 641 0 l 578 235 l 236 235 l 173 0 l 31 0 m 401 846 l 271 363 l 543 363 l 413 846 l 401 846 m 176 1072 l 352 1248 l 469 1248 l 645 1072 l 494 1072 l 410 1169 l 326 1072 l 176 1072 z "},"Ấ":{"ha":814,"x_min":31,"x_max":897,"o":"m 31 0 l 309 963 l 505 963 l 783 0 l 641 0 l 578 235 l 236 235 l 173 0 l 31 0 m 401 846 l 271 363 l 543 363 l 413 846 l 401 846 m 176 1072 l 352 1248 l 469 1248 l 645 1072 l 494 1072 l 410 1169 l 326 1072 l 176 1072 m 556 1240 l 705 1409 l 897 1409 l 720 1240 l 556 1240 z "},"Ậ":{"ha":814,"x_min":31,"x_max":783,"o":"m 31 0 l 309 963 l 505 963 l 783 0 l 641 0 l 578 235 l 236 235 l 173 0 l 31 0 m 401 846 l 271 363 l 543 363 l 413 846 l 401 846 m 407 -285 q 343 -258 370 -285 q 316 -194 316 -231 q 343 -130 316 -156 q 407 -103 370 -103 q 471 -130 445 -103 q 498 -194 498 -156 q 471 -258 498 -231 q 407 -285 445 -285 m 176 1072 l 352 1248 l 469 1248 l 645 1072 l 494 1072 l 410 1169 l 326 1072 l 176 1072 z "},"Ầ":{"ha":814,"x_min":31,"x_max":783,"o":"m 31 0 l 309 963 l 505 963 l 783 0 l 641 0 l 578 235 l 236 235 l 173 0 l 31 0 m 401 846 l 271 363 l 543 363 l 413 846 l 401 846 m 176 1072 l 352 1248 l 469 1248 l 645 1072 l 494 1072 l 410 1169 l 326 1072 l 176 1072 m 576 1240 l 400 1409 l 591 1409 l 741 1240 l 576 1240 z "},"Ẩ":{"ha":814,"x_min":31,"x_max":804,"o":"m 31 0 l 309 963 l 505 963 l 783 0 l 641 0 l 578 235 l 236 235 l 173 0 l 31 0 m 401 846 l 271 363 l 543 363 l 413 846 l 401 846 m 176 1072 l 352 1248 l 469 1248 l 645 1072 l 494 1072 l 410 1169 l 326 1072 l 176 1072 m 599 1205 l 599 1219 q 644 1272 599 1242 q 681 1300 670 1289 q 692 1322 692 1312 q 636 1357 692 1357 q 525 1328 571 1357 l 479 1409 q 650 1459 534 1459 q 804 1349 804 1459 q 786 1281 804 1308 q 724 1229 768 1255 q 704 1205 704 1217 l 599 1205 z "},"Ẫ":{"ha":814,"x_min":31,"x_max":783,"o":"m 31 0 l 309 963 l 505 963 l 783 0 l 641 0 l 578 235 l 236 235 l 173 0 l 31 0 m 401 846 l 271 363 l 543 363 l 413 846 l 401 846 m 176 1072 l 352 1248 l 469 1248 l 645 1072 l 494 1072 l 410 1169 l 326 1072 l 176 1072 m 153 1284 l 153 1318 q 295 1488 153 1488 q 353 1479 323 1488 q 422 1455 383 1471 q 484 1429 463 1438 q 522 1420 505 1420 q 558 1463 558 1420 l 558 1504 l 675 1504 l 675 1470 q 547 1308 675 1308 q 492 1317 524 1308 q 416 1345 460 1326 q 363 1366 387 1357 q 321 1375 338 1375 q 271 1325 271 1375 l 271 1284 l 153 1284 z "},"Ä":{"ha":814,"x_min":31,"x_max":783,"o":"m 31 0 l 309 963 l 505 963 l 783 0 l 641 0 l 578 235 l 236 235 l 173 0 l 31 0 m 401 846 l 271 363 l 543 363 l 413 846 l 401 846 m 548 1072 q 484 1098 511 1072 q 457 1162 457 1125 q 484 1227 457 1200 q 548 1253 511 1253 q 612 1227 586 1253 q 639 1162 639 1200 q 612 1098 639 1125 q 548 1072 586 1072 m 263 1072 q 199 1098 226 1072 q 172 1162 172 1125 q 199 1227 172 1200 q 263 1253 226 1253 q 328 1227 301 1253 q 354 1162 354 1200 q 328 1098 354 1125 q 263 1072 301 1072 z "},"Ạ":{"ha":814,"x_min":31,"x_max":783,"o":"m 31 0 l 309 963 l 505 963 l 783 0 l 641 0 l 578 235 l 236 235 l 173 0 l 31 0 m 401 846 l 271 363 l 543 363 l 413 846 l 401 846 m 407 -285 q 343 -258 370 -285 q 316 -194 316 -231 q 343 -130 316 -156 q 407 -103 370 -103 q 471 -130 445 -103 q 498 -194 498 -156 q 471 -258 498 -231 q 407 -285 445 -285 z "},"À":{"ha":814,"x_min":31,"x_max":783,"o":"m 31 0 l 309 963 l 505 963 l 783 0 l 641 0 l 578 235 l 236 235 l 173 0 l 31 0 m 401 846 l 271 363 l 543 363 l 413 846 l 401 846 m 338 1072 l 162 1241 l 353 1241 l 503 1072 l 338 1072 z "},"Ả":{"ha":814,"x_min":31,"x_max":783,"o":"m 31 0 l 309 963 l 505 963 l 783 0 l 641 0 l 578 235 l 236 235 l 173 0 l 31 0 m 401 846 l 271 363 l 543 363 l 413 846 l 401 846 m 361 1037 l 361 1051 q 406 1104 361 1074 q 443 1132 432 1121 q 454 1154 454 1143 q 398 1189 454 1189 q 287 1160 333 1189 l 241 1240 q 412 1291 296 1291 q 566 1181 566 1291 q 548 1113 566 1140 q 486 1061 530 1086 q 466 1037 466 1049 l 361 1037 z "},"Ā":{"ha":814,"x_min":31,"x_max":783,"o":"m 31 0 l 309 963 l 505 963 l 783 0 l 641 0 l 578 235 l 236 235 l 173 0 l 31 0 m 401 846 l 271 363 l 543 363 l 413 846 l 401 846 m 144 1072 l 144 1199 l 669 1199 l 669 1072 l 144 1072 z "},"Ą":{"ha":814,"x_min":31,"x_max":783,"o":"m 31 0 l 309 963 l 505 963 l 783 0 l 781 0 q 669 -30 709 0 q 629 -114 629 -60 q 708 -174 629 -174 q 764 -166 732 -174 l 751 -281 q 690 -288 720 -288 q 570 -253 612 -288 q 528 -157 528 -219 q 557 -56 528 -97 q 641 0 587 -15 l 578 235 l 236 235 l 173 0 l 31 0 m 401 846 l 271 363 l 543 363 l 413 846 l 401 846 z "},"Å":{"ha":814,"x_min":31,"x_max":783,"o":"m 31 0 l 309 963 l 505 963 l 783 0 l 641 0 l 578 235 l 236 235 l 173 0 l 31 0 m 401 846 l 271 363 l 543 363 l 413 846 l 401 846 m 407 1009 q 288 1046 330 1009 q 245 1149 245 1082 q 288 1252 245 1215 q 407 1289 330 1289 q 526 1252 484 1289 q 568 1149 568 1215 q 526 1046 568 1082 q 407 1009 484 1009 m 407 1088 q 472 1149 472 1088 q 407 1211 472 1211 q 342 1149 342 1211 q 407 1088 342 1088 z "},"Ǻ":{"ha":814,"x_min":31,"x_max":783,"o":"m 318 1234 l 467 1404 l 659 1404 l 482 1234 l 318 1234 m 31 0 l 309 963 l 505 963 l 783 0 l 641 0 l 578 235 l 236 235 l 173 0 l 31 0 m 401 846 l 271 363 l 543 363 l 413 846 l 401 846 m 407 1009 q 288 1046 330 1009 q 245 1149 245 1082 q 288 1252 245 1215 q 407 1289 330 1289 q 526 1252 484 1289 q 568 1149 568 1215 q 526 1046 568 1082 q 407 1009 484 1009 m 407 1088 q 472 1149 472 1088 q 407 1211 472 1211 q 342 1149 342 1211 q 407 1088 342 1088 z "},"Ã":{"ha":814,"x_min":31,"x_max":783,"o":"m 31 0 l 309 963 l 505 963 l 783 0 l 641 0 l 578 235 l 236 235 l 173 0 l 31 0 m 401 846 l 271 363 l 543 363 l 413 846 l 401 846 m 153 1062 l 153 1096 q 295 1265 153 1265 q 353 1257 323 1265 q 422 1232 383 1249 q 484 1207 463 1216 q 522 1198 505 1198 q 558 1241 558 1198 l 558 1282 l 675 1282 l 675 1248 q 547 1085 675 1085 q 492 1095 524 1085 q 416 1122 460 1104 q 363 1144 387 1135 q 321 1153 338 1153 q 271 1103 271 1153 l 271 1062 l 153 1062 z "},"Æ":{"ha":814,"x_min":28,"x_max":746,"o":"m 28 0 l 300 963 l 746 963 l 746 841 l 529 841 l 529 543 l 705 543 l 705 421 l 529 421 l 529 122 l 746 122 l 746 0 l 407 0 l 407 167 l 204 167 l 157 0 l 28 0 m 395 846 l 236 279 l 407 279 l 407 846 l 395 846 z "},"Ǽ":{"ha":814,"x_min":28,"x_max":746,"o":"m 28 0 l 300 963 l 746 963 l 746 841 l 529 841 l 529 543 l 705 543 l 705 421 l 529 421 l 529 122 l 746 122 l 746 0 l 407 0 l 407 167 l 204 167 l 157 0 l 28 0 m 395 846 l 236 279 l 407 279 l 407 846 l 395 846 m 345 1072 l 494 1241 l 686 1241 l 509 1072 l 345 1072 z "},"B":{"ha":814,"x_min":109,"x_max":769,"o":"m 109 0 l 109 963 l 395 963 q 621 900 541 963 q 701 719 701 836 q 641 578 701 631 q 471 514 581 526 l 471 506 q 691 441 613 504 q 769 264 769 378 q 693 69 769 138 q 477 0 617 0 l 109 0 m 361 834 l 244 834 l 244 573 l 370 573 q 509 607 460 573 q 559 705 559 642 q 507 801 559 768 q 361 834 456 834 m 429 444 l 244 444 l 244 129 l 438 129 q 577 170 528 129 q 627 285 627 211 q 575 402 627 361 q 429 444 524 444 z "},"C":{"ha":814,"x_min":65,"x_max":779,"o":"m 514 -14 q 65 483 65 -14 q 178 847 65 718 q 498 977 292 977 q 671 945 597 977 q 779 855 745 913 l 679 755 q 601 827 648 802 q 499 852 554 852 q 289 758 368 852 q 210 490 210 663 q 537 111 210 111 q 731 152 635 111 l 762 33 q 514 -14 644 -14 z "},"Ć":{"ha":814,"x_min":65,"x_max":779,"o":"m 514 -14 q 65 483 65 -14 q 178 847 65 718 q 498 977 292 977 q 671 945 597 977 q 779 855 745 913 l 679 755 q 601 827 648 802 q 499 852 554 852 q 289 758 368 852 q 210 490 210 663 q 537 111 210 111 q 731 152 635 111 l 762 33 q 514 -14 644 -14 m 389 1072 l 538 1241 l 730 1241 l 553 1072 l 389 1072 z "},"Č":{"ha":814,"x_min":65,"x_max":779,"o":"m 514 -14 q 65 483 65 -14 q 178 847 65 718 q 498 977 292 977 q 671 945 597 977 q 779 855 745 913 l 679 755 q 601 827 648 802 q 499 852 554 852 q 289 758 368 852 q 210 490 210 663 q 537 111 210 111 q 731 152 635 111 l 762 33 q 514 -14 644 -14 m 420 1072 l 243 1248 l 394 1248 l 478 1150 l 562 1248 l 713 1248 l 536 1072 l 420 1072 z "},"Ç":{"ha":814,"x_min":65,"x_max":779,"o":"m 514 -14 q 65 483 65 -14 q 178 847 65 718 q 498 977 292 977 q 671 945 597 977 q 779 855 745 913 l 679 755 q 601 827 648 802 q 499 852 554 852 q 289 758 368 852 q 210 490 210 663 q 537 111 210 111 q 731 152 635 111 l 762 33 q 514 -14 644 -14 m 349 -326 l 349 -224 q 476 -175 476 -224 q 366 -129 476 -129 l 423 33 l 509 8 l 488 -68 q 605 -181 605 -92 q 349 -326 605 -326 z "},"Ĉ":{"ha":814,"x_min":65,"x_max":779,"o":"m 514 -14 q 65 483 65 -14 q 178 847 65 718 q 498 977 292 977 q 671 945 597 977 q 779 855 745 913 l 679 755 q 601 827 648 802 q 499 852 554 852 q 289 758 368 852 q 210 490 210 663 q 537 111 210 111 q 731 152 635 111 l 762 33 q 514 -14 644 -14 m 247 1072 l 423 1248 l 540 1248 l 716 1072 l 566 1072 l 481 1169 l 397 1072 l 247 1072 z "},"Ċ":{"ha":814,"x_min":65,"x_max":779,"o":"m 514 -14 q 65 483 65 -14 q 178 847 65 718 q 498 977 292 977 q 671 945 597 977 q 779 855 745 913 l 679 755 q 601 827 648 802 q 499 852 554 852 q 289 758 368 852 q 210 490 210 663 q 537 111 210 111 q 731 152 635 111 l 762 33 q 514 -14 644 -14 m 478 1072 q 414 1098 441 1072 q 387 1162 387 1125 q 414 1227 387 1200 q 478 1253 441 1253 q 543 1227 516 1253 q 569 1162 569 1200 q 543 1098 569 1125 q 478 1072 516 1072 z "},"D":{"ha":814,"x_min":109,"x_max":783,"o":"m 109 0 l 109 963 l 342 963 q 783 468 783 963 q 342 0 783 0 l 109 0 m 342 834 l 244 834 l 244 129 l 342 129 q 640 468 640 129 q 342 834 640 834 z "},"Ð":{"ha":814,"x_min":28,"x_max":783,"o":"m 109 0 l 109 415 l 28 415 l 28 544 l 109 544 l 109 963 l 342 963 q 783 468 783 963 q 342 0 783 0 l 109 0 m 462 415 l 244 415 l 244 129 l 342 129 q 640 468 640 129 q 342 834 640 834 l 244 834 l 244 544 l 462 544 l 462 415 z "},"Ď":{"ha":814,"x_min":109,"x_max":783,"o":"m 109 0 l 109 963 l 342 963 q 783 468 783 963 q 342 0 783 0 l 109 0 m 342 834 l 244 834 l 244 129 l 342 129 q 640 468 640 129 q 342 834 640 834 m 315 1072 l 138 1248 l 289 1248 l 373 1150 l 457 1248 l 608 1248 l 431 1072 l 315 1072 z "},"Đ":{"ha":814,"x_min":28,"x_max":783,"o":"m 109 0 l 109 415 l 28 415 l 28 544 l 109 544 l 109 963 l 342 963 q 783 468 783 963 q 342 0 783 0 l 109 0 m 462 415 l 244 415 l 244 129 l 342 129 q 640 468 640 129 q 342 834 640 834 l 244 834 l 244 544 l 462 544 l 462 415 z "},"E":{"ha":814,"x_min":109,"x_max":746,"o":"m 109 0 l 109 963 l 746 963 l 746 834 l 244 834 l 244 547 l 624 547 l 624 418 l 244 418 l 244 129 l 746 129 l 746 0 l 109 0 z "},"É":{"ha":814,"x_min":109,"x_max":746,"o":"m 109 0 l 109 963 l 746 963 l 746 834 l 244 834 l 244 547 l 624 547 l 624 418 l 244 418 l 244 129 l 746 129 l 746 0 l 109 0 m 338 1072 l 488 1241 l 679 1241 l 503 1072 l 338 1072 z "},"Ĕ":{"ha":814,"x_min":109,"x_max":746,"o":"m 109 0 l 109 963 l 746 963 l 746 834 l 244 834 l 244 547 l 624 547 l 624 418 l 244 418 l 244 129 l 746 129 l 746 0 l 109 0 m 427 1065 q 275 1116 329 1065 q 221 1261 221 1168 l 340 1261 q 363 1184 340 1212 q 427 1157 386 1157 q 492 1184 469 1157 q 515 1261 515 1212 l 633 1261 q 579 1116 633 1168 q 427 1065 526 1065 z "},"Ě":{"ha":814,"x_min":109,"x_max":746,"o":"m 109 0 l 109 963 l 746 963 l 746 834 l 244 834 l 244 547 l 624 547 l 624 418 l 244 418 l 244 129 l 746 129 l 746 0 l 109 0 m 369 1072 l 193 1248 l 343 1248 l 427 1150 l 511 1248 l 662 1248 l 486 1072 l 369 1072 z "},"Ê":{"ha":814,"x_min":109,"x_max":746,"o":"m 109 0 l 109 963 l 746 963 l 746 834 l 244 834 l 244 547 l 624 547 l 624 418 l 244 418 l 244 129 l 746 129 l 746 0 l 109 0 m 196 1072 l 372 1248 l 489 1248 l 665 1072 l 515 1072 l 431 1169 l 347 1072 l 196 1072 z "},"Ế":{"ha":814,"x_min":109,"x_max":917,"o":"m 109 0 l 109 963 l 746 963 l 746 834 l 244 834 l 244 547 l 624 547 l 624 418 l 244 418 l 244 129 l 746 129 l 746 0 l 109 0 m 196 1072 l 372 1248 l 489 1248 l 665 1072 l 515 1072 l 431 1169 l 347 1072 l 196 1072 m 576 1240 l 726 1409 l 917 1409 l 741 1240 l 576 1240 z "},"Ệ":{"ha":814,"x_min":109,"x_max":746,"o":"m 109 0 l 109 963 l 746 963 l 746 834 l 244 834 l 244 547 l 624 547 l 624 418 l 244 418 l 244 129 l 746 129 l 746 0 l 109 0 m 427 -285 q 363 -258 390 -285 q 336 -194 336 -231 q 363 -130 336 -156 q 427 -103 390 -103 q 492 -130 465 -103 q 518 -194 518 -156 q 492 -258 518 -231 q 427 -285 465 -285 m 196 1072 l 372 1248 l 489 1248 l 665 1072 l 515 1072 l 431 1169 l 347 1072 l 196 1072 z "},"Ề":{"ha":814,"x_min":109,"x_max":761,"o":"m 109 0 l 109 963 l 746 963 l 746 834 l 244 834 l 244 547 l 624 547 l 624 418 l 244 418 l 244 129 l 746 129 l 746 0 l 109 0 m 196 1072 l 372 1248 l 489 1248 l 665 1072 l 515 1072 l 431 1169 l 347 1072 l 196 1072 m 597 1240 l 420 1409 l 612 1409 l 761 1240 l 597 1240 z "},"Ể":{"ha":814,"x_min":109,"x_max":825,"o":"m 109 0 l 109 963 l 746 963 l 746 834 l 244 834 l 244 547 l 624 547 l 624 418 l 244 418 l 244 129 l 746 129 l 746 0 l 109 0 m 196 1072 l 372 1248 l 489 1248 l 665 1072 l 515 1072 l 431 1169 l 347 1072 l 196 1072 m 619 1205 l 619 1219 q 664 1272 619 1242 q 701 1300 690 1289 q 712 1322 712 1312 q 656 1357 712 1357 q 545 1328 591 1357 l 500 1409 q 671 1459 555 1459 q 825 1349 825 1459 q 806 1281 825 1308 q 744 1229 788 1255 q 724 1205 724 1217 l 619 1205 z "},"Ễ":{"ha":814,"x_min":109,"x_max":746,"o":"m 109 0 l 109 963 l 746 963 l 746 834 l 244 834 l 244 547 l 624 547 l 624 418 l 244 418 l 244 129 l 746 129 l 746 0 l 109 0 m 196 1072 l 372 1248 l 489 1248 l 665 1072 l 515 1072 l 431 1169 l 347 1072 l 196 1072 m 173 1284 l 173 1318 q 315 1488 173 1488 q 373 1479 343 1488 q 443 1455 404 1471 q 504 1429 483 1438 q 542 1420 525 1420 q 578 1463 578 1420 l 578 1504 l 695 1504 l 695 1470 q 568 1308 695 1308 q 513 1317 545 1308 q 437 1345 481 1326 q 383 1366 408 1357 q 341 1375 359 1375 q 291 1325 291 1375 l 291 1284 l 173 1284 z "},"Ë":{"ha":814,"x_min":109,"x_max":746,"o":"m 109 0 l 109 963 l 746 963 l 746 834 l 244 834 l 244 547 l 624 547 l 624 418 l 244 418 l 244 129 l 746 129 l 746 0 l 109 0 m 568 1072 q 504 1098 531 1072 q 477 1162 477 1125 q 504 1227 477 1200 q 568 1253 531 1253 q 633 1227 606 1253 q 659 1162 659 1200 q 633 1098 659 1125 q 568 1072 606 1072 m 283 1072 q 219 1098 246 1072 q 193 1162 193 1125 q 219 1227 193 1200 q 283 1253 246 1253 q 348 1227 321 1253 q 374 1162 374 1200 q 348 1098 374 1125 q 283 1072 321 1072 z "},"Ė":{"ha":814,"x_min":109,"x_max":746,"o":"m 109 0 l 109 963 l 746 963 l 746 834 l 244 834 l 244 547 l 624 547 l 624 418 l 244 418 l 244 129 l 746 129 l 746 0 l 109 0 m 427 1072 q 363 1098 390 1072 q 336 1162 336 1125 q 363 1227 336 1200 q 427 1253 390 1253 q 492 1227 465 1253 q 518 1162 518 1200 q 492 1098 518 1125 q 427 1072 465 1072 z "},"Ẹ":{"ha":814,"x_min":109,"x_max":746,"o":"m 109 0 l 109 963 l 746 963 l 746 834 l 244 834 l 244 547 l 624 547 l 624 418 l 244 418 l 244 129 l 746 129 l 746 0 l 109 0 m 427 -285 q 363 -258 390 -285 q 336 -194 336 -231 q 363 -130 336 -156 q 427 -103 390 -103 q 492 -130 465 -103 q 518 -194 518 -156 q 492 -258 518 -231 q 427 -285 465 -285 z "},"È":{"ha":814,"x_min":109,"x_max":746,"o":"m 109 0 l 109 963 l 746 963 l 746 834 l 244 834 l 244 547 l 624 547 l 624 418 l 244 418 l 244 129 l 746 129 l 746 0 l 109 0 m 359 1072 l 182 1241 l 374 1241 l 523 1072 l 359 1072 z "},"Ẻ":{"ha":814,"x_min":109,"x_max":746,"o":"m 109 0 l 109 963 l 746 963 l 746 834 l 244 834 l 244 547 l 624 547 l 624 418 l 244 418 l 244 129 l 746 129 l 746 0 l 109 0 m 381 1037 l 381 1051 q 426 1104 381 1074 q 463 1132 452 1121 q 474 1154 474 1143 q 418 1189 474 1189 q 307 1160 353 1189 l 262 1240 q 433 1291 317 1291 q 587 1181 587 1291 q 568 1113 587 1140 q 506 1061 550 1086 q 486 1037 486 1049 l 381 1037 z "},"Ē":{"ha":814,"x_min":109,"x_max":746,"o":"m 109 0 l 109 963 l 746 963 l 746 834 l 244 834 l 244 547 l 624 547 l 624 418 l 244 418 l 244 129 l 746 129 l 746 0 l 109 0 m 165 1072 l 165 1199 l 690 1199 l 690 1072 l 165 1072 z "},"Ę":{"ha":814,"x_min":109,"x_max":746,"o":"m 109 0 l 109 963 l 746 963 l 746 834 l 244 834 l 244 547 l 624 547 l 624 418 l 244 418 l 244 129 l 746 129 l 746 0 q 634 -30 674 0 q 594 -114 594 -60 q 673 -174 594 -174 q 728 -166 696 -174 l 716 -281 q 655 -288 685 -288 q 535 -250 577 -288 q 492 -144 492 -212 q 512 -60 492 -94 q 570 -14 532 -26 l 570 0 l 109 0 z "},"Ẽ":{"ha":814,"x_min":109,"x_max":746,"o":"m 109 0 l 109 963 l 746 963 l 746 834 l 244 834 l 244 547 l 624 547 l 624 418 l 244 418 l 244 129 l 746 129 l 746 0 l 109 0 m 173 1062 l 173 1096 q 315 1265 173 1265 q 373 1257 343 1265 q 443 1232 404 1249 q 504 1207 483 1216 q 542 1198 525 1198 q 578 1241 578 1198 l 578 1282 l 695 1282 l 695 1248 q 568 1085 695 1085 q 513 1095 545 1085 q 437 1122 481 1104 q 383 1144 408 1135 q 341 1153 359 1153 q 291 1103 291 1153 l 291 1062 l 173 1062 z "},"F":{"ha":814,"x_min":109,"x_max":746,"o":"m 109 0 l 109 963 l 746 963 l 746 834 l 244 834 l 244 506 l 624 506 l 624 377 l 244 377 l 244 0 l 109 0 z "},"G":{"ha":814,"x_min":65,"x_max":780,"o":"m 496 -14 q 65 483 65 -14 q 177 847 65 718 q 491 977 289 977 q 668 945 592 977 q 780 856 744 913 l 679 755 q 601 827 648 802 q 499 852 553 852 q 286 757 362 852 q 210 490 210 663 q 513 111 210 111 q 576 115 547 111 q 631 125 606 119 l 631 353 l 434 353 l 434 481 l 760 481 l 760 27 q 660 2 731 18 q 496 -14 588 -14 z "},"Ğ":{"ha":814,"x_min":65,"x_max":780,"o":"m 496 -14 q 65 483 65 -14 q 177 847 65 718 q 491 977 289 977 q 668 945 592 977 q 780 856 744 913 l 679 755 q 601 827 648 802 q 499 852 553 852 q 286 757 362 852 q 210 490 210 663 q 513 111 210 111 q 576 115 547 111 q 631 125 606 119 l 631 353 l 434 353 l 434 481 l 760 481 l 760 27 q 660 2 731 18 q 496 -14 588 -14 m 471 1065 q 319 1116 373 1065 q 265 1261 265 1168 l 384 1261 q 407 1184 384 1212 q 471 1157 430 1157 q 536 1184 513 1157 q 559 1261 559 1212 l 677 1261 q 624 1116 677 1168 q 471 1065 570 1065 z "},"Ǧ":{"ha":814,"x_min":65,"x_max":780,"o":"m 496 -14 q 65 483 65 -14 q 177 847 65 718 q 491 977 289 977 q 668 945 592 977 q 780 856 744 913 l 679 755 q 601 827 648 802 q 499 852 553 852 q 286 757 362 852 q 210 490 210 663 q 513 111 210 111 q 576 115 547 111 q 631 125 606 119 l 631 353 l 434 353 l 434 481 l 760 481 l 760 27 q 660 2 731 18 q 496 -14 588 -14 m 413 1072 l 237 1248 l 387 1248 l 471 1150 l 555 1248 l 706 1248 l 530 1072 l 413 1072 z "},"Ĝ":{"ha":814,"x_min":65,"x_max":780,"o":"m 496 -14 q 65 483 65 -14 q 177 847 65 718 q 491 977 289 977 q 668 945 592 977 q 780 856 744 913 l 679 755 q 601 827 648 802 q 499 852 553 852 q 286 757 362 852 q 210 490 210 663 q 513 111 210 111 q 576 115 547 111 q 631 125 606 119 l 631 353 l 434 353 l 434 481 l 760 481 l 760 27 q 660 2 731 18 q 496 -14 588 -14 m 240 1072 l 416 1248 l 533 1248 l 709 1072 l 559 1072 l 475 1169 l 391 1072 l 240 1072 z "},"Ģ":{"ha":814,"x_min":65,"x_max":780,"o":"m 496 -14 q 65 483 65 -14 q 177 847 65 718 q 491 977 289 977 q 668 945 592 977 q 780 856 744 913 l 679 755 q 601 827 648 802 q 499 852 553 852 q 286 757 362 852 q 210 490 210 663 q 513 111 210 111 q 576 115 547 111 q 631 125 606 119 l 631 353 l 434 353 l 434 481 l 760 481 l 760 27 q 660 2 731 18 q 496 -14 588 -14 m 359 -326 l 412 -95 l 562 -95 l 483 -326 l 359 -326 z "},"Ġ":{"ha":814,"x_min":65,"x_max":780,"o":"m 496 -14 q 65 483 65 -14 q 177 847 65 718 q 491 977 289 977 q 668 945 592 977 q 780 856 744 913 l 679 755 q 601 827 648 802 q 499 852 553 852 q 286 757 362 852 q 210 490 210 663 q 513 111 210 111 q 576 115 547 111 q 631 125 606 119 l 631 353 l 434 353 l 434 481 l 760 481 l 760 27 q 660 2 731 18 q 496 -14 588 -14 m 471 1072 q 407 1098 434 1072 q 380 1162 380 1125 q 407 1227 380 1200 q 471 1253 434 1253 q 536 1227 509 1253 q 562 1162 562 1200 q 536 1098 562 1125 q 471 1072 509 1072 z "},"H":{"ha":814,"x_min":95,"x_max":719,"o":"m 95 0 l 95 963 l 231 963 l 231 544 l 583 544 l 583 963 l 719 963 l 719 0 l 583 0 l 583 415 l 231 415 l 231 0 l 95 0 z "},"Ħ":{"ha":814,"x_min":42,"x_max":772,"o":"m 95 0 l 95 680 l 42 680 l 42 808 l 95 808 l 95 963 l 231 963 l 231 808 l 583 808 l 583 963 l 719 963 l 719 808 l 772 808 l 772 680 l 719 680 l 719 0 l 583 0 l 583 415 l 231 415 l 231 0 l 95 0 m 231 544 l 583 544 l 583 680 l 231 680 l 231 544 z "},"Ĥ":{"ha":814,"x_min":95,"x_max":719,"o":"m 95 0 l 95 963 l 231 963 l 231 544 l 583 544 l 583 963 l 719 963 l 719 0 l 583 0 l 583 415 l 231 415 l 231 0 l 95 0 m 176 1072 l 352 1248 l 469 1248 l 645 1072 l 494 1072 l 410 1169 l 326 1072 l 176 1072 z "},"I":{"ha":814,"x_min":114,"x_max":700,"o":"m 114 0 l 114 129 l 338 129 l 338 834 l 114 834 l 114 963 l 700 963 l 700 834 l 474 834 l 474 129 l 700 129 l 700 0 l 114 0 z "},"Ĳ":{"ha":814,"x_min":31,"x_max":727,"o":"m 423 0 q 146 255 146 0 l 282 255 q 427 122 282 122 q 591 309 591 122 l 591 834 l 461 834 l 461 963 l 727 963 l 727 309 q 423 0 727 0 m 31 351 l 31 479 l 150 479 l 150 834 l 31 834 l 31 963 l 386 963 l 386 834 l 279 834 l 279 479 l 399 479 l 399 351 l 31 351 z "},"Í":{"ha":814,"x_min":114,"x_max":700,"o":"m 114 0 l 114 129 l 338 129 l 338 834 l 114 834 l 114 963 l 700 963 l 700 834 l 474 834 l 474 129 l 700 129 l 700 0 l 114 0 m 318 1072 l 467 1241 l 659 1241 l 482 1072 l 318 1072 z "},"Ĭ":{"ha":814,"x_min":114,"x_max":700,"o":"m 114 0 l 114 129 l 338 129 l 338 834 l 114 834 l 114 963 l 700 963 l 700 834 l 474 834 l 474 129 l 700 129 l 700 0 l 114 0 m 407 1065 q 255 1116 309 1065 q 201 1261 201 1168 l 319 1261 q 342 1184 319 1212 q 407 1157 366 1157 q 472 1184 449 1157 q 494 1261 494 1212 l 613 1261 q 559 1116 613 1168 q 407 1065 505 1065 z "},"Î":{"ha":814,"x_min":114,"x_max":700,"o":"m 114 0 l 114 129 l 338 129 l 338 834 l 114 834 l 114 963 l 700 963 l 700 834 l 474 834 l 474 129 l 700 129 l 700 0 l 114 0 m 176 1072 l 352 1248 l 469 1248 l 645 1072 l 494 1072 l 410 1169 l 326 1072 l 176 1072 z "},"Ï":{"ha":814,"x_min":114,"x_max":700,"o":"m 114 0 l 114 129 l 338 129 l 338 834 l 114 834 l 114 963 l 700 963 l 700 834 l 474 834 l 474 129 l 700 129 l 700 0 l 114 0 m 548 1072 q 484 1098 511 1072 q 457 1162 457 1125 q 484 1227 457 1200 q 548 1253 511 1253 q 612 1227 586 1253 q 639 1162 639 1200 q 612 1098 639 1125 q 548 1072 586 1072 m 263 1072 q 199 1098 226 1072 q 172 1162 172 1125 q 199 1227 172 1200 q 263 1253 226 1253 q 328 1227 301 1253 q 354 1162 354 1200 q 328 1098 354 1125 q 263 1072 301 1072 z "},"İ":{"ha":814,"x_min":114,"x_max":700,"o":"m 114 0 l 114 129 l 338 129 l 338 834 l 114 834 l 114 963 l 700 963 l 700 834 l 474 834 l 474 129 l 700 129 l 700 0 l 114 0 m 407 1072 q 343 1098 370 1072 q 316 1162 316 1125 q 343 1227 316 1200 q 407 1253 370 1253 q 471 1227 445 1253 q 498 1162 498 1200 q 471 1098 498 1125 q 407 1072 445 1072 z "},"Ị":{"ha":814,"x_min":114,"x_max":700,"o":"m 114 0 l 114 129 l 338 129 l 338 834 l 114 834 l 114 963 l 700 963 l 700 834 l 474 834 l 474 129 l 700 129 l 700 0 l 114 0 m 407 -285 q 343 -258 370 -285 q 316 -194 316 -231 q 343 -130 316 -156 q 407 -103 370 -103 q 471 -130 445 -103 q 498 -194 498 -156 q 471 -258 498 -231 q 407 -285 445 -285 z "},"Ì":{"ha":814,"x_min":114,"x_max":700,"o":"m 114 0 l 114 129 l 338 129 l 338 834 l 114 834 l 114 963 l 700 963 l 700 834 l 474 834 l 474 129 l 700 129 l 700 0 l 114 0 m 338 1072 l 162 1241 l 353 1241 l 503 1072 l 338 1072 z "},"Ỉ":{"ha":814,"x_min":114,"x_max":700,"o":"m 114 0 l 114 129 l 338 129 l 338 834 l 114 834 l 114 963 l 700 963 l 700 834 l 474 834 l 474 129 l 700 129 l 700 0 l 114 0 m 361 1037 l 361 1051 q 406 1104 361 1074 q 443 1132 432 1121 q 454 1154 454 1143 q 398 1189 454 1189 q 287 1160 333 1189 l 241 1240 q 412 1291 296 1291 q 566 1181 566 1291 q 548 1113 566 1140 q 486 1061 530 1086 q 466 1037 466 1049 l 361 1037 z "},"Ī":{"ha":814,"x_min":114,"x_max":700,"o":"m 114 0 l 114 129 l 338 129 l 338 834 l 114 834 l 114 963 l 700 963 l 700 834 l 474 834 l 474 129 l 700 129 l 700 0 l 114 0 m 144 1072 l 144 1199 l 669 1199 l 669 1072 l 144 1072 z "},"Į":{"ha":814,"x_min":114,"x_max":700,"o":"m 114 0 l 114 129 l 338 129 l 338 834 l 114 834 l 114 963 l 700 963 l 700 834 l 474 834 l 474 129 l 700 129 l 700 0 l 522 0 q 410 -30 450 0 q 370 -114 370 -60 q 449 -174 370 -174 q 505 -166 473 -174 l 492 -281 q 431 -288 461 -288 q 311 -250 353 -288 q 269 -144 269 -212 q 289 -60 269 -94 q 346 -14 309 -26 l 346 0 l 114 0 z "},"Ĩ":{"ha":814,"x_min":114,"x_max":700,"o":"m 114 0 l 114 129 l 338 129 l 338 834 l 114 834 l 114 963 l 700 963 l 700 834 l 474 834 l 474 129 l 700 129 l 700 0 l 114 0 m 153 1062 l 153 1096 q 295 1265 153 1265 q 353 1257 323 1265 q 422 1232 383 1249 q 484 1207 463 1216 q 522 1198 505 1198 q 558 1241 558 1198 l 558 1282 l 675 1282 l 675 1248 q 547 1085 675 1085 q 492 1095 524 1085 q 416 1122 460 1104 q 363 1144 387 1135 q 321 1153 338 1153 q 271 1103 271 1153 l 271 1062 l 153 1062 z "},"J":{"ha":814,"x_min":65,"x_max":727,"o":"m 396 -14 q 151 75 237 -14 q 65 323 65 163 l 201 323 q 253 165 201 221 q 399 109 304 109 q 542 157 492 109 q 591 296 591 206 l 591 834 l 339 834 l 339 963 l 727 963 l 727 296 q 640 67 727 149 q 396 -14 552 -14 z "},"Ĵ":{"ha":814,"x_min":65,"x_max":767,"o":"m 396 -14 q 151 75 237 -14 q 65 323 65 163 l 201 323 q 253 165 201 221 q 399 109 304 109 q 542 157 492 109 q 591 296 591 206 l 591 834 l 339 834 l 339 963 l 727 963 l 727 296 q 640 67 727 149 q 396 -14 552 -14 m 298 1072 l 474 1248 l 591 1248 l 767 1072 l 616 1072 l 532 1169 l 448 1072 l 298 1072 z "},"K":{"ha":814,"x_min":109,"x_max":795,"o":"m 109 0 l 109 963 l 244 963 l 244 442 q 407 497 338 451 q 521 616 476 543 q 587 779 566 689 q 609 963 609 868 l 749 963 q 699 680 749 814 q 555 452 649 545 l 795 0 l 631 0 l 440 367 q 348 328 397 343 q 244 309 298 313 l 244 0 l 109 0 z "},"Ķ":{"ha":814,"x_min":109,"x_max":795,"o":"m 109 0 l 109 963 l 244 963 l 244 442 q 407 497 338 451 q 521 616 476 543 q 587 779 566 689 q 609 963 609 868 l 749 963 q 699 680 749 814 q 555 452 649 545 l 795 0 l 631 0 l 440 367 q 348 328 397 343 q 244 309 298 313 l 244 0 l 109 0 m 309 -326 l 361 -95 l 511 -95 l 432 -326 l 309 -326 z "},"L":{"ha":814,"x_min":109,"x_max":746,"o":"m 109 0 l 109 963 l 244 963 l 244 129 l 746 129 l 746 0 l 109 0 z "},"Ĺ":{"ha":814,"x_min":87,"x_max":746,"o":"m 109 0 l 109 963 l 244 963 l 244 129 l 746 129 l 746 0 l 109 0 m 87 1072 l 237 1241 l 428 1241 l 252 1072 l 87 1072 z "},"Ľ":{"ha":814,"x_min":109,"x_max":746,"o":"m 517 806 l 551 1063 l 694 1063 l 633 806 l 517 806 m 109 0 l 109 963 l 244 963 l 244 129 l 746 129 l 746 0 l 109 0 z "},"Ļ":{"ha":814,"x_min":109,"x_max":746,"o":"m 109 0 l 109 963 l 244 963 l 244 129 l 746 129 l 746 0 l 109 0 m 295 -326 l 347 -95 l 498 -95 l 418 -326 l 295 -326 z "},"Ŀ":{"ha":814,"x_min":109,"x_max":746,"o":"m 109 0 l 109 963 l 244 963 l 244 129 l 746 129 l 746 0 l 109 0 z "},"Ł":{"ha":814,"x_min":39,"x_max":746,"o":"m 176 0 l 176 380 l 39 309 l 39 434 l 176 505 l 176 963 l 312 963 l 312 576 l 586 719 l 586 593 l 312 450 l 312 129 l 746 129 l 746 0 l 176 0 z "},"M":{"ha":814,"x_min":87,"x_max":727,"o":"m 87 0 l 87 963 l 292 963 l 401 549 l 412 549 l 522 963 l 727 963 l 727 0 l 597 0 l 597 792 l 579 792 l 469 393 l 345 393 l 235 792 l 217 792 l 217 0 l 87 0 z "},"N":{"ha":814,"x_min":100,"x_max":713,"o":"m 100 0 l 100 963 l 271 963 l 570 231 l 583 231 l 583 963 l 713 963 l 713 0 l 543 0 l 244 732 l 231 732 l 231 0 l 100 0 z "},"Ń":{"ha":814,"x_min":100,"x_max":713,"o":"m 100 0 l 100 963 l 271 963 l 570 231 l 583 231 l 583 963 l 713 963 l 713 0 l 543 0 l 244 732 l 231 732 l 231 0 l 100 0 m 318 1072 l 467 1241 l 659 1241 l 482 1072 l 318 1072 z "},"Ň":{"ha":814,"x_min":100,"x_max":713,"o":"m 100 0 l 100 963 l 271 963 l 570 231 l 583 231 l 583 963 l 713 963 l 713 0 l 543 0 l 244 732 l 231 732 l 231 0 l 100 0 m 349 1072 l 172 1248 l 323 1248 l 407 1150 l 491 1248 l 642 1248 l 465 1072 l 349 1072 z "},"Ņ":{"ha":814,"x_min":100,"x_max":713,"o":"m 100 0 l 100 963 l 271 963 l 570 231 l 583 231 l 583 963 l 713 963 l 713 0 l 543 0 l 244 732 l 231 732 l 231 0 l 100 0 m 281 -326 l 334 -95 l 484 -95 l 405 -326 l 281 -326 z "},"Ŋ":{"ha":814,"x_min":100,"x_max":713,"o":"m 100 0 l 100 963 l 271 963 l 570 231 l 583 231 l 583 963 l 713 963 l 713 -65 q 655 -242 713 -176 q 490 -317 597 -308 l 402 -326 l 395 -212 l 477 -199 q 556 -157 530 -191 q 583 -60 583 -123 l 583 0 l 543 0 l 244 732 l 231 732 l 231 0 l 100 0 z "},"Ɲ":{"ha":814,"x_min":-87,"x_max":713,"o":"m -80 -326 l -87 -212 l -5 -199 q 100 -60 100 -187 l 100 963 l 271 963 l 570 231 l 583 231 l 583 963 l 713 963 l 713 0 l 543 0 l 244 732 l 231 732 l 231 125 l 231 125 l 231 -65 q 173 -243 231 -177 q 8 -317 115 -309 l -80 -326 z "},"Ñ":{"ha":814,"x_min":100,"x_max":713,"o":"m 100 0 l 100 963 l 271 963 l 570 231 l 583 231 l 583 963 l 713 963 l 713 0 l 543 0 l 244 732 l 231 732 l 231 0 l 100 0 m 153 1062 l 153 1096 q 295 1265 153 1265 q 353 1257 323 1265 q 422 1232 383 1249 q 484 1207 463 1216 q 522 1198 505 1198 q 558 1241 558 1198 l 558 1282 l 675 1282 l 675 1248 q 547 1085 675 1085 q 492 1095 524 1085 q 416 1122 460 1104 q 363 1144 387 1135 q 321 1153 338 1153 q 271 1103 271 1153 l 271 1062 l 153 1062 z "},"O":{"ha":814,"x_min":52,"x_max":762,"o":"m 407 -14 q 52 475 52 -14 q 407 977 52 977 q 762 475 762 977 q 407 -14 762 -14 m 407 111 q 620 475 620 111 q 407 852 620 852 q 194 475 194 852 q 407 111 194 111 z "},"Ó":{"ha":814,"x_min":52,"x_max":762,"o":"m 407 -14 q 52 475 52 -14 q 407 977 52 977 q 762 475 762 977 q 407 -14 762 -14 m 407 111 q 620 475 620 111 q 407 852 620 852 q 194 475 194 852 q 407 111 194 111 m 318 1072 l 467 1241 l 659 1241 l 482 1072 l 318 1072 z "},"Ŏ":{"ha":814,"x_min":52,"x_max":762,"o":"m 407 -14 q 52 475 52 -14 q 407 977 52 977 q 762 475 762 977 q 407 -14 762 -14 m 407 111 q 620 475 620 111 q 407 852 620 852 q 194 475 194 852 q 407 111 194 111 m 407 1065 q 255 1116 309 1065 q 201 1261 201 1168 l 319 1261 q 342 1184 319 1212 q 407 1157 366 1157 q 472 1184 449 1157 q 494 1261 494 1212 l 613 1261 q 559 1116 613 1168 q 407 1065 505 1065 z "},"Ô":{"ha":814,"x_min":52,"x_max":762,"o":"m 407 -14 q 52 475 52 -14 q 407 977 52 977 q 762 475 762 977 q 407 -14 762 -14 m 407 111 q 620 475 620 111 q 407 852 620 852 q 194 475 194 852 q 407 111 194 111 m 176 1072 l 352 1248 l 469 1248 l 645 1072 l 494 1072 l 410 1169 l 326 1072 l 176 1072 z "},"Ố":{"ha":814,"x_min":52,"x_max":897,"o":"m 407 -14 q 52 475 52 -14 q 407 977 52 977 q 762 475 762 977 q 407 -14 762 -14 m 407 111 q 620 475 620 111 q 407 852 620 852 q 194 475 194 852 q 407 111 194 111 m 176 1072 l 352 1248 l 469 1248 l 645 1072 l 494 1072 l 410 1169 l 326 1072 l 176 1072 m 556 1240 l 705 1409 l 897 1409 l 720 1240 l 556 1240 z "},"Ộ":{"ha":814,"x_min":52,"x_max":762,"o":"m 407 -14 q 52 475 52 -14 q 407 977 52 977 q 762 475 762 977 q 407 -14 762 -14 m 407 111 q 620 475 620 111 q 407 852 620 852 q 194 475 194 852 q 407 111 194 111 m 407 -285 q 343 -258 370 -285 q 316 -194 316 -231 q 343 -130 316 -156 q 407 -103 370 -103 q 471 -130 445 -103 q 498 -194 498 -156 q 471 -258 498 -231 q 407 -285 445 -285 m 176 1072 l 352 1248 l 469 1248 l 645 1072 l 494 1072 l 410 1169 l 326 1072 l 176 1072 z "},"Ồ":{"ha":814,"x_min":52,"x_max":762,"o":"m 407 -14 q 52 475 52 -14 q 407 977 52 977 q 762 475 762 977 q 407 -14 762 -14 m 407 111 q 620 475 620 111 q 407 852 620 852 q 194 475 194 852 q 407 111 194 111 m 176 1072 l 352 1248 l 469 1248 l 645 1072 l 494 1072 l 410 1169 l 326 1072 l 176 1072 m 576 1240 l 400 1409 l 591 1409 l 741 1240 l 576 1240 z "},"Ổ":{"ha":814,"x_min":52,"x_max":804,"o":"m 407 -14 q 52 475 52 -14 q 407 977 52 977 q 762 475 762 977 q 407 -14 762 -14 m 407 111 q 620 475 620 111 q 407 852 620 852 q 194 475 194 852 q 407 111 194 111 m 176 1072 l 352 1248 l 469 1248 l 645 1072 l 494 1072 l 410 1169 l 326 1072 l 176 1072 m 599 1205 l 599 1219 q 644 1272 599 1242 q 681 1300 670 1289 q 692 1322 692 1312 q 636 1357 692 1357 q 525 1328 571 1357 l 479 1409 q 650 1459 534 1459 q 804 1349 804 1459 q 786 1281 804 1308 q 724 1229 768 1255 q 704 1205 704 1217 l 599 1205 z "},"Ỗ":{"ha":814,"x_min":52,"x_max":762,"o":"m 407 -14 q 52 475 52 -14 q 407 977 52 977 q 762 475 762 977 q 407 -14 762 -14 m 407 111 q 620 475 620 111 q 407 852 620 852 q 194 475 194 852 q 407 111 194 111 m 176 1072 l 352 1248 l 469 1248 l 645 1072 l 494 1072 l 410 1169 l 326 1072 l 176 1072 m 153 1284 l 153 1318 q 295 1488 153 1488 q 353 1479 323 1488 q 422 1455 383 1471 q 484 1429 463 1438 q 522 1420 505 1420 q 558 1463 558 1420 l 558 1504 l 675 1504 l 675 1470 q 547 1308 675 1308 q 492 1317 524 1308 q 416 1345 460 1326 q 363 1366 387 1357 q 321 1375 338 1375 q 271 1325 271 1375 l 271 1284 l 153 1284 z "},"Ö":{"ha":814,"x_min":52,"x_max":762,"o":"m 407 -14 q 52 475 52 -14 q 407 977 52 977 q 762 475 762 977 q 407 -14 762 -14 m 407 111 q 620 475 620 111 q 407 852 620 852 q 194 475 194 852 q 407 111 194 111 m 548 1072 q 484 1098 511 1072 q 457 1162 457 1125 q 484 1227 457 1200 q 548 1253 511 1253 q 612 1227 586 1253 q 639 1162 639 1200 q 612 1098 639 1125 q 548 1072 586 1072 m 263 1072 q 199 1098 226 1072 q 172 1162 172 1125 q 199 1227 172 1200 q 263 1253 226 1253 q 328 1227 301 1253 q 354 1162 354 1200 q 328 1098 354 1125 q 263 1072 301 1072 z "},"Ọ":{"ha":814,"x_min":52,"x_max":762,"o":"m 407 -14 q 52 475 52 -14 q 407 977 52 977 q 762 475 762 977 q 407 -14 762 -14 m 407 111 q 620 475 620 111 q 407 852 620 852 q 194 475 194 852 q 407 111 194 111 m 407 -285 q 343 -258 370 -285 q 316 -194 316 -231 q 343 -130 316 -156 q 407 -103 370 -103 q 471 -130 445 -103 q 498 -194 498 -156 q 471 -258 498 -231 q 407 -285 445 -285 z "},"Ò":{"ha":814,"x_min":52,"x_max":762,"o":"m 407 -14 q 52 475 52 -14 q 407 977 52 977 q 762 475 762 977 q 407 -14 762 -14 m 407 111 q 620 475 620 111 q 407 852 620 852 q 194 475 194 852 q 407 111 194 111 m 338 1072 l 162 1241 l 353 1241 l 503 1072 l 338 1072 z "},"Ỏ":{"ha":814,"x_min":52,"x_max":762,"o":"m 407 -14 q 52 475 52 -14 q 407 977 52 977 q 762 475 762 977 q 407 -14 762 -14 m 407 111 q 620 475 620 111 q 407 852 620 852 q 194 475 194 852 q 407 111 194 111 m 361 1037 l 361 1051 q 406 1104 361 1074 q 443 1132 432 1121 q 454 1154 454 1143 q 398 1189 454 1189 q 287 1160 333 1189 l 241 1240 q 412 1291 296 1291 q 566 1181 566 1291 q 548 1113 566 1140 q 486 1061 530 1086 q 466 1037 466 1049 l 361 1037 z "},"Ơ":{"ha":814,"x_min":52,"x_max":846,"o":"m 407 -14 q 52 475 52 -14 q 407 977 52 977 q 762 475 762 977 q 407 -14 762 -14 m 407 111 q 620 475 620 111 q 407 852 620 852 q 194 475 194 852 q 407 111 194 111 m 570 817 l 536 929 l 577 936 q 716 1121 716 959 l 846 1121 q 611 824 846 863 l 570 817 z "},"Ớ":{"ha":814,"x_min":52,"x_max":846,"o":"m 407 -14 q 52 475 52 -14 q 407 977 52 977 q 762 475 762 977 q 407 -14 762 -14 m 407 111 q 620 475 620 111 q 407 852 620 852 q 194 475 194 852 q 407 111 194 111 m 570 817 l 536 929 l 577 936 q 716 1121 716 959 l 846 1121 q 611 824 846 863 l 570 817 m 318 1072 l 467 1241 l 659 1241 l 482 1072 l 318 1072 z "},"Ợ":{"ha":814,"x_min":52,"x_max":846,"o":"m 407 -14 q 52 475 52 -14 q 407 977 52 977 q 762 475 762 977 q 407 -14 762 -14 m 407 111 q 620 475 620 111 q 407 852 620 852 q 194 475 194 852 q 407 111 194 111 m 570 817 l 536 929 l 577 936 q 716 1121 716 959 l 846 1121 q 611 824 846 863 l 570 817 m 407 -285 q 343 -258 370 -285 q 316 -194 316 -231 q 343 -130 316 -156 q 407 -103 370 -103 q 471 -130 445 -103 q 498 -194 498 -156 q 471 -258 498 -231 q 407 -285 445 -285 z "},"Ờ":{"ha":814,"x_min":52,"x_max":846,"o":"m 407 -14 q 52 475 52 -14 q 407 977 52 977 q 762 475 762 977 q 407 -14 762 -14 m 407 111 q 620 475 620 111 q 407 852 620 852 q 194 475 194 852 q 407 111 194 111 m 570 817 l 536 929 l 577 936 q 716 1121 716 959 l 846 1121 q 611 824 846 863 l 570 817 m 338 1072 l 162 1241 l 353 1241 l 503 1072 l 338 1072 z "},"Ở":{"ha":814,"x_min":52,"x_max":846,"o":"m 407 -14 q 52 475 52 -14 q 407 977 52 977 q 762 475 762 977 q 407 -14 762 -14 m 407 111 q 620 475 620 111 q 407 852 620 852 q 194 475 194 852 q 407 111 194 111 m 570 817 l 536 929 l 577 936 q 716 1121 716 959 l 846 1121 q 611 824 846 863 l 570 817 m 361 1037 l 361 1051 q 406 1104 361 1074 q 443 1132 432 1121 q 454 1154 454 1143 q 398 1189 454 1189 q 287 1160 333 1189 l 241 1240 q 412 1291 296 1291 q 566 1181 566 1291 q 548 1113 566 1140 q 486 1061 530 1086 q 466 1037 466 1049 l 361 1037 z "},"Ỡ":{"ha":814,"x_min":52,"x_max":846,"o":"m 407 -14 q 52 475 52 -14 q 407 977 52 977 q 762 475 762 977 q 407 -14 762 -14 m 407 111 q 620 475 620 111 q 407 852 620 852 q 194 475 194 852 q 407 111 194 111 m 570 817 l 536 929 l 577 936 q 716 1121 716 959 l 846 1121 q 611 824 846 863 l 570 817 m 153 1062 l 153 1096 q 295 1265 153 1265 q 353 1257 323 1265 q 422 1232 383 1249 q 484 1207 463 1216 q 522 1198 505 1198 q 558 1241 558 1198 l 558 1282 l 675 1282 l 675 1248 q 547 1085 675 1085 q 492 1095 524 1085 q 416 1122 460 1104 q 363 1144 387 1135 q 321 1153 338 1153 q 271 1103 271 1153 l 271 1062 l 153 1062 z "},"Ő":{"ha":814,"x_min":52,"x_max":762,"o":"m 407 -14 q 52 475 52 -14 q 407 977 52 977 q 762 475 762 977 q 407 -14 762 -14 m 407 111 q 620 475 620 111 q 407 852 620 852 q 194 475 194 852 q 407 111 194 111 m 447 1072 l 555 1241 l 747 1241 l 611 1072 l 447 1072 m 169 1072 l 277 1241 l 469 1241 l 333 1072 l 169 1072 z "},"Ō":{"ha":814,"x_min":52,"x_max":762,"o":"m 407 -14 q 52 475 52 -14 q 407 977 52 977 q 762 475 762 977 q 407 -14 762 -14 m 407 111 q 620 475 620 111 q 407 852 620 852 q 194 475 194 852 q 407 111 194 111 m 144 1072 l 144 1199 l 669 1199 l 669 1072 l 144 1072 z "},"Ǫ":{"ha":814,"x_min":52,"x_max":762,"o":"m 446 -288 q 326 -253 368 -288 q 283 -157 283 -219 q 361 -27 283 -53 l 361 -12 q 52 475 52 19 q 407 977 52 977 q 762 475 762 977 q 530 4 762 79 q 463 -20 496 -7 q 408 -55 430 -33 q 385 -114 385 -76 q 401 -153 385 -132 q 464 -174 416 -174 q 519 -166 489 -174 l 507 -281 q 446 -288 473 -288 m 407 111 q 620 475 620 111 q 407 852 620 852 q 194 475 194 852 q 407 111 194 111 z "},"Ø":{"ha":814,"x_min":45,"x_max":762,"o":"m 136 -91 l 45 -40 l 135 117 q 52 475 52 239 q 407 977 52 977 q 598 925 521 977 l 664 1039 l 755 988 l 675 848 q 762 475 762 723 q 407 -14 762 -14 q 211 39 290 -14 l 136 -91 m 194 475 q 220 265 194 348 l 530 806 q 407 852 481 852 q 194 475 194 852 m 407 111 q 620 475 620 111 q 591 701 620 614 l 280 159 q 407 111 330 111 z "},"Ǿ":{"ha":814,"x_min":45,"x_max":762,"o":"m 136 -91 l 45 -40 l 135 117 q 52 475 52 239 q 407 977 52 977 q 598 925 521 977 l 664 1039 l 755 988 l 675 848 q 762 475 762 723 q 407 -14 762 -14 q 211 39 290 -14 l 136 -91 m 194 475 q 220 265 194 348 l 530 806 q 407 852 481 852 q 194 475 194 852 m 407 111 q 620 475 620 111 q 591 701 620 614 l 280 159 q 407 111 330 111 m 318 1072 l 467 1241 l 659 1241 l 482 1072 l 318 1072 z "},"Õ":{"ha":814,"x_min":52,"x_max":762,"o":"m 407 -14 q 52 475 52 -14 q 407 977 52 977 q 762 475 762 977 q 407 -14 762 -14 m 407 111 q 620 475 620 111 q 407 852 620 852 q 194 475 194 852 q 407 111 194 111 m 153 1062 l 153 1096 q 295 1265 153 1265 q 353 1257 323 1265 q 422 1232 383 1249 q 484 1207 463 1216 q 522 1198 505 1198 q 558 1241 558 1198 l 558 1282 l 675 1282 l 675 1248 q 547 1085 675 1085 q 492 1095 524 1085 q 416 1122 460 1104 q 363 1144 387 1135 q 321 1153 338 1153 q 271 1103 271 1153 l 271 1062 l 153 1062 z "},"Œ":{"ha":814,"x_min":52,"x_max":746,"o":"m 353 -14 q 131 114 210 -14 q 52 475 52 242 q 131 845 52 714 q 353 977 210 977 q 416 970 389 977 q 475 963 444 963 l 746 963 l 746 841 l 529 841 l 529 543 l 705 543 l 705 421 l 529 421 l 529 122 l 746 122 l 746 0 l 475 0 q 421 -7 451 0 q 353 -14 391 -14 m 359 111 q 407 115 387 111 l 407 837 q 353 852 383 852 q 235 753 277 852 q 194 475 194 654 q 237 206 194 301 q 359 111 281 111 z "},"P":{"ha":814,"x_min":109,"x_max":760,"o":"m 109 0 l 109 963 l 392 963 q 664 878 568 963 q 760 637 760 793 q 664 387 760 476 q 392 298 568 298 l 244 298 l 244 0 l 109 0 m 392 834 l 244 834 l 244 427 l 392 427 q 558 479 499 427 q 617 624 617 530 q 558 779 617 724 q 392 834 499 834 z "},"Þ":{"ha":814,"x_min":109,"x_max":760,"o":"m 109 0 l 109 963 l 244 963 l 244 814 l 392 814 q 663 729 567 814 q 760 488 760 644 q 663 238 760 327 q 392 149 567 149 l 244 149 l 244 0 l 109 0 m 392 685 l 244 685 l 244 278 l 392 278 q 558 330 499 278 q 617 475 617 381 q 558 630 617 576 q 392 685 499 685 z "},"Q":{"ha":814,"x_min":52,"x_max":762,"o":"m 631 -312 q 336 -14 336 -312 l 336 -8 q 52 475 52 37 q 407 977 52 977 q 762 475 762 977 q 471 -9 762 33 l 471 -15 q 631 -190 471 -190 l 700 -190 l 686 -312 l 631 -312 m 407 111 q 620 475 620 111 q 407 852 620 852 q 194 475 194 852 q 407 111 194 111 z "},"R":{"ha":814,"x_min":95,"x_max":774,"o":"m 95 0 l 95 963 l 426 963 q 657 887 576 963 q 739 671 739 811 q 697 497 739 568 q 576 393 655 426 l 774 0 l 612 0 l 437 366 q 426 366 432 366 l 231 366 l 231 0 l 95 0 m 426 834 l 231 834 l 231 495 l 426 495 q 552 538 507 495 q 597 658 597 581 q 552 788 597 743 q 426 834 507 834 z "},"Ŕ":{"ha":814,"x_min":95,"x_max":774,"o":"m 95 0 l 95 963 l 426 963 q 657 887 576 963 q 739 671 739 811 q 697 497 739 568 q 576 393 655 426 l 774 0 l 612 0 l 437 366 q 426 366 432 366 l 231 366 l 231 0 l 95 0 m 426 834 l 231 834 l 231 495 l 426 495 q 552 538 507 495 q 597 658 597 581 q 552 788 597 743 q 426 834 507 834 m 291 1072 l 440 1241 l 631 1241 l 455 1072 l 291 1072 z "},"Ř":{"ha":814,"x_min":95,"x_max":774,"o":"m 95 0 l 95 963 l 426 963 q 657 887 576 963 q 739 671 739 811 q 697 497 739 568 q 576 393 655 426 l 774 0 l 612 0 l 437 366 q 426 366 432 366 l 231 366 l 231 0 l 95 0 m 426 834 l 231 834 l 231 495 l 426 495 q 552 538 507 495 q 597 658 597 581 q 552 788 597 743 q 426 834 507 834 m 321 1072 l 145 1248 l 296 1248 l 380 1150 l 464 1248 l 614 1248 l 438 1072 l 321 1072 z "},"Ŗ":{"ha":814,"x_min":95,"x_max":774,"o":"m 95 0 l 95 963 l 426 963 q 657 887 576 963 q 739 671 739 811 q 697 497 739 568 q 576 393 655 426 l 774 0 l 612 0 l 437 366 q 426 366 432 366 l 231 366 l 231 0 l 95 0 m 426 834 l 231 834 l 231 495 l 426 495 q 552 538 507 495 q 597 658 597 581 q 552 788 597 743 q 426 834 507 834 m 288 -326 l 340 -95 l 491 -95 l 412 -326 l 288 -326 z "},"S":{"ha":814,"x_min":87,"x_max":720,"o":"m 374 -14 q 87 39 210 -14 l 105 176 q 249 128 180 144 q 385 111 319 111 q 572 245 572 111 q 484 372 572 332 l 317 448 q 166 555 218 492 q 113 712 113 618 q 195 907 113 838 q 425 977 276 977 q 585 948 515 977 q 720 855 655 920 l 625 759 q 523 830 570 808 q 425 852 476 852 q 302 818 346 852 q 258 719 258 785 q 283 643 258 672 q 357 590 309 613 l 498 524 q 661 410 606 473 q 717 248 717 347 q 374 -14 717 -14 z "},"Ś":{"ha":814,"x_min":87,"x_max":720,"o":"m 374 -14 q 87 39 210 -14 l 105 176 q 249 128 180 144 q 385 111 319 111 q 572 245 572 111 q 484 372 572 332 l 317 448 q 166 555 218 492 q 113 712 113 618 q 195 907 113 838 q 425 977 276 977 q 585 948 515 977 q 720 855 655 920 l 625 759 q 523 830 570 808 q 425 852 476 852 q 302 818 346 852 q 258 719 258 785 q 283 643 258 672 q 357 590 309 613 l 498 524 q 661 410 606 473 q 717 248 717 347 q 374 -14 717 -14 m 318 1072 l 467 1241 l 659 1241 l 482 1072 l 318 1072 z "},"Š":{"ha":814,"x_min":87,"x_max":720,"o":"m 374 -14 q 87 39 210 -14 l 105 176 q 249 128 180 144 q 385 111 319 111 q 572 245 572 111 q 484 372 572 332 l 317 448 q 166 555 218 492 q 113 712 113 618 q 195 907 113 838 q 425 977 276 977 q 585 948 515 977 q 720 855 655 920 l 625 759 q 523 830 570 808 q 425 852 476 852 q 302 818 346 852 q 258 719 258 785 q 283 643 258 672 q 357 590 309 613 l 498 524 q 661 410 606 473 q 717 248 717 347 q 374 -14 717 -14 m 349 1072 l 172 1248 l 323 1248 l 407 1150 l 491 1248 l 642 1248 l 465 1072 l 349 1072 z "},"Ş":{"ha":814,"x_min":87,"x_max":720,"o":"m 374 -14 q 87 39 210 -14 l 105 176 q 249 128 180 144 q 385 111 319 111 q 572 245 572 111 q 484 372 572 332 l 317 448 q 166 555 218 492 q 113 712 113 618 q 195 907 113 838 q 425 977 276 977 q 585 948 515 977 q 720 855 655 920 l 625 759 q 523 830 570 808 q 425 852 476 852 q 302 818 346 852 q 258 719 258 785 q 283 643 258 672 q 357 590 309 613 l 498 524 q 661 410 606 473 q 717 248 717 347 q 374 -14 717 -14 m 304 -326 l 304 -224 q 432 -175 432 -224 q 322 -129 432 -129 l 379 33 l 465 8 l 444 -68 q 561 -181 561 -92 q 304 -326 561 -326 z "},"Ŝ":{"ha":814,"x_min":87,"x_max":720,"o":"m 374 -14 q 87 39 210 -14 l 105 176 q 249 128 180 144 q 385 111 319 111 q 572 245 572 111 q 484 372 572 332 l 317 448 q 166 555 218 492 q 113 712 113 618 q 195 907 113 838 q 425 977 276 977 q 585 948 515 977 q 720 855 655 920 l 625 759 q 523 830 570 808 q 425 852 476 852 q 302 818 346 852 q 258 719 258 785 q 283 643 258 672 q 357 590 309 613 l 498 524 q 661 410 606 473 q 717 248 717 347 q 374 -14 717 -14 m 176 1072 l 352 1248 l 469 1248 l 645 1072 l 494 1072 l 410 1169 l 326 1072 l 176 1072 z "},"Ș":{"ha":814,"x_min":87,"x_max":720,"o":"m 374 -14 q 87 39 210 -14 l 105 176 q 249 128 180 144 q 385 111 319 111 q 572 245 572 111 q 484 372 572 332 l 317 448 q 166 555 218 492 q 113 712 113 618 q 195 907 113 838 q 425 977 276 977 q 585 948 515 977 q 720 855 655 920 l 625 759 q 523 830 570 808 q 425 852 476 852 q 302 818 346 852 q 258 719 258 785 q 283 643 258 672 q 357 590 309 613 l 498 524 q 661 410 606 473 q 717 248 717 347 q 374 -14 717 -14 m 288 -326 l 340 -95 l 491 -95 l 412 -326 l 288 -326 z "},"ẞ":{"ha":814,"x_min":95,"x_max":785,"o":"m 95 0 l 95 631 q 178 895 95 813 q 445 977 261 977 q 749 861 617 977 l 749 861 l 559 588 q 726 487 667 562 q 785 302 785 413 q 696 69 785 152 q 448 -14 608 -14 q 311 2 367 -14 l 329 129 q 394 120 359 123 q 459 117 428 117 q 592 163 545 117 q 640 293 640 209 q 600 406 640 358 q 489 477 561 454 l 370 511 l 566 814 q 445 848 505 848 q 281 797 332 848 q 231 631 231 745 l 231 0 l 95 0 z "},"Ə":{"ha":814,"x_min":52,"x_max":762,"o":"m 407 -14 q 52 461 52 -14 q 52 502 52 482 q 54 541 53 522 l 617 541 q 339 852 594 852 q 133 825 229 852 l 114 945 q 339 977 220 977 q 762 475 762 977 q 407 -14 762 -14 m 407 111 q 618 412 601 111 l 195 412 q 407 111 210 111 z "},"T":{"ha":814,"x_min":54,"x_max":760,"o":"m 339 0 l 339 834 l 54 834 l 54 963 l 760 963 l 760 834 l 475 834 l 475 0 l 339 0 z "},"Ŧ":{"ha":814,"x_min":54,"x_max":760,"o":"m 339 0 l 339 401 l 130 401 l 130 524 l 339 524 l 339 834 l 54 834 l 54 963 l 760 963 l 760 834 l 475 834 l 475 524 l 684 524 l 684 401 l 475 401 l 475 0 l 339 0 z "},"Ť":{"ha":814,"x_min":54,"x_max":760,"o":"m 339 0 l 339 834 l 54 834 l 54 963 l 760 963 l 760 834 l 475 834 l 475 0 l 339 0 m 349 1072 l 172 1248 l 323 1248 l 407 1150 l 491 1248 l 642 1248 l 465 1072 l 349 1072 z "},"Ţ":{"ha":814,"x_min":54,"x_max":760,"o":"m 339 0 l 339 834 l 54 834 l 54 963 l 760 963 l 760 834 l 475 834 l 475 0 l 339 0 m 294 -326 l 294 -224 q 422 -175 422 -224 q 312 -129 422 -129 l 369 33 l 454 8 l 434 -68 q 551 -181 551 -92 q 294 -326 551 -326 z "},"Ț":{"ha":814,"x_min":54,"x_max":760,"o":"m 339 0 l 339 834 l 54 834 l 54 963 l 760 963 l 760 834 l 475 834 l 475 0 l 339 0 m 278 -326 l 330 -95 l 481 -95 l 401 -326 l 278 -326 z "},"U":{"ha":814,"x_min":95,"x_max":719,"o":"m 404 -14 q 95 309 95 -14 l 95 963 l 231 963 l 231 309 q 273 164 231 213 q 407 115 315 115 q 583 309 583 115 l 583 963 l 719 963 l 719 309 q 639 67 719 148 q 404 -14 559 -14 z "},"Ú":{"ha":814,"x_min":95,"x_max":719,"o":"m 404 -14 q 95 309 95 -14 l 95 963 l 231 963 l 231 309 q 273 164 231 213 q 407 115 315 115 q 583 309 583 115 l 583 963 l 719 963 l 719 309 q 639 67 719 148 q 404 -14 559 -14 m 318 1072 l 467 1241 l 659 1241 l 482 1072 l 318 1072 z "},"Ŭ":{"ha":814,"x_min":95,"x_max":719,"o":"m 404 -14 q 95 309 95 -14 l 95 963 l 231 963 l 231 309 q 273 164 231 213 q 407 115 315 115 q 583 309 583 115 l 583 963 l 719 963 l 719 309 q 639 67 719 148 q 404 -14 559 -14 m 407 1065 q 255 1116 309 1065 q 201 1261 201 1168 l 319 1261 q 342 1184 319 1212 q 407 1157 366 1157 q 472 1184 449 1157 q 494 1261 494 1212 l 613 1261 q 559 1116 613 1168 q 407 1065 505 1065 z "},"Û":{"ha":814,"x_min":95,"x_max":719,"o":"m 404 -14 q 95 309 95 -14 l 95 963 l 231 963 l 231 309 q 273 164 231 213 q 407 115 315 115 q 583 309 583 115 l 583 963 l 719 963 l 719 309 q 639 67 719 148 q 404 -14 559 -14 m 176 1072 l 352 1248 l 469 1248 l 645 1072 l 494 1072 l 410 1169 l 326 1072 l 176 1072 z "},"Ü":{"ha":814,"x_min":95,"x_max":719,"o":"m 404 -14 q 95 309 95 -14 l 95 963 l 231 963 l 231 309 q 273 164 231 213 q 407 115 315 115 q 583 309 583 115 l 583 963 l 719 963 l 719 309 q 639 67 719 148 q 404 -14 559 -14 m 548 1072 q 484 1098 511 1072 q 457 1162 457 1125 q 484 1227 457 1200 q 548 1253 511 1253 q 612 1227 586 1253 q 639 1162 639 1200 q 612 1098 639 1125 q 548 1072 586 1072 m 263 1072 q 199 1098 226 1072 q 172 1162 172 1125 q 199 1227 172 1200 q 263 1253 226 1253 q 328 1227 301 1253 q 354 1162 354 1200 q 328 1098 354 1125 q 263 1072 301 1072 z "},"Ụ":{"ha":814,"x_min":95,"x_max":719,"o":"m 404 -14 q 95 309 95 -14 l 95 963 l 231 963 l 231 309 q 273 164 231 213 q 407 115 315 115 q 583 309 583 115 l 583 963 l 719 963 l 719 309 q 639 67 719 148 q 404 -14 559 -14 m 407 -285 q 343 -258 370 -285 q 316 -194 316 -231 q 343 -130 316 -156 q 407 -103 370 -103 q 471 -130 445 -103 q 498 -194 498 -156 q 471 -258 498 -231 q 407 -285 445 -285 z "},"Ù":{"ha":814,"x_min":95,"x_max":719,"o":"m 404 -14 q 95 309 95 -14 l 95 963 l 231 963 l 231 309 q 273 164 231 213 q 407 115 315 115 q 583 309 583 115 l 583 963 l 719 963 l 719 309 q 639 67 719 148 q 404 -14 559 -14 m 338 1072 l 162 1241 l 353 1241 l 503 1072 l 338 1072 z "},"Ủ":{"ha":814,"x_min":95,"x_max":719,"o":"m 404 -14 q 95 309 95 -14 l 95 963 l 231 963 l 231 309 q 273 164 231 213 q 407 115 315 115 q 583 309 583 115 l 583 963 l 719 963 l 719 309 q 639 67 719 148 q 404 -14 559 -14 m 361 1037 l 361 1051 q 406 1104 361 1074 q 443 1132 432 1121 q 454 1154 454 1143 q 398 1189 454 1189 q 287 1160 333 1189 l 241 1240 q 412 1291 296 1291 q 566 1181 566 1291 q 548 1113 566 1140 q 486 1061 530 1086 q 466 1037 466 1049 l 361 1037 z "},"Ư":{"ha":814,"x_min":95,"x_max":880,"o":"m 404 -14 q 95 309 95 -14 l 95 963 l 231 963 l 231 309 q 273 164 231 213 q 407 115 315 115 q 583 309 583 115 l 583 963 l 625 970 q 750 1121 750 990 l 880 1121 q 719 873 880 927 l 719 309 q 639 67 719 148 q 404 -14 559 -14 z "},"Ứ":{"ha":814,"x_min":95,"x_max":880,"o":"m 404 -14 q 95 309 95 -14 l 95 963 l 231 963 l 231 309 q 273 164 231 213 q 407 115 315 115 q 583 309 583 115 l 583 963 l 625 970 q 750 1121 750 990 l 880 1121 q 719 873 880 927 l 719 309 q 639 67 719 148 q 404 -14 559 -14 m 318 1072 l 467 1241 l 659 1241 l 482 1072 l 318 1072 z "},"Ự":{"ha":814,"x_min":95,"x_max":880,"o":"m 404 -14 q 95 309 95 -14 l 95 963 l 231 963 l 231 309 q 273 164 231 213 q 407 115 315 115 q 583 309 583 115 l 583 963 l 625 970 q 750 1121 750 990 l 880 1121 q 719 873 880 927 l 719 309 q 639 67 719 148 q 404 -14 559 -14 m 407 -285 q 343 -258 370 -285 q 316 -194 316 -231 q 343 -130 316 -156 q 407 -103 370 -103 q 471 -130 445 -103 q 498 -194 498 -156 q 471 -258 498 -231 q 407 -285 445 -285 z "},"Ừ":{"ha":814,"x_min":95,"x_max":880,"o":"m 404 -14 q 95 309 95 -14 l 95 963 l 231 963 l 231 309 q 273 164 231 213 q 407 115 315 115 q 583 309 583 115 l 583 963 l 625 970 q 750 1121 750 990 l 880 1121 q 719 873 880 927 l 719 309 q 639 67 719 148 q 404 -14 559 -14 m 338 1072 l 162 1241 l 353 1241 l 503 1072 l 338 1072 z "},"Ử":{"ha":814,"x_min":95,"x_max":880,"o":"m 404 -14 q 95 309 95 -14 l 95 963 l 231 963 l 231 309 q 273 164 231 213 q 407 115 315 115 q 583 309 583 115 l 583 963 l 625 970 q 750 1121 750 990 l 880 1121 q 719 873 880 927 l 719 309 q 639 67 719 148 q 404 -14 559 -14 m 361 1037 l 361 1051 q 406 1104 361 1074 q 443 1132 432 1121 q 454 1154 454 1143 q 398 1189 454 1189 q 287 1160 333 1189 l 241 1240 q 412 1291 296 1291 q 566 1181 566 1291 q 548 1113 566 1140 q 486 1061 530 1086 q 466 1037 466 1049 l 361 1037 z "},"Ữ":{"ha":814,"x_min":95,"x_max":880,"o":"m 404 -14 q 95 309 95 -14 l 95 963 l 231 963 l 231 309 q 273 164 231 213 q 407 115 315 115 q 583 309 583 115 l 583 963 l 625 970 q 750 1121 750 990 l 880 1121 q 719 873 880 927 l 719 309 q 639 67 719 148 q 404 -14 559 -14 m 153 1062 l 153 1096 q 295 1265 153 1265 q 353 1257 323 1265 q 422 1232 383 1249 q 484 1207 463 1216 q 522 1198 505 1198 q 558 1241 558 1198 l 558 1282 l 675 1282 l 675 1248 q 547 1085 675 1085 q 492 1095 524 1085 q 416 1122 460 1104 q 363 1144 387 1135 q 321 1153 338 1153 q 271 1103 271 1153 l 271 1062 l 153 1062 z "},"Ű":{"ha":814,"x_min":95,"x_max":747,"o":"m 404 -14 q 95 309 95 -14 l 95 963 l 231 963 l 231 309 q 273 164 231 213 q 407 115 315 115 q 583 309 583 115 l 583 963 l 719 963 l 719 309 q 639 67 719 148 q 404 -14 559 -14 m 447 1072 l 555 1241 l 747 1241 l 611 1072 l 447 1072 m 169 1072 l 277 1241 l 469 1241 l 333 1072 l 169 1072 z "},"Ū":{"ha":814,"x_min":95,"x_max":719,"o":"m 404 -14 q 95 309 95 -14 l 95 963 l 231 963 l 231 309 q 273 164 231 213 q 407 115 315 115 q 583 309 583 115 l 583 963 l 719 963 l 719 309 q 639 67 719 148 q 404 -14 559 -14 m 144 1072 l 144 1199 l 669 1199 l 669 1072 l 144 1072 z "},"Ų":{"ha":814,"x_min":95,"x_max":719,"o":"m 453 -288 q 333 -253 375 -288 q 290 -157 290 -219 q 368 -27 290 -53 l 368 -12 q 95 309 95 6 l 95 963 l 231 963 l 231 309 q 273 164 231 213 q 407 115 315 115 q 583 309 583 115 l 583 963 l 719 963 l 719 309 q 522 1 719 56 q 460 -23 490 -9 q 411 -58 431 -36 q 392 -114 392 -79 q 408 -153 392 -132 q 471 -174 423 -174 q 526 -166 496 -174 l 514 -281 q 453 -288 479 -288 z "},"Ů":{"ha":814,"x_min":95,"x_max":719,"o":"m 404 -14 q 95 309 95 -14 l 95 963 l 231 963 l 231 309 q 273 164 231 213 q 407 115 315 115 q 583 309 583 115 l 583 963 l 719 963 l 719 309 q 639 67 719 148 q 404 -14 559 -14 m 407 1009 q 288 1046 330 1009 q 245 1149 245 1082 q 288 1252 245 1215 q 407 1289 330 1289 q 526 1252 484 1289 q 568 1149 568 1215 q 526 1046 568 1082 q 407 1009 484 1009 m 407 1088 q 472 1149 472 1088 q 407 1211 472 1211 q 342 1149 342 1211 q 407 1088 342 1088 z "},"Ũ":{"ha":814,"x_min":95,"x_max":719,"o":"m 404 -14 q 95 309 95 -14 l 95 963 l 231 963 l 231 309 q 273 164 231 213 q 407 115 315 115 q 583 309 583 115 l 583 963 l 719 963 l 719 309 q 639 67 719 148 q 404 -14 559 -14 m 153 1062 l 153 1096 q 295 1265 153 1265 q 353 1257 323 1265 q 422 1232 383 1249 q 484 1207 463 1216 q 522 1198 505 1198 q 558 1241 558 1198 l 558 1282 l 675 1282 l 675 1248 q 547 1085 675 1085 q 492 1095 524 1085 q 416 1122 460 1104 q 363 1144 387 1135 q 321 1153 338 1153 q 271 1103 271 1153 l 271 1062 l 153 1062 z "},"V":{"ha":814,"x_min":30,"x_max":783,"o":"m 301 0 l 30 963 l 175 963 l 400 115 l 412 115 l 637 963 l 783 963 l 511 0 l 301 0 z "},"W":{"ha":814,"x_min":14,"x_max":800,"o":"m 122 0 l 14 963 l 156 963 l 237 109 l 251 109 l 340 719 l 475 719 l 563 109 l 576 109 l 658 963 l 800 963 l 692 0 l 482 0 l 411 585 l 403 585 l 332 0 l 122 0 z "},"Ẃ":{"ha":814,"x_min":14,"x_max":800,"o":"m 122 0 l 14 963 l 156 963 l 237 109 l 251 109 l 340 719 l 475 719 l 563 109 l 576 109 l 658 963 l 800 963 l 692 0 l 482 0 l 411 585 l 403 585 l 332 0 l 122 0 m 318 1072 l 467 1241 l 659 1241 l 482 1072 l 318 1072 z "},"Ŵ":{"ha":814,"x_min":14,"x_max":800,"o":"m 122 0 l 14 963 l 156 963 l 237 109 l 251 109 l 340 719 l 475 719 l 563 109 l 576 109 l 658 963 l 800 963 l 692 0 l 482 0 l 411 585 l 403 585 l 332 0 l 122 0 m 176 1072 l 352 1248 l 469 1248 l 645 1072 l 494 1072 l 410 1169 l 326 1072 l 176 1072 z "},"Ẅ":{"ha":814,"x_min":14,"x_max":800,"o":"m 122 0 l 14 963 l 156 963 l 237 109 l 251 109 l 340 719 l 475 719 l 563 109 l 576 109 l 658 963 l 800 963 l 692 0 l 482 0 l 411 585 l 403 585 l 332 0 l 122 0 m 548 1072 q 484 1098 511 1072 q 457 1162 457 1125 q 484 1227 457 1200 q 548 1253 511 1253 q 612 1227 586 1253 q 639 1162 639 1200 q 612 1098 639 1125 q 548 1072 586 1072 m 263 1072 q 199 1098 226 1072 q 172 1162 172 1125 q 199 1227 172 1200 q 263 1253 226 1253 q 328 1227 301 1253 q 354 1162 354 1200 q 328 1098 354 1125 q 263 1072 301 1072 z "},"Ẁ":{"ha":814,"x_min":14,"x_max":800,"o":"m 122 0 l 14 963 l 156 963 l 237 109 l 251 109 l 340 719 l 475 719 l 563 109 l 576 109 l 658 963 l 800 963 l 692 0 l 482 0 l 411 585 l 403 585 l 332 0 l 122 0 m 338 1072 l 162 1241 l 353 1241 l 503 1072 l 338 1072 z "},"X":{"ha":814,"x_min":45,"x_max":770,"o":"m 45 0 l 340 477 l 45 963 l 201 963 l 408 594 l 614 963 l 770 963 l 475 477 l 770 0 l 614 0 l 408 361 l 201 0 l 45 0 z "},"Y":{"ha":814,"x_min":17,"x_max":797,"o":"m 339 0 l 339 341 l 17 963 l 166 963 l 401 481 l 413 481 l 648 963 l 797 963 l 475 341 l 475 0 l 339 0 z "},"Ý":{"ha":814,"x_min":17,"x_max":797,"o":"m 339 0 l 339 341 l 17 963 l 166 963 l 401 481 l 413 481 l 648 963 l 797 963 l 475 341 l 475 0 l 339 0 m 318 1072 l 467 1241 l 659 1241 l 482 1072 l 318 1072 z "},"Ŷ":{"ha":814,"x_min":17,"x_max":797,"o":"m 339 0 l 339 341 l 17 963 l 166 963 l 401 481 l 413 481 l 648 963 l 797 963 l 475 341 l 475 0 l 339 0 m 176 1072 l 352 1248 l 469 1248 l 645 1072 l 494 1072 l 410 1169 l 326 1072 l 176 1072 z "},"Ÿ":{"ha":814,"x_min":17,"x_max":797,"o":"m 339 0 l 339 341 l 17 963 l 166 963 l 401 481 l 413 481 l 648 963 l 797 963 l 475 341 l 475 0 l 339 0 m 548 1072 q 484 1098 511 1072 q 457 1162 457 1125 q 484 1227 457 1200 q 548 1253 511 1253 q 612 1227 586 1253 q 639 1162 639 1200 q 612 1098 639 1125 q 548 1072 586 1072 m 263 1072 q 199 1098 226 1072 q 172 1162 172 1125 q 199 1227 172 1200 q 263 1253 226 1253 q 328 1227 301 1253 q 354 1162 354 1200 q 328 1098 354 1125 q 263 1072 301 1072 z "},"Ỵ":{"ha":814,"x_min":17,"x_max":797,"o":"m 339 0 l 339 341 l 17 963 l 166 963 l 401 481 l 413 481 l 648 963 l 797 963 l 475 341 l 475 0 l 339 0 m 407 -285 q 343 -258 370 -285 q 316 -194 316 -231 q 343 -130 316 -156 q 407 -103 370 -103 q 471 -130 445 -103 q 498 -194 498 -156 q 471 -258 498 -231 q 407 -285 445 -285 z "},"Ỳ":{"ha":814,"x_min":17,"x_max":797,"o":"m 339 0 l 339 341 l 17 963 l 166 963 l 401 481 l 413 481 l 648 963 l 797 963 l 475 341 l 475 0 l 339 0 m 338 1072 l 162 1241 l 353 1241 l 503 1072 l 338 1072 z "},"Ỷ":{"ha":814,"x_min":17,"x_max":797,"o":"m 339 0 l 339 341 l 17 963 l 166 963 l 401 481 l 413 481 l 648 963 l 797 963 l 475 341 l 475 0 l 339 0 m 361 1037 l 361 1051 q 406 1104 361 1074 q 443 1132 432 1121 q 454 1154 454 1143 q 398 1189 454 1189 q 287 1160 333 1189 l 241 1240 q 412 1291 296 1291 q 566 1181 566 1291 q 548 1113 566 1140 q 486 1061 530 1086 q 466 1037 466 1049 l 361 1037 z "},"Ȳ":{"ha":814,"x_min":17,"x_max":797,"o":"m 339 0 l 339 341 l 17 963 l 166 963 l 401 481 l 413 481 l 648 963 l 797 963 l 475 341 l 475 0 l 339 0 m 144 1072 l 144 1199 l 669 1199 l 669 1072 l 144 1072 z "},"Ỹ":{"ha":814,"x_min":17,"x_max":797,"o":"m 339 0 l 339 341 l 17 963 l 166 963 l 401 481 l 413 481 l 648 963 l 797 963 l 475 341 l 475 0 l 339 0 m 153 1062 l 153 1096 q 295 1265 153 1265 q 353 1257 323 1265 q 422 1232 383 1249 q 484 1207 463 1216 q 522 1198 505 1198 q 558 1241 558 1198 l 558 1282 l 675 1282 l 675 1248 q 547 1085 675 1085 q 492 1095 524 1085 q 416 1122 460 1104 q 363 1144 387 1135 q 321 1153 338 1153 q 271 1103 271 1153 l 271 1062 l 153 1062 z "},"Z":{"ha":814,"x_min":102,"x_max":726,"o":"m 102 0 l 102 119 l 547 834 l 102 834 l 102 963 l 712 963 l 712 834 l 254 119 l 726 119 l 726 0 l 102 0 z "},"Ź":{"ha":814,"x_min":102,"x_max":726,"o":"m 102 0 l 102 119 l 547 834 l 102 834 l 102 963 l 712 963 l 712 834 l 254 119 l 726 119 l 726 0 l 102 0 m 318 1072 l 467 1241 l 659 1241 l 482 1072 l 318 1072 z "},"Ž":{"ha":814,"x_min":102,"x_max":726,"o":"m 102 0 l 102 119 l 547 834 l 102 834 l 102 963 l 712 963 l 712 834 l 254 119 l 726 119 l 726 0 l 102 0 m 349 1072 l 172 1248 l 323 1248 l 407 1150 l 491 1248 l 642 1248 l 465 1072 l 349 1072 z "},"Ż":{"ha":814,"x_min":102,"x_max":726,"o":"m 102 0 l 102 119 l 547 834 l 102 834 l 102 963 l 712 963 l 712 834 l 254 119 l 726 119 l 726 0 l 102 0 m 407 1072 q 343 1098 370 1072 q 316 1162 316 1125 q 343 1227 316 1200 q 407 1253 370 1253 q 471 1227 445 1253 q 498 1162 498 1200 q 471 1098 498 1125 q 407 1072 445 1072 z "},"a":{"ha":814,"x_min":65,"x_max":785,"o":"m 315 -14 q 131 40 196 -14 q 65 194 65 94 q 148 369 65 308 q 384 430 231 430 q 526 413 465 430 l 526 452 q 476 557 526 524 q 326 593 425 591 l 153 598 l 167 726 l 312 724 q 577 647 490 721 q 663 430 663 572 l 663 130 l 785 115 l 785 0 l 555 -7 l 548 152 l 534 152 q 468 28 526 69 q 315 -14 410 -14 m 338 102 q 443 125 401 102 q 505 184 484 148 q 526 258 526 220 l 526 301 q 451 313 488 311 q 374 315 413 315 q 201 208 201 315 q 338 102 201 102 z "},"á":{"ha":814,"x_min":65,"x_max":785,"o":"m 315 -14 q 131 40 196 -14 q 65 194 65 94 q 148 369 65 308 q 384 430 231 430 q 526 413 465 430 l 526 452 q 476 557 526 524 q 326 593 425 591 l 153 598 l 167 726 l 312 724 q 577 647 490 721 q 663 430 663 572 l 663 130 l 785 115 l 785 0 l 555 -7 l 548 152 l 534 152 q 468 28 526 69 q 315 -14 410 -14 m 338 102 q 443 125 401 102 q 505 184 484 148 q 526 258 526 220 l 526 301 q 451 313 488 311 q 374 315 413 315 q 201 208 201 315 q 338 102 201 102 m 325 846 l 440 1104 l 584 1104 l 455 846 l 325 846 z "},"ă":{"ha":814,"x_min":65,"x_max":785,"o":"m 315 -14 q 131 40 196 -14 q 65 194 65 94 q 148 369 65 308 q 384 430 231 430 q 526 413 465 430 l 526 452 q 476 557 526 524 q 326 593 425 591 l 153 598 l 167 726 l 312 724 q 577 647 490 721 q 663 430 663 572 l 663 130 l 785 115 l 785 0 l 555 -7 l 548 152 l 534 152 q 468 28 526 69 q 315 -14 410 -14 m 338 102 q 443 125 401 102 q 505 184 484 148 q 526 258 526 220 l 526 301 q 451 313 488 311 q 374 315 413 315 q 201 208 201 315 q 338 102 201 102 m 393 840 q 226 897 286 840 q 167 1058 167 954 l 167 1087 l 286 1087 l 286 1058 q 314 965 286 998 q 393 932 342 932 q 473 965 446 932 q 501 1058 501 998 l 501 1087 l 620 1087 l 620 1058 q 561 897 620 954 q 393 840 501 840 z "},"ắ":{"ha":814,"x_min":65,"x_max":785,"o":"m 315 -14 q 131 40 196 -14 q 65 194 65 94 q 148 369 65 308 q 384 430 231 430 q 526 413 465 430 l 526 452 q 476 557 526 524 q 326 593 425 591 l 153 598 l 167 726 l 312 724 q 577 647 490 721 q 663 430 663 572 l 663 130 l 785 115 l 785 0 l 555 -7 l 548 152 l 534 152 q 468 28 526 69 q 315 -14 410 -14 m 338 102 q 443 125 401 102 q 505 184 484 148 q 526 258 526 220 l 526 301 q 451 313 488 311 q 374 315 413 315 q 201 208 201 315 q 338 102 201 102 m 393 840 q 226 897 286 840 q 167 1058 167 954 l 167 1087 l 286 1087 l 286 1058 q 314 965 286 998 q 393 932 342 932 q 473 965 446 932 q 501 1058 501 998 l 501 1087 l 620 1087 l 620 1058 q 561 897 620 954 q 393 840 501 840 m 325 1113 l 440 1371 l 584 1371 l 455 1113 l 325 1113 z "},"ặ":{"ha":814,"x_min":65,"x_max":785,"o":"m 315 -14 q 131 40 196 -14 q 65 194 65 94 q 148 369 65 308 q 384 430 231 430 q 526 413 465 430 l 526 452 q 476 557 526 524 q 326 593 425 591 l 153 598 l 167 726 l 312 724 q 577 647 490 721 q 663 430 663 572 l 663 130 l 785 115 l 785 0 l 555 -7 l 548 152 l 534 152 q 468 28 526 69 q 315 -14 410 -14 m 338 102 q 443 125 401 102 q 505 184 484 148 q 526 258 526 220 l 526 301 q 451 313 488 311 q 374 315 413 315 q 201 208 201 315 q 338 102 201 102 m 407 -285 q 343 -258 370 -285 q 316 -194 316 -231 q 343 -130 316 -156 q 407 -103 370 -103 q 471 -130 445 -103 q 498 -194 498 -156 q 471 -258 498 -231 q 407 -285 445 -285 m 393 840 q 226 897 286 840 q 167 1058 167 954 l 167 1087 l 286 1087 l 286 1058 q 314 965 286 998 q 393 932 342 932 q 473 965 446 932 q 501 1058 501 998 l 501 1087 l 620 1087 l 620 1058 q 561 897 620 954 q 393 840 501 840 z "},"ằ":{"ha":814,"x_min":65,"x_max":785,"o":"m 315 -14 q 131 40 196 -14 q 65 194 65 94 q 148 369 65 308 q 384 430 231 430 q 526 413 465 430 l 526 452 q 476 557 526 524 q 326 593 425 591 l 153 598 l 167 726 l 312 724 q 577 647 490 721 q 663 430 663 572 l 663 130 l 785 115 l 785 0 l 555 -7 l 548 152 l 534 152 q 468 28 526 69 q 315 -14 410 -14 m 338 102 q 443 125 401 102 q 505 184 484 148 q 526 258 526 220 l 526 301 q 451 313 488 311 q 374 315 413 315 q 201 208 201 315 q 338 102 201 102 m 393 840 q 226 897 286 840 q 167 1058 167 954 l 167 1087 l 286 1087 l 286 1058 q 314 965 286 998 q 393 932 342 932 q 473 965 446 932 q 501 1058 501 998 l 501 1087 l 620 1087 l 620 1058 q 561 897 620 954 q 393 840 501 840 m 342 1113 l 213 1371 l 357 1371 l 472 1113 l 342 1113 z "},"ẳ":{"ha":814,"x_min":65,"x_max":785,"o":"m 315 -14 q 131 40 196 -14 q 65 194 65 94 q 148 369 65 308 q 384 430 231 430 q 526 413 465 430 l 526 452 q 476 557 526 524 q 326 593 425 591 l 153 598 l 167 726 l 312 724 q 577 647 490 721 q 663 430 663 572 l 663 130 l 785 115 l 785 0 l 555 -7 l 548 152 l 534 152 q 468 28 526 69 q 315 -14 410 -14 m 338 102 q 443 125 401 102 q 505 184 484 148 q 526 258 526 220 l 526 301 q 451 313 488 311 q 374 315 413 315 q 201 208 201 315 q 338 102 201 102 m 393 840 q 226 897 286 840 q 167 1058 167 954 l 167 1087 l 286 1087 l 286 1058 q 314 965 286 998 q 393 932 342 932 q 473 965 446 932 q 501 1058 501 998 l 501 1087 l 620 1087 l 620 1058 q 561 897 620 954 q 393 840 501 840 m 340 1113 l 340 1137 q 359 1195 340 1173 q 395 1234 377 1216 q 413 1274 413 1251 q 401 1301 413 1291 q 371 1312 390 1312 q 287 1282 321 1312 l 241 1363 q 302 1400 262 1386 q 385 1414 341 1414 q 487 1378 449 1414 q 526 1283 526 1342 q 513 1231 526 1251 q 486 1195 501 1211 q 458 1163 470 1180 q 446 1119 446 1145 l 446 1113 l 340 1113 z "},"ẵ":{"ha":814,"x_min":65,"x_max":785,"o":"m 315 -14 q 131 40 196 -14 q 65 194 65 94 q 148 369 65 308 q 384 430 231 430 q 526 413 465 430 l 526 452 q 476 557 526 524 q 326 593 425 591 l 153 598 l 167 726 l 312 724 q 577 647 490 721 q 663 430 663 572 l 663 130 l 785 115 l 785 0 l 555 -7 l 548 152 l 534 152 q 468 28 526 69 q 315 -14 410 -14 m 338 102 q 443 125 401 102 q 505 184 484 148 q 526 258 526 220 l 526 301 q 451 313 488 311 q 374 315 413 315 q 201 208 201 315 q 338 102 201 102 m 393 840 q 226 897 286 840 q 167 1058 167 954 l 167 1087 l 286 1087 l 286 1058 q 314 965 286 998 q 393 932 342 932 q 473 965 446 932 q 501 1058 501 998 l 501 1087 l 620 1087 l 620 1058 q 561 897 620 954 q 393 840 501 840 m 153 1098 l 153 1145 q 295 1315 153 1315 q 346 1306 322 1315 q 395 1285 370 1298 q 453 1258 429 1268 q 494 1247 477 1247 q 531 1291 531 1247 l 531 1352 l 648 1352 l 648 1297 q 520 1135 648 1135 q 473 1143 501 1135 q 410 1168 446 1151 q 365 1191 387 1180 q 321 1202 342 1202 q 271 1152 271 1202 l 271 1098 l 153 1098 z "},"â":{"ha":814,"x_min":65,"x_max":785,"o":"m 315 -14 q 131 40 196 -14 q 65 194 65 94 q 148 369 65 308 q 384 430 231 430 q 526 413 465 430 l 526 452 q 476 557 526 524 q 326 593 425 591 l 153 598 l 167 726 l 312 724 q 577 647 490 721 q 663 430 663 572 l 663 130 l 785 115 l 785 0 l 555 -7 l 548 152 l 534 152 q 468 28 526 69 q 315 -14 410 -14 m 338 102 q 443 125 401 102 q 505 184 484 148 q 526 258 526 220 l 526 301 q 451 313 488 311 q 374 315 413 315 q 201 208 201 315 q 338 102 201 102 m 172 846 l 335 1104 l 452 1104 l 614 846 l 471 846 l 393 1000 l 316 846 l 172 846 z "},"ấ":{"ha":814,"x_min":65,"x_max":826,"o":"m 315 -14 q 131 40 196 -14 q 65 194 65 94 q 148 369 65 308 q 384 430 231 430 q 526 413 465 430 l 526 452 q 476 557 526 524 q 326 593 425 591 l 153 598 l 167 726 l 312 724 q 577 647 490 721 q 663 430 663 572 l 663 130 l 785 115 l 785 0 l 555 -7 l 548 152 l 534 152 q 468 28 526 69 q 315 -14 410 -14 m 338 102 q 443 125 401 102 q 505 184 484 148 q 526 258 526 220 l 526 301 q 451 313 488 311 q 374 315 413 315 q 201 208 201 315 q 338 102 201 102 m 172 846 l 335 1104 l 452 1104 l 614 846 l 471 846 l 393 1000 l 316 846 l 172 846 m 567 1077 l 682 1335 l 826 1335 l 697 1077 l 567 1077 z "},"ậ":{"ha":814,"x_min":65,"x_max":785,"o":"m 315 -14 q 131 40 196 -14 q 65 194 65 94 q 148 369 65 308 q 384 430 231 430 q 526 413 465 430 l 526 452 q 476 557 526 524 q 326 593 425 591 l 153 598 l 167 726 l 312 724 q 577 647 490 721 q 663 430 663 572 l 663 130 l 785 115 l 785 0 l 555 -7 l 548 152 l 534 152 q 468 28 526 69 q 315 -14 410 -14 m 338 102 q 443 125 401 102 q 505 184 484 148 q 526 258 526 220 l 526 301 q 451 313 488 311 q 374 315 413 315 q 201 208 201 315 q 338 102 201 102 m 407 -285 q 343 -258 370 -285 q 316 -194 316 -231 q 343 -130 316 -156 q 407 -103 370 -103 q 471 -130 445 -103 q 498 -194 498 -156 q 471 -258 498 -231 q 407 -285 445 -285 m 172 846 l 335 1104 l 452 1104 l 614 846 l 471 846 l 393 1000 l 316 846 l 172 846 z "},"ầ":{"ha":814,"x_min":65,"x_max":785,"o":"m 315 -14 q 131 40 196 -14 q 65 194 65 94 q 148 369 65 308 q 384 430 231 430 q 526 413 465 430 l 526 452 q 476 557 526 524 q 326 593 425 591 l 153 598 l 167 726 l 312 724 q 577 647 490 721 q 663 430 663 572 l 663 130 l 785 115 l 785 0 l 555 -7 l 548 152 l 534 152 q 468 28 526 69 q 315 -14 410 -14 m 338 102 q 443 125 401 102 q 505 184 484 148 q 526 258 526 220 l 526 301 q 451 313 488 311 q 374 315 413 315 q 201 208 201 315 q 338 102 201 102 m 172 846 l 335 1104 l 452 1104 l 614 846 l 471 846 l 393 1000 l 316 846 l 172 846 m 583 1077 l 454 1335 l 598 1335 l 713 1077 l 583 1077 z "},"ẩ":{"ha":814,"x_min":65,"x_max":785,"o":"m 315 -14 q 131 40 196 -14 q 65 194 65 94 q 148 369 65 308 q 384 430 231 430 q 526 413 465 430 l 526 452 q 476 557 526 524 q 326 593 425 591 l 153 598 l 167 726 l 312 724 q 577 647 490 721 q 663 430 663 572 l 663 130 l 785 115 l 785 0 l 555 -7 l 548 152 l 534 152 q 468 28 526 69 q 315 -14 410 -14 m 338 102 q 443 125 401 102 q 505 184 484 148 q 526 258 526 220 l 526 301 q 451 313 488 311 q 374 315 413 315 q 201 208 201 315 q 338 102 201 102 m 172 846 l 335 1104 l 452 1104 l 614 846 l 471 846 l 393 1000 l 316 846 l 172 846 m 583 1077 l 583 1101 q 601 1159 583 1137 q 637 1198 619 1180 q 655 1238 655 1215 q 644 1265 655 1255 q 613 1276 632 1276 q 529 1246 564 1276 l 484 1327 q 544 1364 505 1350 q 627 1378 583 1378 q 729 1342 691 1378 q 768 1247 768 1306 q 755 1195 768 1215 q 728 1159 743 1175 q 700 1127 712 1144 q 688 1083 688 1109 l 688 1077 l 583 1077 z "},"ẫ":{"ha":814,"x_min":65,"x_max":785,"o":"m 315 -14 q 131 40 196 -14 q 65 194 65 94 q 148 369 65 308 q 384 430 231 430 q 526 413 465 430 l 526 452 q 476 557 526 524 q 326 593 425 591 l 153 598 l 167 726 l 312 724 q 577 647 490 721 q 663 430 663 572 l 663 130 l 785 115 l 785 0 l 555 -7 l 548 152 l 534 152 q 468 28 526 69 q 315 -14 410 -14 m 338 102 q 443 125 401 102 q 505 184 484 148 q 526 258 526 220 l 526 301 q 451 313 488 311 q 374 315 413 315 q 201 208 201 315 q 338 102 201 102 m 172 846 l 335 1104 l 452 1104 l 614 846 l 471 846 l 393 1000 l 316 846 l 172 846 m 153 1142 l 153 1190 q 295 1359 153 1359 q 346 1351 322 1359 q 395 1329 370 1342 q 453 1302 429 1312 q 494 1291 477 1291 q 531 1335 531 1291 l 531 1396 l 648 1396 l 648 1341 q 520 1179 648 1179 q 473 1187 501 1179 q 410 1213 446 1195 q 365 1235 387 1224 q 321 1246 342 1246 q 271 1196 271 1246 l 271 1142 l 153 1142 z "},"ä":{"ha":814,"x_min":65,"x_max":785,"o":"m 315 -14 q 131 40 196 -14 q 65 194 65 94 q 148 369 65 308 q 384 430 231 430 q 526 413 465 430 l 526 452 q 476 557 526 524 q 326 593 425 591 l 153 598 l 167 726 l 312 724 q 577 647 490 721 q 663 430 663 572 l 663 130 l 785 115 l 785 0 l 555 -7 l 548 152 l 534 152 q 468 28 526 69 q 315 -14 410 -14 m 338 102 q 443 125 401 102 q 505 184 484 148 q 526 258 526 220 l 526 301 q 451 313 488 311 q 374 315 413 315 q 201 208 201 315 q 338 102 201 102 m 537 840 q 473 866 500 840 q 446 930 446 893 q 473 995 446 968 q 537 1021 500 1021 q 602 995 575 1021 q 628 930 628 968 q 602 866 628 893 q 537 840 575 840 m 252 840 q 188 866 215 840 q 161 930 161 893 q 188 995 161 968 q 252 1021 215 1021 q 317 995 290 1021 q 343 930 343 968 q 317 866 343 893 q 252 840 290 840 z "},"ạ":{"ha":814,"x_min":65,"x_max":785,"o":"m 315 -14 q 131 40 196 -14 q 65 194 65 94 q 148 369 65 308 q 384 430 231 430 q 526 413 465 430 l 526 452 q 476 557 526 524 q 326 593 425 591 l 153 598 l 167 726 l 312 724 q 577 647 490 721 q 663 430 663 572 l 663 130 l 785 115 l 785 0 l 555 -7 l 548 152 l 534 152 q 468 28 526 69 q 315 -14 410 -14 m 338 102 q 443 125 401 102 q 505 184 484 148 q 526 258 526 220 l 526 301 q 451 313 488 311 q 374 315 413 315 q 201 208 201 315 q 338 102 201 102 m 407 -285 q 343 -258 370 -285 q 316 -194 316 -231 q 343 -130 316 -156 q 407 -103 370 -103 q 471 -130 445 -103 q 498 -194 498 -156 q 471 -258 498 -231 q 407 -285 445 -285 z "},"à":{"ha":814,"x_min":65,"x_max":785,"o":"m 315 -14 q 131 40 196 -14 q 65 194 65 94 q 148 369 65 308 q 384 430 231 430 q 526 413 465 430 l 526 452 q 476 557 526 524 q 326 593 425 591 l 153 598 l 167 726 l 312 724 q 577 647 490 721 q 663 430 663 572 l 663 130 l 785 115 l 785 0 l 555 -7 l 548 152 l 534 152 q 468 28 526 69 q 315 -14 410 -14 m 338 102 q 443 125 401 102 q 505 184 484 148 q 526 258 526 220 l 526 301 q 451 313 488 311 q 374 315 413 315 q 201 208 201 315 q 338 102 201 102 m 342 846 l 213 1104 l 357 1104 l 472 846 l 342 846 z "},"ả":{"ha":814,"x_min":65,"x_max":785,"o":"m 315 -14 q 131 40 196 -14 q 65 194 65 94 q 148 369 65 308 q 384 430 231 430 q 526 413 465 430 l 526 452 q 476 557 526 524 q 326 593 425 591 l 153 598 l 167 726 l 312 724 q 577 647 490 721 q 663 430 663 572 l 663 130 l 785 115 l 785 0 l 555 -7 l 548 152 l 534 152 q 468 28 526 69 q 315 -14 410 -14 m 338 102 q 443 125 401 102 q 505 184 484 148 q 526 258 526 220 l 526 301 q 451 313 488 311 q 374 315 413 315 q 201 208 201 315 q 338 102 201 102 m 340 846 l 340 871 q 359 928 340 907 q 395 967 377 949 q 413 1007 413 985 q 401 1035 413 1025 q 371 1045 390 1045 q 287 1016 321 1045 l 241 1097 q 302 1134 262 1120 q 385 1147 341 1147 q 487 1112 449 1147 q 526 1017 526 1076 q 513 964 526 984 q 486 929 501 944 q 458 896 470 913 q 446 852 446 879 l 446 846 l 340 846 z "},"ā":{"ha":814,"x_min":65,"x_max":785,"o":"m 315 -14 q 131 40 196 -14 q 65 194 65 94 q 148 369 65 308 q 384 430 231 430 q 526 413 465 430 l 526 452 q 476 557 526 524 q 326 593 425 591 l 153 598 l 167 726 l 312 724 q 577 647 490 721 q 663 430 663 572 l 663 130 l 785 115 l 785 0 l 555 -7 l 548 152 l 534 152 q 468 28 526 69 q 315 -14 410 -14 m 338 102 q 443 125 401 102 q 505 184 484 148 q 526 258 526 220 l 526 301 q 451 313 488 311 q 374 315 413 315 q 201 208 201 315 q 338 102 201 102 m 102 846 l 102 974 l 685 974 l 685 846 l 102 846 z "},"ą":{"ha":814,"x_min":65,"x_max":785,"o":"m 315 -14 q 131 40 196 -14 q 65 194 65 94 q 148 369 65 308 q 384 430 231 430 q 526 413 465 430 l 526 452 q 476 557 526 524 q 326 593 425 591 l 153 598 l 167 726 l 312 724 q 577 647 490 721 q 663 430 663 572 l 663 130 l 785 115 l 785 0 l 762 -1 q 665 -34 699 -5 q 631 -114 631 -64 q 709 -174 631 -174 q 765 -166 733 -174 l 753 -281 q 692 -288 722 -288 q 571 -250 614 -288 q 529 -144 529 -212 q 549 -66 529 -98 q 606 -24 569 -35 l 606 -5 l 555 -7 l 548 152 l 534 152 q 468 28 526 69 q 315 -14 410 -14 m 338 102 q 443 125 401 102 q 505 184 484 148 q 526 258 526 220 l 526 301 q 451 313 488 311 q 374 315 413 315 q 201 208 201 315 q 338 102 201 102 z "},"å":{"ha":814,"x_min":65,"x_max":785,"o":"m 315 -14 q 131 40 196 -14 q 65 194 65 94 q 148 369 65 308 q 384 430 231 430 q 526 413 465 430 l 526 452 q 476 557 526 524 q 326 593 425 591 l 153 598 l 167 726 l 312 724 q 577 647 490 721 q 663 430 663 572 l 663 130 l 785 115 l 785 0 l 555 -7 l 548 152 l 534 152 q 468 28 526 69 q 315 -14 410 -14 m 338 102 q 443 125 401 102 q 505 184 484 148 q 526 258 526 220 l 526 301 q 451 313 488 311 q 374 315 413 315 q 201 208 201 315 q 338 102 201 102 m 393 812 q 274 851 317 812 q 232 959 232 889 q 274 1067 232 1029 q 393 1105 317 1105 q 512 1067 470 1105 q 555 959 555 1029 q 512 851 555 889 q 393 812 470 812 m 393 891 q 458 959 458 891 q 393 1027 458 1027 q 328 959 328 1027 q 393 891 328 891 z "},"ǻ":{"ha":814,"x_min":65,"x_max":785,"o":"m 315 -14 q 131 40 196 -14 q 65 194 65 94 q 148 369 65 308 q 384 430 231 430 q 526 413 465 430 l 526 452 q 476 557 526 524 q 326 593 425 591 l 153 598 l 167 726 l 312 724 q 577 647 490 721 q 663 430 663 572 l 663 130 l 785 115 l 785 0 l 555 -7 l 548 152 l 534 152 q 468 28 526 69 q 315 -14 410 -14 m 338 102 q 443 125 401 102 q 505 184 484 148 q 526 258 526 220 l 526 301 q 451 313 488 311 q 374 315 413 315 q 201 208 201 315 q 338 102 201 102 m 393 812 q 274 851 317 812 q 232 959 232 889 q 274 1067 232 1029 q 393 1105 317 1105 q 512 1067 470 1105 q 555 959 555 1029 q 512 851 555 889 q 393 812 470 812 m 393 891 q 458 959 458 891 q 393 1027 458 1027 q 328 959 328 1027 q 393 891 328 891 m 325 1036 l 440 1294 l 584 1294 l 455 1036 l 325 1036 z "},"ã":{"ha":814,"x_min":65,"x_max":785,"o":"m 315 -14 q 131 40 196 -14 q 65 194 65 94 q 148 369 65 308 q 384 430 231 430 q 526 413 465 430 l 526 452 q 476 557 526 524 q 326 593 425 591 l 153 598 l 167 726 l 312 724 q 577 647 490 721 q 663 430 663 572 l 663 130 l 785 115 l 785 0 l 555 -7 l 548 152 l 534 152 q 468 28 526 69 q 315 -14 410 -14 m 338 102 q 443 125 401 102 q 505 184 484 148 q 526 258 526 220 l 526 301 q 451 313 488 311 q 374 315 413 315 q 201 208 201 315 q 338 102 201 102 m 153 831 l 153 879 q 295 1048 153 1048 q 346 1040 322 1048 q 395 1019 370 1031 q 453 991 429 1002 q 494 981 477 981 q 531 1024 531 981 l 531 1085 l 648 1085 l 648 1031 q 520 868 648 868 q 473 876 501 868 q 410 902 446 884 q 365 925 387 913 q 321 936 342 936 q 271 886 271 936 l 271 831 l 153 831 z "},"æ":{"ha":814,"x_min":14,"x_max":797,"o":"m 203 -14 q 63 41 113 -14 q 14 194 14 95 q 80 368 14 307 q 265 430 146 430 q 353 416 313 430 l 353 452 q 300 558 353 519 q 153 600 248 597 l 89 602 l 102 726 l 166 724 q 416 597 343 718 q 590 732 470 732 q 743 642 689 732 q 797 388 797 552 q 796 340 797 365 q 793 296 795 316 l 481 296 q 544 155 495 205 q 669 106 592 106 q 751 115 708 106 l 768 -1 q 711 -10 741 -7 q 653 -14 681 -14 q 509 27 569 -14 q 416 145 448 68 l 399 145 q 338 28 385 69 q 203 -14 292 -14 m 574 606 q 504 557 527 606 q 477 399 480 508 l 673 399 q 650 557 673 508 q 574 606 627 606 m 239 102 q 323 143 294 102 q 353 258 353 184 l 353 308 q 262 321 316 321 q 174 292 205 321 q 143 208 143 262 q 169 130 143 157 q 239 102 194 102 z "},"ǽ":{"ha":814,"x_min":14,"x_max":797,"o":"m 203 -14 q 63 41 113 -14 q 14 194 14 95 q 80 368 14 307 q 265 430 146 430 q 353 416 313 430 l 353 452 q 300 558 353 519 q 153 600 248 597 l 89 602 l 102 726 l 166 724 q 416 597 343 718 q 590 732 470 732 q 743 642 689 732 q 797 388 797 552 q 796 340 797 365 q 793 296 795 316 l 481 296 q 544 155 495 205 q 669 106 592 106 q 751 115 708 106 l 768 -1 q 711 -10 741 -7 q 653 -14 681 -14 q 509 27 569 -14 q 416 145 448 68 l 399 145 q 338 28 385 69 q 203 -14 292 -14 m 574 606 q 504 557 527 606 q 477 399 480 508 l 673 399 q 650 557 673 508 q 574 606 627 606 m 239 102 q 323 143 294 102 q 353 258 353 184 l 353 308 q 262 321 316 321 q 174 292 205 321 q 143 208 143 262 q 169 130 143 157 q 239 102 194 102 m 338 846 l 454 1104 l 597 1104 l 469 846 l 338 846 z "},"b":{"ha":814,"x_min":114,"x_max":749,"o":"m 114 0 l 114 1017 l 258 1017 l 258 589 l 271 589 q 448 732 281 732 q 670 637 591 732 q 749 366 749 541 q 646 86 749 185 q 354 -14 543 -14 q 234 -10 293 -14 q 114 0 175 -6 m 258 404 l 258 113 q 320 109 288 110 q 382 109 351 109 q 548 176 490 109 q 606 366 606 243 q 563 547 606 484 q 441 610 520 610 q 258 404 258 610 z "},"c":{"ha":814,"x_min":92,"x_max":744,"o":"m 463 -14 q 189 83 286 -14 q 92 361 92 180 q 187 635 92 537 q 457 732 281 732 q 637 693 562 732 q 744 583 712 654 l 633 500 q 555 576 603 549 q 452 604 508 604 q 297 542 352 604 q 241 368 241 481 q 303 180 241 245 q 479 115 365 115 q 586 120 533 115 q 690 133 640 125 l 707 7 q 585 -9 648 -5 q 463 -14 523 -14 z "},"ć":{"ha":814,"x_min":92,"x_max":744,"o":"m 463 -14 q 189 83 286 -14 q 92 361 92 180 q 187 635 92 537 q 457 732 281 732 q 637 693 562 732 q 744 583 712 654 l 633 500 q 555 576 603 549 q 452 604 508 604 q 297 542 352 604 q 241 368 241 481 q 303 180 241 245 q 479 115 365 115 q 586 120 533 115 q 690 133 640 125 l 707 7 q 585 -9 648 -5 q 463 -14 523 -14 m 372 846 l 488 1104 l 631 1104 l 503 846 l 372 846 z "},"č":{"ha":814,"x_min":92,"x_max":744,"o":"m 463 -14 q 189 83 286 -14 q 92 361 92 180 q 187 635 92 537 q 457 732 281 732 q 637 693 562 732 q 744 583 712 654 l 633 500 q 555 576 603 549 q 452 604 508 604 q 297 542 352 604 q 241 368 241 481 q 303 180 241 245 q 479 115 365 115 q 586 120 533 115 q 690 133 640 125 l 707 7 q 585 -9 648 -5 q 463 -14 523 -14 m 382 846 l 220 1104 l 363 1104 l 441 951 l 518 1104 l 662 1104 l 499 846 l 382 846 z "},"ç":{"ha":814,"x_min":92,"x_max":744,"o":"m 463 -14 q 189 83 286 -14 q 92 361 92 180 q 187 635 92 537 q 457 732 281 732 q 637 693 562 732 q 744 583 712 654 l 633 500 q 555 576 603 549 q 452 604 508 604 q 297 542 352 604 q 241 368 241 481 q 303 180 241 245 q 479 115 365 115 q 586 120 533 115 q 690 133 640 125 l 707 7 q 585 -9 648 -5 q 463 -14 523 -14 m 332 -326 l 332 -224 q 459 -175 459 -224 q 349 -129 459 -129 l 406 33 l 492 8 l 471 -68 q 588 -181 588 -92 q 332 -326 588 -326 z "},"ĉ":{"ha":814,"x_min":92,"x_max":744,"o":"m 463 -14 q 189 83 286 -14 q 92 361 92 180 q 187 635 92 537 q 457 732 281 732 q 637 693 562 732 q 744 583 712 654 l 633 500 q 555 576 603 549 q 452 604 508 604 q 297 542 352 604 q 241 368 241 481 q 303 180 241 245 q 479 115 365 115 q 586 120 533 115 q 690 133 640 125 l 707 7 q 585 -9 648 -5 q 463 -14 523 -14 m 220 846 l 382 1104 l 499 1104 l 662 846 l 518 846 l 441 1000 l 363 846 l 220 846 z "},"ċ":{"ha":814,"x_min":92,"x_max":744,"o":"m 463 -14 q 189 83 286 -14 q 92 361 92 180 q 187 635 92 537 q 457 732 281 732 q 637 693 562 732 q 744 583 712 654 l 633 500 q 555 576 603 549 q 452 604 508 604 q 297 542 352 604 q 241 368 241 481 q 303 180 241 245 q 479 115 365 115 q 586 120 533 115 q 690 133 640 125 l 707 7 q 585 -9 648 -5 q 463 -14 523 -14 m 439 840 q 375 866 402 840 q 349 930 349 893 q 375 995 349 968 q 439 1021 402 1021 q 504 995 477 1021 q 530 930 530 968 q 504 866 530 893 q 439 840 477 840 z "},"d":{"ha":814,"x_min":65,"x_max":700,"o":"m 351 -14 q 140 81 215 -14 q 65 353 65 176 q 140 633 65 534 q 353 732 216 732 q 543 589 524 732 l 556 589 l 556 1017 l 700 1017 l 700 0 l 571 -7 l 559 111 l 543 111 q 484 18 536 50 q 351 -14 433 -14 m 208 353 q 374 109 208 109 q 556 231 556 109 l 556 404 q 373 610 556 610 q 251 543 294 610 q 208 353 208 476 z "},"ð":{"ha":814,"x_min":80,"x_max":749,"o":"m 396 -14 q 162 75 245 -14 q 80 326 80 164 q 149 546 80 468 q 343 624 217 624 q 491 586 431 624 q 572 480 552 549 l 584 480 q 503 768 579 656 l 189 676 l 161 795 l 408 867 q 229 960 336 921 l 263 1028 q 526 901 425 979 l 722 958 l 749 839 l 623 802 q 708 622 680 724 q 735 389 735 520 l 735 357 q 647 83 735 180 q 396 -14 559 -14 m 395 111 q 585 298 585 111 q 538 447 585 395 q 404 499 491 499 q 272 454 318 499 q 225 326 225 409 q 269 167 225 223 q 395 111 313 111 z "},"ď":{"ha":814,"x_min":65,"x_max":939,"o":"m 761 806 l 795 1063 l 939 1063 l 878 806 l 761 806 m 358 -14 q 65 353 65 -14 q 359 732 65 732 q 543 589 524 732 l 556 589 l 556 1017 l 700 1017 l 700 0 l 571 -7 l 559 111 l 543 111 q 486 18 536 50 q 358 -14 437 -14 m 208 353 q 381 109 208 109 q 556 231 556 109 l 556 404 q 380 610 556 610 q 208 353 208 610 z "},"đ":{"ha":814,"x_min":65,"x_max":772,"o":"m 351 -14 q 140 81 215 -14 q 65 353 65 176 q 140 633 65 534 q 353 732 216 732 q 543 589 524 732 l 556 589 l 556 826 l 313 826 l 313 944 l 556 944 l 556 1017 l 700 1017 l 700 944 l 772 944 l 772 826 l 700 826 l 700 0 l 571 -7 l 559 111 l 543 111 q 484 18 536 50 q 351 -14 433 -14 m 208 353 q 374 109 208 109 q 556 231 556 109 l 556 404 q 373 610 556 610 q 251 543 294 610 q 208 353 208 476 z "},"e":{"ha":814,"x_min":92,"x_max":722,"o":"m 476 -14 q 192 83 292 -14 q 92 361 92 180 q 177 635 92 537 q 416 732 262 732 q 642 644 562 732 q 722 388 722 556 q 718 296 722 338 l 232 296 q 317 159 251 205 q 492 113 384 113 q 581 118 537 113 q 669 132 624 123 l 686 5 q 570 -10 623 -7 q 476 -14 517 -14 m 418 606 q 285 554 334 606 q 227 406 235 502 l 591 406 q 545 554 591 503 q 418 606 499 606 z "},"é":{"ha":814,"x_min":92,"x_max":722,"o":"m 476 -14 q 192 83 292 -14 q 92 361 92 180 q 177 635 92 537 q 416 732 262 732 q 642 644 562 732 q 722 388 722 556 q 718 296 722 338 l 232 296 q 317 159 251 205 q 492 113 384 113 q 581 118 537 113 q 669 132 624 123 l 686 5 q 570 -10 623 -7 q 476 -14 517 -14 m 418 606 q 285 554 334 606 q 227 406 235 502 l 591 406 q 545 554 591 503 q 418 606 499 606 m 352 846 l 467 1104 l 611 1104 l 482 846 l 352 846 z "},"ĕ":{"ha":814,"x_min":92,"x_max":722,"o":"m 476 -14 q 192 83 292 -14 q 92 361 92 180 q 177 635 92 537 q 416 732 262 732 q 642 644 562 732 q 722 388 722 556 q 718 296 722 338 l 232 296 q 317 159 251 205 q 492 113 384 113 q 581 118 537 113 q 669 132 624 123 l 686 5 q 570 -10 623 -7 q 476 -14 517 -14 m 418 606 q 285 554 334 606 q 227 406 235 502 l 591 406 q 545 554 591 503 q 418 606 499 606 m 420 840 q 253 897 313 840 q 194 1058 194 954 l 194 1087 l 313 1087 l 313 1058 q 341 965 313 998 q 420 932 369 932 q 500 965 473 932 q 528 1058 528 998 l 528 1087 l 647 1087 l 647 1058 q 588 897 647 954 q 420 840 528 840 z "},"ě":{"ha":814,"x_min":92,"x_max":722,"o":"m 476 -14 q 192 83 292 -14 q 92 361 92 180 q 177 635 92 537 q 416 732 262 732 q 642 644 562 732 q 722 388 722 556 q 718 296 722 338 l 232 296 q 317 159 251 205 q 492 113 384 113 q 581 118 537 113 q 669 132 624 123 l 686 5 q 570 -10 623 -7 q 476 -14 517 -14 m 418 606 q 285 554 334 606 q 227 406 235 502 l 591 406 q 545 554 591 503 q 418 606 499 606 m 362 846 l 199 1104 l 343 1104 l 420 951 l 498 1104 l 642 1104 l 479 846 l 362 846 z "},"ê":{"ha":814,"x_min":92,"x_max":722,"o":"m 476 -14 q 192 83 292 -14 q 92 361 92 180 q 177 635 92 537 q 416 732 262 732 q 642 644 562 732 q 722 388 722 556 q 718 296 722 338 l 232 296 q 317 159 251 205 q 492 113 384 113 q 581 118 537 113 q 669 132 624 123 l 686 5 q 570 -10 623 -7 q 476 -14 517 -14 m 418 606 q 285 554 334 606 q 227 406 235 502 l 591 406 q 545 554 591 503 q 418 606 499 606 m 199 846 l 362 1104 l 479 1104 l 642 846 l 498 846 l 420 1000 l 343 846 l 199 846 z "},"ế":{"ha":814,"x_min":92,"x_max":853,"o":"m 476 -14 q 192 83 292 -14 q 92 361 92 180 q 177 635 92 537 q 416 732 262 732 q 642 644 562 732 q 722 388 722 556 q 718 296 722 338 l 232 296 q 317 159 251 205 q 492 113 384 113 q 581 118 537 113 q 669 132 624 123 l 686 5 q 570 -10 623 -7 q 476 -14 517 -14 m 418 606 q 285 554 334 606 q 227 406 235 502 l 591 406 q 545 554 591 503 q 418 606 499 606 m 199 846 l 362 1104 l 479 1104 l 642 846 l 498 846 l 420 1000 l 343 846 l 199 846 m 594 1077 l 709 1335 l 853 1335 l 724 1077 l 594 1077 z "},"ệ":{"ha":814,"x_min":92,"x_max":722,"o":"m 476 -14 q 192 83 292 -14 q 92 361 92 180 q 177 635 92 537 q 416 732 262 732 q 642 644 562 732 q 722 388 722 556 q 718 296 722 338 l 232 296 q 317 159 251 205 q 492 113 384 113 q 581 118 537 113 q 669 132 624 123 l 686 5 q 570 -10 623 -7 q 476 -14 517 -14 m 418 606 q 285 554 334 606 q 227 406 235 502 l 591 406 q 545 554 591 503 q 418 606 499 606 m 427 -285 q 363 -258 390 -285 q 336 -194 336 -231 q 363 -130 336 -156 q 427 -103 390 -103 q 492 -130 465 -103 q 518 -194 518 -156 q 492 -258 518 -231 q 427 -285 465 -285 m 199 846 l 362 1104 l 479 1104 l 642 846 l 498 846 l 420 1000 l 343 846 l 199 846 z "},"ề":{"ha":814,"x_min":92,"x_max":741,"o":"m 476 -14 q 192 83 292 -14 q 92 361 92 180 q 177 635 92 537 q 416 732 262 732 q 642 644 562 732 q 722 388 722 556 q 718 296 722 338 l 232 296 q 317 159 251 205 q 492 113 384 113 q 581 118 537 113 q 669 132 624 123 l 686 5 q 570 -10 623 -7 q 476 -14 517 -14 m 418 606 q 285 554 334 606 q 227 406 235 502 l 591 406 q 545 554 591 503 q 418 606 499 606 m 199 846 l 362 1104 l 479 1104 l 642 846 l 498 846 l 420 1000 l 343 846 l 199 846 m 610 1077 l 481 1335 l 625 1335 l 741 1077 l 610 1077 z "},"ể":{"ha":814,"x_min":92,"x_max":795,"o":"m 476 -14 q 192 83 292 -14 q 92 361 92 180 q 177 635 92 537 q 416 732 262 732 q 642 644 562 732 q 722 388 722 556 q 718 296 722 338 l 232 296 q 317 159 251 205 q 492 113 384 113 q 581 118 537 113 q 669 132 624 123 l 686 5 q 570 -10 623 -7 q 476 -14 517 -14 m 418 606 q 285 554 334 606 q 227 406 235 502 l 591 406 q 545 554 591 503 q 418 606 499 606 m 199 846 l 362 1104 l 479 1104 l 642 846 l 498 846 l 420 1000 l 343 846 l 199 846 m 610 1077 l 610 1101 q 628 1159 610 1137 q 664 1198 646 1180 q 682 1238 682 1215 q 671 1265 682 1255 q 640 1276 659 1276 q 556 1246 591 1276 l 511 1327 q 571 1364 532 1350 q 654 1378 610 1378 q 756 1342 718 1378 q 795 1247 795 1306 q 783 1195 795 1215 q 755 1159 770 1175 q 727 1127 739 1144 q 715 1083 715 1109 l 715 1077 l 610 1077 z "},"ễ":{"ha":814,"x_min":92,"x_max":722,"o":"m 476 -14 q 192 83 292 -14 q 92 361 92 180 q 177 635 92 537 q 416 732 262 732 q 642 644 562 732 q 722 388 722 556 q 718 296 722 338 l 232 296 q 317 159 251 205 q 492 113 384 113 q 581 118 537 113 q 669 132 624 123 l 686 5 q 570 -10 623 -7 q 476 -14 517 -14 m 418 606 q 285 554 334 606 q 227 406 235 502 l 591 406 q 545 554 591 503 q 418 606 499 606 m 199 846 l 362 1104 l 479 1104 l 642 846 l 498 846 l 420 1000 l 343 846 l 199 846 m 180 1142 l 180 1190 q 322 1359 180 1359 q 373 1351 349 1359 q 422 1329 397 1342 q 480 1302 456 1312 q 522 1291 505 1291 q 558 1335 558 1291 l 558 1396 l 675 1396 l 675 1341 q 547 1179 675 1179 q 500 1187 528 1179 q 437 1213 473 1195 q 392 1235 414 1224 q 348 1246 370 1246 q 298 1196 298 1246 l 298 1142 l 180 1142 z "},"ë":{"ha":814,"x_min":92,"x_max":722,"o":"m 476 -14 q 192 83 292 -14 q 92 361 92 180 q 177 635 92 537 q 416 732 262 732 q 642 644 562 732 q 722 388 722 556 q 718 296 722 338 l 232 296 q 317 159 251 205 q 492 113 384 113 q 581 118 537 113 q 669 132 624 123 l 686 5 q 570 -10 623 -7 q 476 -14 517 -14 m 418 606 q 285 554 334 606 q 227 406 235 502 l 591 406 q 545 554 591 503 q 418 606 499 606 m 564 840 q 500 866 527 840 q 473 930 473 893 q 500 995 473 968 q 564 1021 527 1021 q 629 995 602 1021 q 655 930 655 968 q 629 866 655 893 q 564 840 602 840 m 279 840 q 215 866 242 840 q 189 930 189 893 q 215 995 189 968 q 279 1021 242 1021 q 344 995 317 1021 q 370 930 370 968 q 344 866 370 893 q 279 840 317 840 z "},"ė":{"ha":814,"x_min":92,"x_max":722,"o":"m 476 -14 q 192 83 292 -14 q 92 361 92 180 q 177 635 92 537 q 416 732 262 732 q 642 644 562 732 q 722 388 722 556 q 718 296 722 338 l 232 296 q 317 159 251 205 q 492 113 384 113 q 581 118 537 113 q 669 132 624 123 l 686 5 q 570 -10 623 -7 q 476 -14 517 -14 m 418 606 q 285 554 334 606 q 227 406 235 502 l 591 406 q 545 554 591 503 q 418 606 499 606 m 419 840 q 355 866 382 840 q 328 930 328 893 q 355 995 328 968 q 419 1021 382 1021 q 484 995 457 1021 q 510 930 510 968 q 484 866 510 893 q 419 840 457 840 z "},"ẹ":{"ha":814,"x_min":92,"x_max":722,"o":"m 476 -14 q 192 83 292 -14 q 92 361 92 180 q 177 635 92 537 q 416 732 262 732 q 642 644 562 732 q 722 388 722 556 q 718 296 722 338 l 232 296 q 317 159 251 205 q 492 113 384 113 q 581 118 537 113 q 669 132 624 123 l 686 5 q 570 -10 623 -7 q 476 -14 517 -14 m 418 606 q 285 554 334 606 q 227 406 235 502 l 591 406 q 545 554 591 503 q 418 606 499 606 m 427 -285 q 363 -258 390 -285 q 336 -194 336 -231 q 363 -130 336 -156 q 427 -103 390 -103 q 492 -130 465 -103 q 518 -194 518 -156 q 492 -258 518 -231 q 427 -285 465 -285 z "},"è":{"ha":814,"x_min":92,"x_max":722,"o":"m 476 -14 q 192 83 292 -14 q 92 361 92 180 q 177 635 92 537 q 416 732 262 732 q 642 644 562 732 q 722 388 722 556 q 718 296 722 338 l 232 296 q 317 159 251 205 q 492 113 384 113 q 581 118 537 113 q 669 132 624 123 l 686 5 q 570 -10 623 -7 q 476 -14 517 -14 m 418 606 q 285 554 334 606 q 227 406 235 502 l 591 406 q 545 554 591 503 q 418 606 499 606 m 369 846 l 240 1104 l 384 1104 l 499 846 l 369 846 z "},"ẻ":{"ha":814,"x_min":92,"x_max":722,"o":"m 476 -14 q 192 83 292 -14 q 92 361 92 180 q 177 635 92 537 q 416 732 262 732 q 642 644 562 732 q 722 388 722 556 q 718 296 722 338 l 232 296 q 317 159 251 205 q 492 113 384 113 q 581 118 537 113 q 669 132 624 123 l 686 5 q 570 -10 623 -7 q 476 -14 517 -14 m 418 606 q 285 554 334 606 q 227 406 235 502 l 591 406 q 545 554 591 503 q 418 606 499 606 m 368 846 l 368 871 q 386 928 368 907 q 422 967 404 949 q 440 1007 440 985 q 429 1035 440 1025 q 398 1045 417 1045 q 314 1016 349 1045 l 269 1097 q 329 1134 290 1120 q 412 1147 368 1147 q 514 1112 476 1147 q 553 1017 553 1076 q 541 964 553 984 q 513 929 528 944 q 485 896 497 913 q 473 852 473 879 l 473 846 l 368 846 z "},"ē":{"ha":814,"x_min":92,"x_max":722,"o":"m 476 -14 q 192 83 292 -14 q 92 361 92 180 q 177 635 92 537 q 416 732 262 732 q 642 644 562 732 q 722 388 722 556 q 718 296 722 338 l 232 296 q 317 159 251 205 q 492 113 384 113 q 581 118 537 113 q 669 132 624 123 l 686 5 q 570 -10 623 -7 q 476 -14 517 -14 m 418 606 q 285 554 334 606 q 227 406 235 502 l 591 406 q 545 554 591 503 q 418 606 499 606 m 129 846 l 129 974 l 712 974 l 712 846 l 129 846 z "},"ę":{"ha":814,"x_min":92,"x_max":722,"o":"m 476 -14 q 192 83 292 -14 q 92 361 92 180 q 177 635 92 537 q 416 732 262 732 q 642 644 562 732 q 722 388 722 556 q 718 296 722 338 l 232 296 q 317 159 251 205 q 492 113 384 113 q 581 118 537 113 q 669 132 624 123 l 686 5 q 617 -16 652 -3 q 558 -53 582 -29 q 534 -114 534 -76 q 550 -153 534 -132 q 613 -174 566 -174 q 669 -166 638 -174 l 656 -281 q 595 -288 622 -288 q 475 -253 517 -288 q 433 -157 433 -219 q 510 -27 433 -53 l 510 -13 q 476 -14 494 -14 m 418 606 q 285 554 334 606 q 227 406 235 502 l 591 406 q 545 554 591 503 q 418 606 499 606 z "},"ẽ":{"ha":814,"x_min":92,"x_max":722,"o":"m 476 -14 q 192 83 292 -14 q 92 361 92 180 q 177 635 92 537 q 416 732 262 732 q 642 644 562 732 q 722 388 722 556 q 718 296 722 338 l 232 296 q 317 159 251 205 q 492 113 384 113 q 581 118 537 113 q 669 132 624 123 l 686 5 q 570 -10 623 -7 q 476 -14 517 -14 m 418 606 q 285 554 334 606 q 227 406 235 502 l 591 406 q 545 554 591 503 q 418 606 499 606 m 180 831 l 180 879 q 322 1048 180 1048 q 373 1040 349 1048 q 422 1019 397 1031 q 480 991 456 1002 q 522 981 505 981 q 558 1024 558 981 l 558 1085 l 675 1085 l 675 1031 q 547 868 675 868 q 500 876 528 868 q 437 902 473 884 q 392 925 414 913 q 348 936 370 936 q 298 886 298 936 l 298 831 l 180 831 z "},"ə":{"ha":814,"x_min":92,"x_max":722,"o":"m 397 -14 q 172 75 252 -14 q 92 331 92 163 q 96 423 92 380 l 582 423 q 496 560 563 513 q 321 606 430 606 q 233 600 277 606 q 145 581 190 593 l 127 700 q 244 727 192 721 q 338 732 297 732 q 622 636 522 732 q 722 358 722 539 q 637 84 722 182 q 397 -14 552 -14 m 396 113 q 529 165 479 113 q 587 313 578 217 l 222 313 q 269 165 222 217 q 396 113 315 113 z "},"f":{"ha":814,"x_min":46,"x_max":762,"o":"m 273 0 l 273 438 l 46 438 l 46 556 l 273 556 l 273 658 q 613 1031 273 1031 q 762 1017 690 1031 l 747 892 q 672 900 705 898 q 609 902 640 902 q 416 665 416 902 l 416 556 l 711 556 l 711 438 l 416 438 l 416 0 l 273 0 z "},"g":{"ha":814,"x_min":65,"x_max":700,"o":"m 123 -324 l 117 -197 l 347 -186 q 506 -124 456 -180 q 555 42 555 -68 l 555 111 l 543 111 q 484 18 536 50 q 351 -14 433 -14 q 140 81 215 -14 q 65 353 65 176 q 140 633 65 534 q 353 732 216 732 q 543 589 524 732 l 558 589 l 570 719 l 700 719 l 700 64 q 612 -219 700 -128 q 334 -317 525 -310 l 123 -324 m 208 353 q 374 109 208 109 q 556 231 556 109 l 556 404 q 373 610 556 610 q 251 543 294 610 q 208 353 208 476 z "},"ğ":{"ha":814,"x_min":65,"x_max":700,"o":"m 123 -324 l 117 -197 l 347 -186 q 506 -124 456 -180 q 555 42 555 -68 l 555 111 l 543 111 q 484 18 536 50 q 351 -14 433 -14 q 140 81 215 -14 q 65 353 65 176 q 140 633 65 534 q 353 732 216 732 q 543 589 524 732 l 558 589 l 570 719 l 700 719 l 700 64 q 612 -219 700 -128 q 334 -317 525 -310 l 123 -324 m 208 353 q 374 109 208 109 q 556 231 556 109 l 556 404 q 373 610 556 610 q 251 543 294 610 q 208 353 208 476 m 393 840 q 226 897 286 840 q 167 1058 167 954 l 167 1087 l 286 1087 l 286 1058 q 314 965 286 998 q 393 932 342 932 q 473 965 446 932 q 501 1058 501 998 l 501 1087 l 620 1087 l 620 1058 q 561 897 620 954 q 393 840 501 840 z "},"ǧ":{"ha":814,"x_min":65,"x_max":700,"o":"m 123 -324 l 117 -197 l 347 -186 q 506 -124 456 -180 q 555 42 555 -68 l 555 111 l 543 111 q 484 18 536 50 q 351 -14 433 -14 q 140 81 215 -14 q 65 353 65 176 q 140 633 65 534 q 353 732 216 732 q 543 589 524 732 l 558 589 l 570 719 l 700 719 l 700 64 q 612 -219 700 -128 q 334 -317 525 -310 l 123 -324 m 208 353 q 374 109 208 109 q 556 231 556 109 l 556 404 q 373 610 556 610 q 251 543 294 610 q 208 353 208 476 m 335 846 l 172 1104 l 316 1104 l 393 951 l 471 1104 l 614 1104 l 452 846 l 335 846 z "},"ĝ":{"ha":814,"x_min":65,"x_max":700,"o":"m 123 -324 l 117 -197 l 347 -186 q 506 -124 456 -180 q 555 42 555 -68 l 555 111 l 543 111 q 484 18 536 50 q 351 -14 433 -14 q 140 81 215 -14 q 65 353 65 176 q 140 633 65 534 q 353 732 216 732 q 543 589 524 732 l 558 589 l 570 719 l 700 719 l 700 64 q 612 -219 700 -128 q 334 -317 525 -310 l 123 -324 m 208 353 q 374 109 208 109 q 556 231 556 109 l 556 404 q 373 610 556 610 q 251 543 294 610 q 208 353 208 476 m 172 846 l 335 1104 l 452 1104 l 614 846 l 471 846 l 393 1000 l 316 846 l 172 846 z "},"ģ":{"ha":814,"x_min":65,"x_max":700,"o":"m 123 -324 l 117 -197 l 347 -186 q 506 -124 456 -180 q 555 42 555 -68 l 555 111 l 543 111 q 484 18 536 50 q 351 -14 433 -14 q 140 81 215 -14 q 65 353 65 176 q 140 633 65 534 q 353 732 216 732 q 543 589 524 732 l 558 589 l 570 719 l 700 719 l 700 64 q 612 -219 700 -128 q 334 -317 525 -310 l 123 -324 m 208 353 q 374 109 208 109 q 556 231 556 109 l 556 404 q 373 610 556 610 q 251 543 294 610 q 208 353 208 476 m 327 819 l 388 1077 l 505 1077 l 471 819 l 327 819 z "},"ġ":{"ha":814,"x_min":65,"x_max":700,"o":"m 123 -324 l 117 -197 l 347 -186 q 506 -124 456 -180 q 555 42 555 -68 l 555 111 l 543 111 q 484 18 536 50 q 351 -14 433 -14 q 140 81 215 -14 q 65 353 65 176 q 140 633 65 534 q 353 732 216 732 q 543 589 524 732 l 558 589 l 570 719 l 700 719 l 700 64 q 612 -219 700 -128 q 334 -317 525 -310 l 123 -324 m 208 353 q 374 109 208 109 q 556 231 556 109 l 556 404 q 373 610 556 610 q 251 543 294 610 q 208 353 208 476 m 392 840 q 328 866 355 840 q 301 930 301 893 q 328 995 301 968 q 392 1021 355 1021 q 456 995 430 1021 q 483 930 483 968 q 456 866 483 893 q 392 840 430 840 z "},"h":{"ha":814,"x_min":114,"x_max":700,"o":"m 114 0 l 114 1017 l 258 1017 l 258 589 l 271 589 q 461 732 283 732 q 637 663 575 732 q 700 468 700 594 l 700 0 l 556 0 l 556 468 q 522 573 556 536 q 427 610 488 610 q 258 404 258 610 l 258 0 l 114 0 z "},"ħ":{"ha":814,"x_min":42,"x_max":700,"o":"m 114 0 l 114 826 l 42 826 l 42 944 l 114 944 l 114 1017 l 258 1017 l 258 944 l 500 944 l 500 826 l 258 826 l 258 589 l 271 589 q 461 732 283 732 q 637 663 575 732 q 700 468 700 594 l 700 0 l 556 0 l 556 468 q 522 573 556 536 q 427 610 488 610 q 258 404 258 610 l 258 0 l 114 0 z "},"ĥ":{"ha":814,"x_min":-45,"x_max":700,"o":"m 114 0 l 114 1017 l 258 1017 l 258 589 l 271 589 q 461 732 283 732 q 637 663 575 732 q 700 468 700 594 l 700 0 l 556 0 l 556 468 q 522 573 556 536 q 427 610 488 610 q 258 404 258 610 l 258 0 l 114 0 m -45 1126 l 131 1302 l 248 1302 l 424 1126 l 273 1126 l 189 1223 l 105 1126 l -45 1126 z "},"i":{"ha":814,"x_min":109,"x_max":747,"o":"m 446 833 q 375 862 405 833 q 346 933 346 892 q 375 1004 346 975 q 446 1034 405 1034 q 517 1004 488 1034 q 547 933 547 975 q 517 862 547 892 q 446 833 488 833 m 109 0 l 109 118 l 382 118 l 382 600 l 149 600 l 149 719 l 526 719 l 526 118 l 747 118 l 747 0 l 109 0 z "},"ı":{"ha":814,"x_min":109,"x_max":747,"o":"m 109 0 l 109 118 l 382 118 l 382 601 l 149 601 l 149 719 l 526 719 l 526 118 l 747 118 l 747 0 l 109 0 z "},"í":{"ha":814,"x_min":109,"x_max":747,"o":"m 109 0 l 109 118 l 382 118 l 382 601 l 149 601 l 149 719 l 526 719 l 526 118 l 747 118 l 747 0 l 109 0 m 372 846 l 488 1104 l 631 1104 l 503 846 l 372 846 z "},"ĭ":{"ha":814,"x_min":109,"x_max":747,"o":"m 109 0 l 109 118 l 382 118 l 382 601 l 149 601 l 149 719 l 526 719 l 526 118 l 747 118 l 747 0 l 109 0 m 441 840 q 274 897 333 840 q 214 1058 214 954 l 214 1087 l 333 1087 l 333 1058 q 361 965 333 998 q 441 932 389 932 q 521 965 493 932 q 549 1058 549 998 l 549 1087 l 667 1087 l 667 1058 q 608 897 667 954 q 441 840 549 840 z "},"î":{"ha":814,"x_min":109,"x_max":747,"o":"m 109 0 l 109 118 l 382 118 l 382 601 l 149 601 l 149 719 l 526 719 l 526 118 l 747 118 l 747 0 l 109 0 m 220 846 l 382 1104 l 499 1104 l 662 846 l 518 846 l 441 1000 l 363 846 l 220 846 z "},"ï":{"ha":814,"x_min":109,"x_max":747,"o":"m 109 0 l 109 118 l 382 118 l 382 601 l 149 601 l 149 719 l 526 719 l 526 118 l 747 118 l 747 0 l 109 0 m 585 840 q 520 866 547 840 q 494 930 494 893 q 520 995 494 968 q 585 1021 547 1021 q 649 995 623 1021 q 675 930 675 968 q 649 866 675 893 q 585 840 623 840 m 300 840 q 236 866 262 840 q 209 930 209 893 q 236 995 209 968 q 300 1021 262 1021 q 364 995 338 1021 q 391 930 391 968 q 364 866 391 893 q 300 840 338 840 z "},"ị":{"ha":814,"x_min":109,"x_max":747,"o":"m 446 833 q 375 862 405 833 q 346 933 346 892 q 375 1004 346 975 q 446 1034 405 1034 q 517 1004 488 1034 q 547 933 547 975 q 517 862 547 892 q 446 833 488 833 m 109 0 l 109 118 l 382 118 l 382 600 l 149 600 l 149 719 l 526 719 l 526 118 l 747 118 l 747 0 l 109 0 m 454 -285 q 390 -258 417 -285 q 363 -194 363 -231 q 390 -130 363 -156 q 454 -103 417 -103 q 519 -130 492 -103 q 545 -194 545 -156 q 519 -258 545 -231 q 454 -285 492 -285 z "},"ì":{"ha":814,"x_min":109,"x_max":747,"o":"m 109 0 l 109 118 l 382 118 l 382 601 l 149 601 l 149 719 l 526 719 l 526 118 l 747 118 l 747 0 l 109 0 m 389 846 l 260 1104 l 404 1104 l 519 846 l 389 846 z "},"ỉ":{"ha":814,"x_min":109,"x_max":747,"o":"m 109 0 l 109 118 l 382 118 l 382 601 l 149 601 l 149 719 l 526 719 l 526 118 l 747 118 l 747 0 l 109 0 m 388 846 l 388 871 q 406 928 388 907 q 443 967 425 949 q 460 1007 460 985 q 449 1035 460 1025 q 418 1045 437 1045 q 334 1016 369 1045 l 289 1097 q 349 1134 310 1120 q 433 1147 389 1147 q 535 1112 496 1147 q 573 1017 573 1076 q 561 964 573 984 q 533 929 549 944 q 505 896 517 913 q 493 852 493 879 l 493 846 l 388 846 z "},"ĳ":{"ha":814,"x_min":136,"x_max":678,"o":"m 236 833 q 165 862 195 833 q 136 933 136 892 q 165 1004 136 975 q 236 1034 195 1034 q 307 1004 278 1034 q 336 933 336 975 q 307 862 336 892 q 236 833 278 833 m 578 833 q 507 862 536 833 q 477 933 477 892 q 507 1004 477 975 q 578 1034 536 1034 q 649 1004 620 1034 q 678 933 678 975 q 649 862 678 892 q 578 833 620 833 m 165 0 l 165 719 l 309 719 l 309 0 l 165 0 m 171 -326 l 164 -198 l 300 -186 q 458 -122 409 -176 q 507 42 507 -68 l 507 719 l 651 719 l 651 64 q 564 -216 651 -128 q 286 -317 477 -304 l 171 -326 z "},"ī":{"ha":814,"x_min":109,"x_max":747,"o":"m 109 0 l 109 118 l 382 118 l 382 601 l 149 601 l 149 719 l 526 719 l 526 118 l 747 118 l 747 0 l 109 0 m 149 846 l 149 974 l 732 974 l 732 846 l 149 846 z "},"į":{"ha":814,"x_min":109,"x_max":747,"o":"m 446 833 q 375 862 405 833 q 346 933 346 892 q 375 1004 346 975 q 446 1034 405 1034 q 517 1004 488 1034 q 547 933 547 975 q 517 862 547 892 q 446 833 488 833 m 109 0 l 109 118 l 382 118 l 382 600 l 149 600 l 149 719 l 526 719 l 526 118 l 747 118 l 747 0 l 545 0 q 433 -30 473 0 q 393 -114 393 -60 q 472 -174 393 -174 q 528 -166 496 -174 l 515 -281 q 454 -288 484 -288 q 334 -250 376 -288 q 292 -144 292 -212 q 312 -60 292 -94 q 369 -14 332 -26 l 369 0 l 109 0 z "},"ĩ":{"ha":814,"x_min":109,"x_max":747,"o":"m 109 0 l 109 118 l 382 118 l 382 601 l 149 601 l 149 719 l 526 719 l 526 118 l 747 118 l 747 0 l 109 0 m 200 831 l 200 879 q 342 1048 200 1048 q 393 1040 370 1048 q 443 1019 417 1031 q 501 991 477 1002 q 542 981 525 981 q 578 1024 578 981 l 578 1085 l 695 1085 l 695 1031 q 568 868 695 868 q 521 876 549 868 q 457 902 493 884 q 412 925 435 913 q 368 936 390 936 q 318 886 318 936 l 318 831 l 200 831 z "},"j":{"ha":814,"x_min":115,"x_max":616,"o":"m 515 833 q 445 862 474 833 q 415 933 415 892 q 445 1004 415 975 q 515 1034 474 1034 q 587 1004 557 1034 q 616 933 616 975 q 587 862 616 892 q 515 833 557 833 m 122 -326 l 115 -198 l 251 -186 q 409 -122 360 -176 q 458 42 458 -68 l 458 601 l 179 601 l 179 719 l 602 719 l 602 64 q 564 -145 602 -64 q 446 -266 526 -225 q 237 -317 365 -307 l 122 -326 z "},"ȷ":{"ha":814,"x_min":115,"x_max":602,"o":"m 122 -326 l 115 -198 l 251 -186 q 409 -122 360 -176 q 458 42 458 -68 l 458 601 l 179 601 l 179 719 l 602 719 l 602 64 q 564 -145 602 -64 q 446 -266 526 -225 q 237 -317 365 -307 l 122 -326 z "},"ĵ":{"ha":814,"x_min":115,"x_max":751,"o":"m 122 -326 l 115 -198 l 251 -186 q 409 -122 360 -176 q 458 42 458 -68 l 458 601 l 179 601 l 179 719 l 602 719 l 602 64 q 564 -145 602 -64 q 446 -266 526 -225 q 237 -317 365 -307 l 122 -326 m 309 846 l 472 1104 l 589 1104 l 751 846 l 608 846 l 530 1000 l 453 846 l 309 846 z "},"k":{"ha":814,"x_min":109,"x_max":773,"o":"m 109 0 l 109 1017 l 252 1017 l 252 401 l 292 401 q 439 432 381 401 q 529 533 496 463 q 578 719 562 603 l 727 719 q 562 348 694 454 l 773 0 l 595 0 l 429 284 q 326 273 381 273 l 252 273 l 252 0 l 109 0 z "},"ķ":{"ha":814,"x_min":109,"x_max":773,"o":"m 109 0 l 109 1017 l 252 1017 l 252 401 l 292 401 q 439 432 381 401 q 529 533 496 463 q 578 719 562 603 l 727 719 q 562 348 694 454 l 773 0 l 595 0 l 429 284 q 326 273 381 273 l 252 273 l 252 0 l 109 0 m 268 -326 l 320 -95 l 471 -95 l 391 -326 l 268 -326 z "},"ĸ":{"ha":814,"x_min":109,"x_max":773,"o":"m 109 0 l 109 719 l 252 719 l 252 401 l 292 401 q 439 432 381 401 q 529 533 496 463 q 578 719 562 603 l 727 719 q 562 348 694 454 l 773 0 l 595 0 l 429 284 q 326 273 381 273 l 252 273 l 252 0 l 109 0 z "},"l":{"ha":814,"x_min":60,"x_max":722,"o":"m 507 -14 q 327 54 382 -14 q 271 271 271 122 l 271 899 l 60 899 l 60 1017 l 415 1017 l 415 278 q 426 185 415 221 q 468 132 437 149 q 562 115 500 115 q 705 141 618 115 l 722 15 q 616 -7 667 0 q 507 -14 566 -14 z "},"ĺ":{"ha":814,"x_min":60,"x_max":722,"o":"m 507 -14 q 327 54 382 -14 q 271 271 271 122 l 271 899 l 60 899 l 60 1017 l 415 1017 l 415 278 q 426 185 415 221 q 468 132 437 149 q 562 115 500 115 q 705 141 618 115 l 722 15 q 616 -7 667 0 q 507 -14 566 -14 m 254 1126 l 404 1295 l 595 1295 l 418 1126 l 254 1126 z "},"ľ":{"ha":814,"x_min":60,"x_max":722,"o":"m 517 806 l 551 1063 l 694 1063 l 633 806 l 517 806 m 507 -14 q 327 54 382 -14 q 271 271 271 122 l 271 899 l 60 899 l 60 1017 l 415 1017 l 415 278 q 426 185 415 221 q 468 132 437 149 q 562 115 500 115 q 705 141 618 115 l 722 15 q 616 -7 667 0 q 507 -14 566 -14 z "},"ļ":{"ha":814,"x_min":60,"x_max":722,"o":"m 507 -14 q 327 54 382 -14 q 271 271 271 122 l 271 899 l 60 899 l 60 1017 l 415 1017 l 415 278 q 426 185 415 221 q 468 132 437 149 q 562 115 500 115 q 705 141 618 115 l 722 15 q 616 -7 667 0 q 507 -14 566 -14 m 329 -326 l 381 -95 l 532 -95 l 452 -326 l 329 -326 z "},"ŀ":{"ha":814,"x_min":60,"x_max":722,"o":"m 507 -14 q 327 54 382 -14 q 271 271 271 122 l 271 899 l 60 899 l 60 1017 l 415 1017 l 415 278 q 426 185 415 221 q 468 132 437 149 q 562 115 500 115 q 705 141 618 115 l 722 15 q 616 -7 667 0 q 507 -14 566 -14 z "},"ł":{"ha":814,"x_min":60,"x_max":722,"o":"m 80 309 l 80 434 l 271 534 l 271 899 l 60 899 l 60 1017 l 415 1017 l 415 608 l 627 719 l 627 593 l 415 483 l 415 278 q 426 185 415 221 q 468 132 437 149 q 562 115 500 115 q 705 141 618 115 l 722 15 q 616 -7 667 0 q 507 -14 566 -14 q 327 54 382 -14 q 271 271 271 122 l 271 408 l 80 309 z "},"m":{"ha":814,"x_min":76,"x_max":738,"o":"m 76 0 l 76 719 l 203 719 l 213 629 l 224 629 q 347 732 232 732 q 423 707 393 732 q 463 629 453 681 l 475 629 q 508 702 478 671 q 595 732 538 732 q 704 692 670 732 q 738 563 738 652 l 738 0 l 594 0 l 594 549 q 538 624 594 624 q 468 526 468 624 l 468 0 l 346 0 l 346 563 q 289 624 346 624 q 220 526 220 624 l 220 0 l 76 0 z "},"n":{"ha":814,"x_min":114,"x_max":700,"o":"m 114 0 l 114 719 l 244 719 l 256 589 l 271 589 q 461 732 283 732 q 637 663 575 732 q 700 468 700 594 l 700 0 l 556 0 l 556 468 q 522 568 556 533 q 427 604 488 604 q 258 404 258 604 l 258 0 l 114 0 z "},"ń":{"ha":814,"x_min":114,"x_max":700,"o":"m 114 0 l 114 719 l 244 719 l 256 589 l 271 589 q 461 732 283 732 q 637 663 575 732 q 700 468 700 594 l 700 0 l 556 0 l 556 468 q 522 568 556 533 q 427 604 488 604 q 258 404 258 604 l 258 0 l 114 0 m 332 846 l 447 1104 l 591 1104 l 462 846 l 332 846 z "},"ŉ":{"ha":814,"x_min":0,"x_max":700,"o":"m 0 846 l 47 1104 l 205 1104 l 110 846 l 0 846 m 114 0 l 114 719 l 244 719 l 256 589 l 271 589 q 461 732 283 732 q 637 663 575 732 q 700 468 700 594 l 700 0 l 556 0 l 556 468 q 522 568 556 533 q 427 604 488 604 q 258 404 258 604 l 258 0 l 114 0 z "},"ň":{"ha":814,"x_min":114,"x_max":700,"o":"m 114 0 l 114 719 l 244 719 l 256 589 l 271 589 q 461 732 283 732 q 637 663 575 732 q 700 468 700 594 l 700 0 l 556 0 l 556 468 q 522 568 556 533 q 427 604 488 604 q 258 404 258 604 l 258 0 l 114 0 m 342 846 l 179 1104 l 323 1104 l 400 951 l 477 1104 l 621 1104 l 458 846 l 342 846 z "},"ņ":{"ha":814,"x_min":114,"x_max":700,"o":"m 114 0 l 114 719 l 244 719 l 256 589 l 271 589 q 461 732 283 732 q 637 663 575 732 q 700 468 700 594 l 700 0 l 556 0 l 556 468 q 522 568 556 533 q 427 604 488 604 q 258 404 258 604 l 258 0 l 114 0 m 281 -326 l 334 -95 l 484 -95 l 405 -326 l 281 -326 z "},"ŋ":{"ha":814,"x_min":114,"x_max":700,"o":"m 114 0 l 114 719 l 244 719 l 256 589 l 271 589 q 461 732 283 732 q 637 663 575 732 q 700 468 700 594 l 700 64 q 624 -215 700 -128 q 382 -317 549 -302 l 315 -326 l 308 -198 l 396 -186 q 518 -122 480 -176 q 556 42 556 -68 l 556 468 q 522 573 556 536 q 427 610 488 610 q 258 404 258 610 l 258 0 l 114 0 z "},"ɲ":{"ha":814,"x_min":-134,"x_max":700,"o":"m -127 -326 l -134 -198 l -46 -186 q 76 -121 38 -174 q 114 42 114 -68 l 114 719 l 244 719 l 256 589 l 271 589 q 461 732 283 732 q 637 663 575 732 q 700 468 700 594 l 700 0 l 556 0 l 556 468 q 522 573 556 536 q 427 610 488 610 q 258 404 258 610 l 258 64 q 224 -143 258 -64 q 121 -263 191 -222 q -60 -317 51 -304 l -127 -326 z "},"ñ":{"ha":814,"x_min":114,"x_max":700,"o":"m 114 0 l 114 719 l 244 719 l 256 589 l 271 589 q 461 732 283 732 q 637 663 575 732 q 700 468 700 594 l 700 0 l 556 0 l 556 468 q 522 568 556 533 q 427 604 488 604 q 258 404 258 604 l 258 0 l 114 0 m 159 831 l 159 879 q 302 1048 159 1048 q 353 1040 329 1048 q 402 1019 376 1031 q 460 991 436 1002 q 501 981 484 981 q 538 1024 538 981 l 538 1085 l 654 1085 l 654 1031 q 527 868 654 868 q 480 876 508 868 q 416 902 452 884 q 372 925 394 913 q 328 936 349 936 q 277 886 277 936 l 277 831 l 159 831 z "},"o":{"ha":814,"x_min":92,"x_max":722,"o":"m 407 -14 q 175 84 258 -14 q 92 359 92 182 q 175 635 92 538 q 407 732 258 732 q 639 635 557 732 q 722 359 722 538 q 639 84 722 182 q 407 -14 557 -14 m 407 115 q 529 179 486 115 q 572 359 572 243 q 529 540 572 477 q 407 604 486 604 q 284 540 328 604 q 241 359 241 477 q 284 179 241 243 q 407 115 328 115 z "},"ó":{"ha":814,"x_min":92,"x_max":722,"o":"m 407 -14 q 175 84 258 -14 q 92 359 92 182 q 175 635 92 538 q 407 732 258 732 q 639 635 557 732 q 722 359 722 538 q 639 84 722 182 q 407 -14 557 -14 m 407 115 q 529 179 486 115 q 572 359 572 243 q 529 540 572 477 q 407 604 486 604 q 284 540 328 604 q 241 359 241 477 q 284 179 241 243 q 407 115 328 115 m 338 846 l 454 1104 l 597 1104 l 469 846 l 338 846 z "},"ŏ":{"ha":814,"x_min":92,"x_max":722,"o":"m 407 -14 q 175 84 258 -14 q 92 359 92 182 q 175 635 92 538 q 407 732 258 732 q 639 635 557 732 q 722 359 722 538 q 639 84 722 182 q 407 -14 557 -14 m 407 115 q 529 179 486 115 q 572 359 572 243 q 529 540 572 477 q 407 604 486 604 q 284 540 328 604 q 241 359 241 477 q 284 179 241 243 q 407 115 328 115 m 407 840 q 240 897 299 840 q 180 1058 180 954 l 180 1087 l 299 1087 l 299 1058 q 327 965 299 998 q 407 932 355 932 q 487 965 459 932 q 515 1058 515 998 l 515 1087 l 633 1087 l 633 1058 q 574 897 633 954 q 407 840 515 840 z "},"ô":{"ha":814,"x_min":92,"x_max":722,"o":"m 407 -14 q 175 84 258 -14 q 92 359 92 182 q 175 635 92 538 q 407 732 258 732 q 639 635 557 732 q 722 359 722 538 q 639 84 722 182 q 407 -14 557 -14 m 407 115 q 529 179 486 115 q 572 359 572 243 q 529 540 572 477 q 407 604 486 604 q 284 540 328 604 q 241 359 241 477 q 284 179 241 243 q 407 115 328 115 m 186 846 l 349 1104 l 465 1104 l 628 846 l 484 846 l 407 1000 l 330 846 l 186 846 z "},"ố":{"ha":814,"x_min":92,"x_max":840,"o":"m 407 -14 q 175 84 258 -14 q 92 359 92 182 q 175 635 92 538 q 407 732 258 732 q 639 635 557 732 q 722 359 722 538 q 639 84 722 182 q 407 -14 557 -14 m 407 115 q 529 179 486 115 q 572 359 572 243 q 529 540 572 477 q 407 604 486 604 q 284 540 328 604 q 241 359 241 477 q 284 179 241 243 q 407 115 328 115 m 186 846 l 349 1104 l 465 1104 l 628 846 l 484 846 l 407 1000 l 330 846 l 186 846 m 581 1077 l 696 1335 l 840 1335 l 711 1077 l 581 1077 z "},"ộ":{"ha":814,"x_min":92,"x_max":722,"o":"m 407 -14 q 175 84 258 -14 q 92 359 92 182 q 175 635 92 538 q 407 732 258 732 q 639 635 557 732 q 722 359 722 538 q 639 84 722 182 q 407 -14 557 -14 m 407 115 q 529 179 486 115 q 572 359 572 243 q 529 540 572 477 q 407 604 486 604 q 284 540 328 604 q 241 359 241 477 q 284 179 241 243 q 407 115 328 115 m 407 -285 q 343 -258 370 -285 q 316 -194 316 -231 q 343 -130 316 -156 q 407 -103 370 -103 q 471 -130 445 -103 q 498 -194 498 -156 q 471 -258 498 -231 q 407 -285 445 -285 m 186 846 l 349 1104 l 465 1104 l 628 846 l 484 846 l 407 1000 l 330 846 l 186 846 z "},"ồ":{"ha":814,"x_min":92,"x_max":727,"o":"m 407 -14 q 175 84 258 -14 q 92 359 92 182 q 175 635 92 538 q 407 732 258 732 q 639 635 557 732 q 722 359 722 538 q 639 84 722 182 q 407 -14 557 -14 m 407 115 q 529 179 486 115 q 572 359 572 243 q 529 540 572 477 q 407 604 486 604 q 284 540 328 604 q 241 359 241 477 q 284 179 241 243 q 407 115 328 115 m 186 846 l 349 1104 l 465 1104 l 628 846 l 484 846 l 407 1000 l 330 846 l 186 846 m 597 1077 l 468 1335 l 612 1335 l 727 1077 l 597 1077 z "},"ổ":{"ha":814,"x_min":92,"x_max":781,"o":"m 407 -14 q 175 84 258 -14 q 92 359 92 182 q 175 635 92 538 q 407 732 258 732 q 639 635 557 732 q 722 359 722 538 q 639 84 722 182 q 407 -14 557 -14 m 407 115 q 529 179 486 115 q 572 359 572 243 q 529 540 572 477 q 407 604 486 604 q 284 540 328 604 q 241 359 241 477 q 284 179 241 243 q 407 115 328 115 m 186 846 l 349 1104 l 465 1104 l 628 846 l 484 846 l 407 1000 l 330 846 l 186 846 m 596 1077 l 596 1101 q 614 1159 596 1137 q 651 1198 633 1180 q 669 1238 669 1215 q 657 1265 669 1255 q 627 1276 646 1276 q 543 1246 577 1276 l 497 1327 q 557 1364 518 1350 q 641 1378 597 1378 q 743 1342 705 1378 q 781 1247 781 1306 q 769 1195 781 1215 q 741 1159 757 1175 q 713 1127 726 1144 q 701 1083 701 1109 l 701 1077 l 596 1077 z "},"ỗ":{"ha":814,"x_min":92,"x_max":722,"o":"m 407 -14 q 175 84 258 -14 q 92 359 92 182 q 175 635 92 538 q 407 732 258 732 q 639 635 557 732 q 722 359 722 538 q 639 84 722 182 q 407 -14 557 -14 m 407 115 q 529 179 486 115 q 572 359 572 243 q 529 540 572 477 q 407 604 486 604 q 284 540 328 604 q 241 359 241 477 q 284 179 241 243 q 407 115 328 115 m 186 846 l 349 1104 l 465 1104 l 628 846 l 484 846 l 407 1000 l 330 846 l 186 846 m 166 1142 l 166 1190 q 309 1359 166 1359 q 359 1351 336 1359 q 409 1329 383 1342 q 467 1302 443 1312 q 508 1291 491 1291 q 545 1335 545 1291 l 545 1396 l 661 1396 l 661 1341 q 534 1179 661 1179 q 487 1187 515 1179 q 423 1213 459 1195 q 378 1235 401 1224 q 334 1246 356 1246 q 284 1196 284 1246 l 284 1142 l 166 1142 z "},"ö":{"ha":814,"x_min":92,"x_max":722,"o":"m 407 -14 q 175 84 258 -14 q 92 359 92 182 q 175 635 92 538 q 407 732 258 732 q 639 635 557 732 q 722 359 722 538 q 639 84 722 182 q 407 -14 557 -14 m 407 115 q 529 179 486 115 q 572 359 572 243 q 529 540 572 477 q 407 604 486 604 q 284 540 328 604 q 241 359 241 477 q 284 179 241 243 q 407 115 328 115 m 551 840 q 487 866 513 840 q 460 930 460 893 q 487 995 460 968 q 551 1021 513 1021 q 615 995 589 1021 q 642 930 642 968 q 615 866 642 893 q 551 840 589 840 m 266 840 q 202 866 229 840 q 175 930 175 893 q 202 995 175 968 q 266 1021 229 1021 q 330 995 304 1021 q 357 930 357 968 q 330 866 357 893 q 266 840 304 840 z "},"ọ":{"ha":814,"x_min":92,"x_max":722,"o":"m 407 -14 q 175 84 258 -14 q 92 359 92 182 q 175 635 92 538 q 407 732 258 732 q 639 635 557 732 q 722 359 722 538 q 639 84 722 182 q 407 -14 557 -14 m 407 115 q 529 179 486 115 q 572 359 572 243 q 529 540 572 477 q 407 604 486 604 q 284 540 328 604 q 241 359 241 477 q 284 179 241 243 q 407 115 328 115 m 407 -285 q 343 -258 370 -285 q 316 -194 316 -231 q 343 -130 316 -156 q 407 -103 370 -103 q 471 -130 445 -103 q 498 -194 498 -156 q 471 -258 498 -231 q 407 -285 445 -285 z "},"ò":{"ha":814,"x_min":92,"x_max":722,"o":"m 407 -14 q 175 84 258 -14 q 92 359 92 182 q 175 635 92 538 q 407 732 258 732 q 639 635 557 732 q 722 359 722 538 q 639 84 722 182 q 407 -14 557 -14 m 407 115 q 529 179 486 115 q 572 359 572 243 q 529 540 572 477 q 407 604 486 604 q 284 540 328 604 q 241 359 241 477 q 284 179 241 243 q 407 115 328 115 m 355 846 l 227 1104 l 370 1104 l 486 846 l 355 846 z "},"ỏ":{"ha":814,"x_min":92,"x_max":722,"o":"m 407 -14 q 175 84 258 -14 q 92 359 92 182 q 175 635 92 538 q 407 732 258 732 q 639 635 557 732 q 722 359 722 538 q 639 84 722 182 q 407 -14 557 -14 m 407 115 q 529 179 486 115 q 572 359 572 243 q 529 540 572 477 q 407 604 486 604 q 284 540 328 604 q 241 359 241 477 q 284 179 241 243 q 407 115 328 115 m 354 846 l 354 871 q 372 928 354 907 q 409 967 391 949 q 427 1007 427 985 q 415 1035 427 1025 q 385 1045 404 1045 q 300 1016 335 1045 l 255 1097 q 315 1134 276 1120 q 399 1147 355 1147 q 501 1112 463 1147 q 539 1017 539 1076 q 527 964 539 984 q 499 929 515 944 q 471 896 484 913 q 459 852 459 879 l 459 846 l 354 846 z "},"ơ":{"ha":814,"x_min":92,"x_max":819,"o":"m 407 -14 q 175 84 258 -14 q 92 359 92 182 q 175 635 92 538 q 407 732 258 732 q 639 635 557 732 q 722 359 722 538 q 639 84 722 182 q 407 -14 557 -14 m 407 115 q 529 179 486 115 q 572 359 572 243 q 529 540 572 477 q 407 604 486 604 q 284 540 328 604 q 241 359 241 477 q 284 179 241 243 q 407 115 328 115 m 543 607 l 509 719 l 550 726 q 677 911 677 747 l 819 911 q 584 614 819 653 l 543 607 z "},"ớ":{"ha":814,"x_min":92,"x_max":819,"o":"m 407 -14 q 175 84 258 -14 q 92 359 92 182 q 175 635 92 538 q 407 732 258 732 q 639 635 557 732 q 722 359 722 538 q 639 84 722 182 q 407 -14 557 -14 m 407 115 q 529 179 486 115 q 572 359 572 243 q 529 540 572 477 q 407 604 486 604 q 284 540 328 604 q 241 359 241 477 q 284 179 241 243 q 407 115 328 115 m 543 607 l 509 719 l 550 726 q 677 911 677 747 l 819 911 q 584 614 819 653 l 543 607 m 338 846 l 454 1104 l 597 1104 l 469 846 l 338 846 z "},"ợ":{"ha":814,"x_min":92,"x_max":819,"o":"m 407 -14 q 175 84 258 -14 q 92 359 92 182 q 175 635 92 538 q 407 732 258 732 q 639 635 557 732 q 722 359 722 538 q 639 84 722 182 q 407 -14 557 -14 m 407 115 q 529 179 486 115 q 572 359 572 243 q 529 540 572 477 q 407 604 486 604 q 284 540 328 604 q 241 359 241 477 q 284 179 241 243 q 407 115 328 115 m 543 607 l 509 719 l 550 726 q 677 911 677 747 l 819 911 q 584 614 819 653 l 543 607 m 407 -285 q 343 -258 370 -285 q 316 -194 316 -231 q 343 -130 316 -156 q 407 -103 370 -103 q 471 -130 445 -103 q 498 -194 498 -156 q 471 -258 498 -231 q 407 -285 445 -285 z "},"ờ":{"ha":814,"x_min":92,"x_max":819,"o":"m 407 -14 q 175 84 258 -14 q 92 359 92 182 q 175 635 92 538 q 407 732 258 732 q 639 635 557 732 q 722 359 722 538 q 639 84 722 182 q 407 -14 557 -14 m 407 115 q 529 179 486 115 q 572 359 572 243 q 529 540 572 477 q 407 604 486 604 q 284 540 328 604 q 241 359 241 477 q 284 179 241 243 q 407 115 328 115 m 543 607 l 509 719 l 550 726 q 677 911 677 747 l 819 911 q 584 614 819 653 l 543 607 m 355 846 l 227 1104 l 370 1104 l 486 846 l 355 846 z "},"ở":{"ha":814,"x_min":92,"x_max":819,"o":"m 407 -14 q 175 84 258 -14 q 92 359 92 182 q 175 635 92 538 q 407 732 258 732 q 639 635 557 732 q 722 359 722 538 q 639 84 722 182 q 407 -14 557 -14 m 407 115 q 529 179 486 115 q 572 359 572 243 q 529 540 572 477 q 407 604 486 604 q 284 540 328 604 q 241 359 241 477 q 284 179 241 243 q 407 115 328 115 m 543 607 l 509 719 l 550 726 q 677 911 677 747 l 819 911 q 584 614 819 653 l 543 607 m 354 846 l 354 871 q 372 928 354 907 q 409 967 391 949 q 427 1007 427 985 q 415 1035 427 1025 q 385 1045 404 1045 q 300 1016 335 1045 l 255 1097 q 315 1134 276 1120 q 399 1147 355 1147 q 501 1112 463 1147 q 539 1017 539 1076 q 527 964 539 984 q 499 929 515 944 q 471 896 484 913 q 459 852 459 879 l 459 846 l 354 846 z "},"ỡ":{"ha":814,"x_min":92,"x_max":819,"o":"m 407 -14 q 175 84 258 -14 q 92 359 92 182 q 175 635 92 538 q 407 732 258 732 q 639 635 557 732 q 722 359 722 538 q 639 84 722 182 q 407 -14 557 -14 m 407 115 q 529 179 486 115 q 572 359 572 243 q 529 540 572 477 q 407 604 486 604 q 284 540 328 604 q 241 359 241 477 q 284 179 241 243 q 407 115 328 115 m 543 607 l 509 719 l 550 726 q 677 911 677 747 l 819 911 q 584 614 819 653 l 543 607 m 166 831 l 166 879 q 309 1048 166 1048 q 359 1040 336 1048 q 409 1019 383 1031 q 467 991 443 1002 q 508 981 491 981 q 545 1024 545 981 l 545 1085 l 661 1085 l 661 1031 q 534 868 661 868 q 487 876 515 868 q 423 902 459 884 q 378 925 401 913 q 334 936 356 936 q 284 886 284 936 l 284 831 l 166 831 z "},"ő":{"ha":814,"x_min":92,"x_max":722,"o":"m 407 -14 q 175 84 258 -14 q 92 359 92 182 q 175 635 92 538 q 407 732 258 732 q 639 635 557 732 q 722 359 722 538 q 639 84 722 182 q 407 -14 557 -14 m 407 115 q 529 179 486 115 q 572 359 572 243 q 529 540 572 477 q 407 604 486 604 q 284 540 328 604 q 241 359 241 477 q 284 179 241 243 q 407 115 328 115 m 454 846 l 555 1104 l 706 1104 l 591 846 l 454 846 m 196 846 l 298 1104 l 448 1104 l 333 846 l 196 846 z "},"ō":{"ha":814,"x_min":92,"x_max":722,"o":"m 407 -14 q 175 84 258 -14 q 92 359 92 182 q 175 635 92 538 q 407 732 258 732 q 639 635 557 732 q 722 359 722 538 q 639 84 722 182 q 407 -14 557 -14 m 407 115 q 529 179 486 115 q 572 359 572 243 q 529 540 572 477 q 407 604 486 604 q 284 540 328 604 q 241 359 241 477 q 284 179 241 243 q 407 115 328 115 m 115 846 l 115 974 l 699 974 l 699 846 l 115 846 z "},"ǫ":{"ha":814,"x_min":92,"x_max":722,"o":"m 454 -288 q 333 -253 376 -288 q 291 -157 291 -219 q 368 -27 291 -53 l 368 -12 q 164 97 237 1 q 92 359 92 193 q 175 635 92 538 q 407 732 258 732 q 639 635 557 732 q 722 359 722 538 q 671 130 722 220 q 525 5 620 39 q 466 -18 497 -5 q 414 -54 435 -31 q 393 -114 393 -76 q 408 -153 393 -132 q 471 -174 424 -174 q 527 -166 496 -174 l 515 -281 q 454 -288 480 -288 m 407 115 q 529 179 486 115 q 572 359 572 243 q 529 540 572 477 q 407 604 486 604 q 284 540 328 604 q 241 359 241 477 q 284 179 241 243 q 407 115 328 115 z "},"ø":{"ha":814,"x_min":92,"x_max":722,"o":"m 204 -91 l 133 -40 l 192 66 q 92 359 92 163 q 175 635 92 538 q 407 732 258 732 q 547 705 486 732 l 608 812 l 686 768 l 621 654 q 722 359 722 556 q 639 84 722 182 q 407 -14 557 -14 q 264 16 326 -14 l 204 -91 m 241 359 q 269 205 241 266 l 481 585 q 407 604 449 604 q 284 540 328 604 q 241 359 241 477 m 407 115 q 529 179 486 115 q 572 359 572 243 q 544 515 572 454 l 330 135 q 407 115 363 115 z "},"ǿ":{"ha":814,"x_min":92,"x_max":722,"o":"m 204 -91 l 133 -40 l 192 66 q 92 359 92 163 q 175 635 92 538 q 407 732 258 732 q 547 705 486 732 l 608 812 l 686 768 l 621 654 q 722 359 722 556 q 639 84 722 182 q 407 -14 557 -14 q 264 16 326 -14 l 204 -91 m 241 359 q 269 205 241 266 l 481 585 q 407 604 449 604 q 284 540 328 604 q 241 359 241 477 m 407 115 q 529 179 486 115 q 572 359 572 243 q 544 515 572 454 l 330 135 q 407 115 363 115 m 338 846 l 454 1104 l 597 1104 l 469 846 l 338 846 z "},"õ":{"ha":814,"x_min":92,"x_max":722,"o":"m 407 -14 q 175 84 258 -14 q 92 359 92 182 q 175 635 92 538 q 407 732 258 732 q 639 635 557 732 q 722 359 722 538 q 639 84 722 182 q 407 -14 557 -14 m 407 115 q 529 179 486 115 q 572 359 572 243 q 529 540 572 477 q 407 604 486 604 q 284 540 328 604 q 241 359 241 477 q 284 179 241 243 q 407 115 328 115 m 166 831 l 166 879 q 309 1048 166 1048 q 359 1040 336 1048 q 409 1019 383 1031 q 467 991 443 1002 q 508 981 491 981 q 545 1024 545 981 l 545 1085 l 661 1085 l 661 1031 q 534 868 661 868 q 487 876 515 868 q 423 902 459 884 q 378 925 401 913 q 334 936 356 936 q 284 886 284 936 l 284 831 l 166 831 z "},"œ":{"ha":814,"x_min":14,"x_max":796,"o":"m 247 -14 q 14 359 14 -14 q 247 732 14 732 q 418 605 368 732 q 589 732 473 732 q 742 642 688 732 q 796 388 796 552 q 795 340 796 365 q 792 296 794 316 l 481 296 q 543 155 494 205 q 669 106 591 106 q 750 115 707 106 l 768 -1 q 710 -10 741 -7 q 652 -14 680 -14 q 423 127 493 -14 q 247 -14 374 -14 m 574 606 q 503 557 526 606 q 477 399 479 508 l 673 399 q 649 557 673 508 q 574 606 626 606 m 247 115 q 345 359 345 115 q 247 604 345 604 q 137 359 137 604 q 247 115 137 115 z "},"p":{"ha":814,"x_min":114,"x_max":749,"o":"m 114 -312 l 114 719 l 244 719 l 256 589 l 271 589 q 461 732 290 732 q 674 633 599 732 q 749 353 749 534 q 674 81 749 176 q 463 -14 599 -14 q 330 18 381 -14 q 271 111 279 50 l 258 111 l 258 -312 l 114 -312 m 441 610 q 258 404 258 610 l 258 231 q 439 109 258 109 q 606 353 606 109 q 563 543 606 476 q 441 610 520 610 z "},"þ":{"ha":814,"x_min":114,"x_max":749,"o":"m 114 -312 l 114 1017 l 258 1017 l 258 589 l 271 589 q 461 732 290 732 q 674 633 599 732 q 749 353 749 534 q 674 81 749 176 q 463 -14 599 -14 q 330 18 381 -14 q 271 111 279 50 l 258 111 l 258 -312 l 114 -312 m 441 610 q 258 404 258 610 l 258 231 q 439 109 258 109 q 606 353 606 109 q 563 543 606 476 q 441 610 520 610 z "},"q":{"ha":814,"x_min":60,"x_max":694,"o":"m 346 -14 q 135 81 210 -14 q 60 353 60 176 q 135 633 60 534 q 347 732 210 732 q 537 589 519 732 l 553 589 l 564 719 l 694 719 l 694 -312 l 551 -312 l 551 111 l 537 111 q 479 18 530 50 q 346 -14 427 -14 m 202 353 q 369 109 202 109 q 551 231 551 109 l 551 404 q 368 610 551 610 q 245 543 288 610 q 202 353 202 476 z "},"r":{"ha":814,"x_min":54,"x_max":781,"o":"m 54 0 l 54 118 l 214 118 l 214 601 l 81 601 l 81 719 l 331 719 l 355 534 l 372 534 q 570 732 384 732 q 731 669 681 732 q 781 463 781 605 l 639 463 q 615 576 639 541 q 540 610 592 610 q 403 532 448 610 q 358 309 358 454 l 358 118 l 534 118 l 534 0 l 54 0 z "},"ŕ":{"ha":814,"x_min":54,"x_max":781,"o":"m 54 0 l 54 118 l 214 118 l 214 601 l 81 601 l 81 719 l 331 719 l 355 534 l 372 534 q 570 732 384 732 q 731 669 681 732 q 781 463 781 605 l 639 463 q 615 576 639 541 q 540 610 592 610 q 403 532 448 610 q 358 309 358 454 l 358 118 l 534 118 l 534 0 l 54 0 m 338 846 l 454 1104 l 597 1104 l 469 846 l 338 846 z "},"ř":{"ha":814,"x_min":54,"x_max":781,"o":"m 54 0 l 54 118 l 214 118 l 214 601 l 81 601 l 81 719 l 331 719 l 355 534 l 372 534 q 570 732 384 732 q 731 669 681 732 q 781 463 781 605 l 639 463 q 615 576 639 541 q 540 610 592 610 q 403 532 448 610 q 358 309 358 454 l 358 118 l 534 118 l 534 0 l 54 0 m 349 846 l 186 1104 l 330 1104 l 407 951 l 484 1104 l 628 1104 l 465 846 l 349 846 z "},"ŗ":{"ha":814,"x_min":54,"x_max":781,"o":"m 54 0 l 54 118 l 214 118 l 214 601 l 81 601 l 81 719 l 331 719 l 355 534 l 372 534 q 570 732 384 732 q 731 669 681 732 q 781 463 781 605 l 639 463 q 615 576 639 541 q 540 610 592 610 q 403 532 448 610 q 358 309 358 454 l 358 118 l 534 118 l 534 0 l 54 0 m 166 -326 l 218 -95 l 369 -95 l 290 -326 l 166 -326 z "},"s":{"ha":814,"x_min":106,"x_max":708,"o":"m 351 -14 q 212 -9 270 -14 q 106 7 154 -4 l 122 137 q 248 121 193 126 q 351 115 302 115 q 510 137 460 115 q 559 205 559 158 q 542 253 559 237 q 488 278 524 269 l 323 320 q 166 387 216 347 q 117 509 117 427 q 207 680 117 627 q 499 732 298 732 q 689 719 598 732 l 674 594 q 577 602 619 600 q 495 604 535 604 q 320 583 374 604 q 266 515 266 562 q 288 470 266 484 q 357 445 311 456 l 490 412 q 655 340 603 385 q 708 208 708 294 q 623 39 708 92 q 351 -14 538 -14 z "},"ś":{"ha":814,"x_min":106,"x_max":708,"o":"m 351 -14 q 212 -9 270 -14 q 106 7 154 -4 l 122 137 q 248 121 193 126 q 351 115 302 115 q 510 137 460 115 q 559 205 559 158 q 542 253 559 237 q 488 278 524 269 l 323 320 q 166 387 216 347 q 117 509 117 427 q 207 680 117 627 q 499 732 298 732 q 689 719 598 732 l 674 594 q 577 602 619 600 q 495 604 535 604 q 320 583 374 604 q 266 515 266 562 q 288 470 266 484 q 357 445 311 456 l 490 412 q 655 340 603 385 q 708 208 708 294 q 623 39 708 92 q 351 -14 538 -14 m 359 846 l 474 1104 l 618 1104 l 489 846 l 359 846 z "},"š":{"ha":814,"x_min":106,"x_max":708,"o":"m 351 -14 q 212 -9 270 -14 q 106 7 154 -4 l 122 137 q 248 121 193 126 q 351 115 302 115 q 510 137 460 115 q 559 205 559 158 q 542 253 559 237 q 488 278 524 269 l 323 320 q 166 387 216 347 q 117 509 117 427 q 207 680 117 627 q 499 732 298 732 q 689 719 598 732 l 674 594 q 577 602 619 600 q 495 604 535 604 q 320 583 374 604 q 266 515 266 562 q 288 470 266 484 q 357 445 311 456 l 490 412 q 655 340 603 385 q 708 208 708 294 q 623 39 708 92 q 351 -14 538 -14 m 369 846 l 206 1104 l 350 1104 l 427 951 l 505 1104 l 648 1104 l 486 846 l 369 846 z "},"ş":{"ha":814,"x_min":106,"x_max":708,"o":"m 351 -14 q 212 -9 270 -14 q 106 7 154 -4 l 122 137 q 248 121 193 126 q 351 115 302 115 q 510 137 460 115 q 559 205 559 158 q 542 253 559 237 q 488 278 524 269 l 323 320 q 166 387 216 347 q 117 509 117 427 q 207 680 117 627 q 499 732 298 732 q 689 719 598 732 l 674 594 q 577 602 619 600 q 495 604 535 604 q 320 583 374 604 q 266 515 266 562 q 288 470 266 484 q 357 445 311 456 l 490 412 q 655 340 603 385 q 708 208 708 294 q 623 39 708 92 q 351 -14 538 -14 m 304 -326 l 304 -224 q 432 -175 432 -224 q 322 -129 432 -129 l 379 33 l 465 8 l 444 -68 q 561 -181 561 -92 q 304 -326 561 -326 z "},"ŝ":{"ha":814,"x_min":106,"x_max":708,"o":"m 351 -14 q 212 -9 270 -14 q 106 7 154 -4 l 122 137 q 248 121 193 126 q 351 115 302 115 q 510 137 460 115 q 559 205 559 158 q 542 253 559 237 q 488 278 524 269 l 323 320 q 166 387 216 347 q 117 509 117 427 q 207 680 117 627 q 499 732 298 732 q 689 719 598 732 l 674 594 q 577 602 619 600 q 495 604 535 604 q 320 583 374 604 q 266 515 266 562 q 288 470 266 484 q 357 445 311 456 l 490 412 q 655 340 603 385 q 708 208 708 294 q 623 39 708 92 q 351 -14 538 -14 m 206 846 l 369 1104 l 486 1104 l 648 846 l 505 846 l 427 1000 l 350 846 l 206 846 z "},"ș":{"ha":814,"x_min":106,"x_max":708,"o":"m 351 -14 q 212 -9 270 -14 q 106 7 154 -4 l 122 137 q 248 121 193 126 q 351 115 302 115 q 510 137 460 115 q 559 205 559 158 q 542 253 559 237 q 488 278 524 269 l 323 320 q 166 387 216 347 q 117 509 117 427 q 207 680 117 627 q 499 732 298 732 q 689 719 598 732 l 674 594 q 577 602 619 600 q 495 604 535 604 q 320 583 374 604 q 266 515 266 562 q 288 470 266 484 q 357 445 311 456 l 490 412 q 655 340 603 385 q 708 208 708 294 q 623 39 708 92 q 351 -14 538 -14 m 288 -326 l 340 -95 l 491 -95 l 412 -326 l 288 -326 z "},"ß":{"ha":814,"x_min":46,"x_max":789,"o":"m 46 437 l 46 556 l 151 556 l 151 726 q 231 951 151 871 q 457 1031 311 1031 q 635 976 572 1031 q 698 821 698 921 q 687 742 698 773 q 661 688 677 711 q 629 642 645 665 q 604 592 616 617 q 591 529 591 568 q 613 467 591 496 q 665 406 635 438 q 723 348 694 379 q 770 280 751 317 q 789 194 789 242 q 728 41 789 95 q 555 -14 667 -14 q 459 -8 501 -14 q 384 7 417 -3 l 400 137 q 488 121 450 127 q 555 115 526 115 q 640 191 640 115 q 615 273 640 241 q 557 332 591 305 q 503 381 530 355 q 459 440 477 406 q 442 522 442 473 q 459 605 442 570 q 493 672 476 641 q 531 736 513 702 q 549 821 549 771 q 524 880 549 859 q 453 902 499 901 q 336 858 377 902 q 294 732 294 813 l 294 0 l 151 0 l 151 437 l 46 437 z "},"ſ":{"ha":814,"x_min":46,"x_max":762,"o":"m 286 0 l 286 437 l 46 437 l 46 556 l 286 556 l 286 658 q 606 1031 286 1031 q 762 1017 688 1031 l 747 892 q 668 900 703 898 q 602 902 634 902 q 430 665 430 902 l 430 0 l 286 0 z "},"t":{"ha":814,"x_min":41,"x_max":719,"o":"m 530 -14 q 294 54 367 -14 q 221 271 221 122 l 221 601 l 41 601 l 41 719 l 221 719 l 221 936 l 365 936 l 365 719 l 692 719 l 692 601 l 365 601 l 365 278 q 407 154 365 193 q 544 115 448 115 q 616 119 578 115 q 703 129 654 123 l 719 3 q 626 -9 671 -5 q 530 -14 581 -14 z "},"ŧ":{"ha":814,"x_min":41,"x_max":719,"o":"m 41 336 l 41 454 l 221 454 l 221 601 l 41 601 l 41 719 l 221 719 l 221 936 l 365 936 l 365 719 l 692 719 l 692 601 l 365 601 l 365 454 l 692 454 l 692 336 l 365 336 l 365 278 q 407 154 365 193 q 544 115 448 115 q 616 119 578 115 q 703 129 654 123 l 719 3 q 626 -9 671 -5 q 530 -14 581 -14 q 294 54 367 -14 q 221 271 221 122 l 221 336 l 41 336 z "},"ť":{"ha":814,"x_min":41,"x_max":719,"o":"m 463 806 l 496 1063 l 640 1063 l 579 806 l 463 806 m 530 -14 q 294 54 367 -14 q 221 271 221 122 l 221 601 l 41 601 l 41 719 l 221 719 l 221 936 l 365 936 l 365 719 l 692 719 l 692 601 l 365 601 l 365 278 q 407 154 365 193 q 544 115 448 115 q 616 119 578 115 q 703 129 654 123 l 719 3 q 626 -9 671 -5 q 530 -14 581 -14 z "},"ţ":{"ha":814,"x_min":41,"x_max":719,"o":"m 530 -14 q 294 54 367 -14 q 221 271 221 122 l 221 601 l 41 601 l 41 719 l 221 719 l 221 936 l 365 936 l 365 719 l 692 719 l 692 601 l 365 601 l 365 278 q 407 154 365 193 q 544 115 448 115 q 616 119 578 115 q 703 129 654 123 l 719 3 q 626 -9 671 -5 q 530 -14 581 -14 m 335 -326 l 335 -224 q 463 -175 463 -224 q 353 -129 463 -129 l 410 33 l 495 8 l 475 -68 q 591 -181 591 -92 q 335 -326 591 -326 z "},"ț":{"ha":814,"x_min":41,"x_max":719,"o":"m 530 -14 q 294 54 367 -14 q 221 271 221 122 l 221 601 l 41 601 l 41 719 l 221 719 l 221 936 l 365 936 l 365 719 l 692 719 l 692 601 l 365 601 l 365 278 q 407 154 365 193 q 544 115 448 115 q 616 119 578 115 q 703 129 654 123 l 719 3 q 626 -9 671 -5 q 530 -14 581 -14 m 319 -326 l 371 -95 l 522 -95 l 442 -326 l 319 -326 z "},"u":{"ha":814,"x_min":106,"x_max":785,"o":"m 343 -14 q 168 54 230 -14 q 106 244 106 121 l 106 719 l 250 719 l 250 244 q 285 149 250 182 q 384 115 320 115 q 503 165 463 115 q 543 332 543 215 l 543 719 l 686 719 l 686 130 l 785 115 l 785 0 l 555 -7 l 545 138 l 532 138 q 465 26 515 65 q 343 -14 416 -14 z "},"ú":{"ha":814,"x_min":106,"x_max":785,"o":"m 343 -14 q 168 54 230 -14 q 106 244 106 121 l 106 719 l 250 719 l 250 244 q 285 149 250 182 q 384 115 320 115 q 503 165 463 115 q 543 332 543 215 l 543 719 l 686 719 l 686 130 l 785 115 l 785 0 l 555 -7 l 545 138 l 532 138 q 465 26 515 65 q 343 -14 416 -14 m 332 846 l 447 1104 l 591 1104 l 462 846 l 332 846 z "},"ŭ":{"ha":814,"x_min":106,"x_max":785,"o":"m 343 -14 q 168 54 230 -14 q 106 244 106 121 l 106 719 l 250 719 l 250 244 q 285 149 250 182 q 384 115 320 115 q 503 165 463 115 q 543 332 543 215 l 543 719 l 686 719 l 686 130 l 785 115 l 785 0 l 555 -7 l 545 138 l 532 138 q 465 26 515 65 q 343 -14 416 -14 m 400 840 q 233 897 292 840 q 174 1058 174 954 l 174 1087 l 292 1087 l 292 1058 q 320 965 292 998 q 400 932 349 932 q 480 965 452 932 q 508 1058 508 998 l 508 1087 l 627 1087 l 627 1058 q 567 897 627 954 q 400 840 508 840 z "},"û":{"ha":814,"x_min":106,"x_max":785,"o":"m 343 -14 q 168 54 230 -14 q 106 244 106 121 l 106 719 l 250 719 l 250 244 q 285 149 250 182 q 384 115 320 115 q 503 165 463 115 q 543 332 543 215 l 543 719 l 686 719 l 686 130 l 785 115 l 785 0 l 555 -7 l 545 138 l 532 138 q 465 26 515 65 q 343 -14 416 -14 m 179 846 l 342 1104 l 458 1104 l 621 846 l 477 846 l 400 1000 l 323 846 l 179 846 z "},"ü":{"ha":814,"x_min":106,"x_max":785,"o":"m 343 -14 q 168 54 230 -14 q 106 244 106 121 l 106 719 l 250 719 l 250 244 q 285 149 250 182 q 384 115 320 115 q 503 165 463 115 q 543 332 543 215 l 543 719 l 686 719 l 686 130 l 785 115 l 785 0 l 555 -7 l 545 138 l 532 138 q 465 26 515 65 q 343 -14 416 -14 m 544 840 q 480 866 507 840 q 453 930 453 893 q 480 995 453 968 q 544 1021 507 1021 q 608 995 582 1021 q 635 930 635 968 q 608 866 635 893 q 544 840 582 840 m 259 840 q 195 866 222 840 q 168 930 168 893 q 195 995 168 968 q 259 1021 222 1021 q 323 995 297 1021 q 350 930 350 968 q 323 866 350 893 q 259 840 297 840 z "},"ụ":{"ha":814,"x_min":106,"x_max":785,"o":"m 343 -14 q 168 54 230 -14 q 106 244 106 121 l 106 719 l 250 719 l 250 244 q 285 149 250 182 q 384 115 320 115 q 503 165 463 115 q 543 332 543 215 l 543 719 l 686 719 l 686 130 l 785 115 l 785 0 l 555 -7 l 545 138 l 532 138 q 465 26 515 65 q 343 -14 416 -14 m 387 -285 q 322 -258 349 -285 q 296 -194 296 -231 q 322 -130 296 -156 q 387 -103 349 -103 q 451 -130 425 -103 q 477 -194 477 -156 q 451 -258 477 -231 q 387 -285 425 -285 z "},"ù":{"ha":814,"x_min":106,"x_max":785,"o":"m 343 -14 q 168 54 230 -14 q 106 244 106 121 l 106 719 l 250 719 l 250 244 q 285 149 250 182 q 384 115 320 115 q 503 165 463 115 q 543 332 543 215 l 543 719 l 686 719 l 686 130 l 785 115 l 785 0 l 555 -7 l 545 138 l 532 138 q 465 26 515 65 q 343 -14 416 -14 m 349 846 l 220 1104 l 363 1104 l 479 846 l 349 846 z "},"ủ":{"ha":814,"x_min":106,"x_max":785,"o":"m 343 -14 q 168 54 230 -14 q 106 244 106 121 l 106 719 l 250 719 l 250 244 q 285 149 250 182 q 384 115 320 115 q 503 165 463 115 q 543 332 543 215 l 543 719 l 686 719 l 686 130 l 785 115 l 785 0 l 555 -7 l 545 138 l 532 138 q 465 26 515 65 q 343 -14 416 -14 m 347 846 l 347 871 q 366 928 347 907 q 402 967 384 949 q 420 1007 420 985 q 408 1035 420 1025 q 378 1045 397 1045 q 294 1016 328 1045 l 248 1097 q 309 1134 269 1120 q 392 1147 348 1147 q 494 1112 456 1147 q 532 1017 532 1076 q 520 964 532 984 q 492 929 508 944 q 465 896 477 913 q 452 852 452 879 l 452 846 l 347 846 z "},"ư":{"ha":814,"x_min":106,"x_max":840,"o":"m 343 -14 q 168 54 230 -14 q 106 244 106 121 l 106 719 l 250 719 l 250 244 q 285 149 250 182 q 384 115 320 115 q 503 165 463 115 q 543 332 543 215 l 543 719 l 543 719 l 570 726 q 662 785 633 741 q 690 911 690 829 l 840 911 q 803 744 840 809 q 686 642 766 678 l 686 130 l 785 115 l 785 0 l 555 -7 l 545 138 l 532 138 q 465 26 515 65 q 343 -14 416 -14 z "},"ứ":{"ha":814,"x_min":106,"x_max":840,"o":"m 343 -14 q 168 54 230 -14 q 106 244 106 121 l 106 719 l 250 719 l 250 244 q 285 149 250 182 q 384 115 320 115 q 503 165 463 115 q 543 332 543 215 l 543 719 l 543 719 l 570 726 q 662 785 633 741 q 690 911 690 829 l 840 911 q 803 744 840 809 q 686 642 766 678 l 686 130 l 785 115 l 785 0 l 555 -7 l 545 138 l 532 138 q 465 26 515 65 q 343 -14 416 -14 m 332 846 l 447 1104 l 591 1104 l 462 846 l 332 846 z "},"ự":{"ha":814,"x_min":106,"x_max":840,"o":"m 343 -14 q 168 54 230 -14 q 106 244 106 121 l 106 719 l 250 719 l 250 244 q 285 149 250 182 q 384 115 320 115 q 503 165 463 115 q 543 332 543 215 l 543 719 l 543 719 l 570 726 q 662 785 633 741 q 690 911 690 829 l 840 911 q 803 744 840 809 q 686 642 766 678 l 686 130 l 785 115 l 785 0 l 555 -7 l 545 138 l 532 138 q 465 26 515 65 q 343 -14 416 -14 m 387 -285 q 322 -258 349 -285 q 296 -194 296 -231 q 322 -130 296 -156 q 387 -103 349 -103 q 451 -130 425 -103 q 477 -194 477 -156 q 451 -258 477 -231 q 387 -285 425 -285 z "},"ừ":{"ha":814,"x_min":106,"x_max":840,"o":"m 343 -14 q 168 54 230 -14 q 106 244 106 121 l 106 719 l 250 719 l 250 244 q 285 149 250 182 q 384 115 320 115 q 503 165 463 115 q 543 332 543 215 l 543 719 l 543 719 l 570 726 q 662 785 633 741 q 690 911 690 829 l 840 911 q 803 744 840 809 q 686 642 766 678 l 686 130 l 785 115 l 785 0 l 555 -7 l 545 138 l 532 138 q 465 26 515 65 q 343 -14 416 -14 m 349 846 l 220 1104 l 363 1104 l 479 846 l 349 846 z "},"ử":{"ha":814,"x_min":106,"x_max":840,"o":"m 343 -14 q 168 54 230 -14 q 106 244 106 121 l 106 719 l 250 719 l 250 244 q 285 149 250 182 q 384 115 320 115 q 503 165 463 115 q 543 332 543 215 l 543 719 l 543 719 l 570 726 q 662 785 633 741 q 690 911 690 829 l 840 911 q 803 744 840 809 q 686 642 766 678 l 686 130 l 785 115 l 785 0 l 555 -7 l 545 138 l 532 138 q 465 26 515 65 q 343 -14 416 -14 m 347 846 l 347 871 q 366 928 347 907 q 402 967 384 949 q 420 1007 420 985 q 408 1035 420 1025 q 378 1045 397 1045 q 294 1016 328 1045 l 248 1097 q 309 1134 269 1120 q 392 1147 348 1147 q 494 1112 456 1147 q 532 1017 532 1076 q 520 964 532 984 q 492 929 508 944 q 465 896 477 913 q 452 852 452 879 l 452 846 l 347 846 z "},"ữ":{"ha":814,"x_min":106,"x_max":840,"o":"m 343 -14 q 168 54 230 -14 q 106 244 106 121 l 106 719 l 250 719 l 250 244 q 285 149 250 182 q 384 115 320 115 q 503 165 463 115 q 543 332 543 215 l 543 719 l 543 719 l 570 726 q 662 785 633 741 q 690 911 690 829 l 840 911 q 803 744 840 809 q 686 642 766 678 l 686 130 l 785 115 l 785 0 l 555 -7 l 545 138 l 532 138 q 465 26 515 65 q 343 -14 416 -14 m 159 831 l 159 879 q 302 1048 159 1048 q 353 1040 329 1048 q 402 1019 376 1031 q 460 991 436 1002 q 501 981 484 981 q 538 1024 538 981 l 538 1085 l 654 1085 l 654 1031 q 527 868 654 868 q 480 876 508 868 q 416 902 452 884 q 372 925 394 913 q 328 936 349 936 q 277 886 277 936 l 277 831 l 159 831 z "},"ű":{"ha":814,"x_min":106,"x_max":785,"o":"m 343 -14 q 168 54 230 -14 q 106 244 106 121 l 106 719 l 250 719 l 250 244 q 285 149 250 182 q 384 115 320 115 q 503 165 463 115 q 543 332 543 215 l 543 719 l 686 719 l 686 130 l 785 115 l 785 0 l 555 -7 l 545 138 l 532 138 q 465 26 515 65 q 343 -14 416 -14 m 447 846 l 549 1104 l 699 1104 l 584 846 l 447 846 m 189 846 l 291 1104 l 441 1104 l 326 846 l 189 846 z "},"ū":{"ha":814,"x_min":106,"x_max":785,"o":"m 343 -14 q 168 54 230 -14 q 106 244 106 121 l 106 719 l 250 719 l 250 244 q 285 149 250 182 q 384 115 320 115 q 503 165 463 115 q 543 332 543 215 l 543 719 l 686 719 l 686 130 l 785 115 l 785 0 l 555 -7 l 545 138 l 532 138 q 465 26 515 65 q 343 -14 416 -14 m 109 846 l 109 974 l 692 974 l 692 846 l 109 846 z "},"ų":{"ha":814,"x_min":106,"x_max":785,"o":"m 343 -14 q 168 54 230 -14 q 106 244 106 121 l 106 719 l 250 719 l 250 244 q 285 149 250 182 q 384 115 320 115 q 503 165 463 115 q 543 332 543 215 l 543 719 l 686 719 l 686 130 l 785 115 l 785 0 l 762 -1 q 665 -34 699 -5 q 631 -114 631 -64 q 709 -174 631 -174 q 765 -166 733 -174 l 753 -281 q 692 -288 722 -288 q 571 -250 614 -288 q 529 -144 529 -212 q 549 -66 529 -98 q 606 -24 569 -35 l 606 -5 l 555 -7 l 545 138 l 532 138 q 465 26 515 65 q 343 -14 416 -14 z "},"ů":{"ha":814,"x_min":106,"x_max":785,"o":"m 343 -14 q 168 54 230 -14 q 106 244 106 121 l 106 719 l 250 719 l 250 244 q 285 149 250 182 q 384 115 320 115 q 503 165 463 115 q 543 332 543 215 l 543 719 l 686 719 l 686 130 l 785 115 l 785 0 l 555 -7 l 545 138 l 532 138 q 465 26 515 65 q 343 -14 416 -14 m 400 812 q 281 851 323 812 q 239 959 239 889 q 281 1067 239 1029 q 400 1105 323 1105 q 519 1067 477 1105 q 562 959 562 1029 q 519 851 562 889 q 400 812 477 812 m 400 891 q 465 959 465 891 q 400 1027 465 1027 q 335 959 335 1027 q 400 891 335 891 z "},"ũ":{"ha":814,"x_min":106,"x_max":785,"o":"m 343 -14 q 168 54 230 -14 q 106 244 106 121 l 106 719 l 250 719 l 250 244 q 285 149 250 182 q 384 115 320 115 q 503 165 463 115 q 543 332 543 215 l 543 719 l 686 719 l 686 130 l 785 115 l 785 0 l 555 -7 l 545 138 l 532 138 q 465 26 515 65 q 343 -14 416 -14 m 159 831 l 159 879 q 302 1048 159 1048 q 353 1040 329 1048 q 402 1019 376 1031 q 460 991 436 1002 q 501 981 484 981 q 538 1024 538 981 l 538 1085 l 654 1085 l 654 1031 q 527 868 654 868 q 480 876 508 868 q 416 902 452 884 q 372 925 394 913 q 328 936 349 936 q 277 886 277 936 l 277 831 l 159 831 z "},"v":{"ha":814,"x_min":54,"x_max":760,"o":"m 315 0 l 54 719 l 208 719 l 404 122 l 416 122 l 606 719 l 760 719 l 506 0 l 315 0 z "},"w":{"ha":814,"x_min":47,"x_max":766,"o":"m 129 0 l 47 719 l 183 719 l 237 109 l 250 109 l 334 719 l 466 719 l 551 109 l 563 109 l 624 719 l 766 719 l 665 0 l 488 0 l 404 571 l 396 571 l 312 0 l 129 0 z "},"ẃ":{"ha":814,"x_min":47,"x_max":766,"o":"m 129 0 l 47 719 l 183 719 l 237 109 l 250 109 l 334 719 l 466 719 l 551 109 l 563 109 l 624 719 l 766 719 l 665 0 l 488 0 l 404 571 l 396 571 l 312 0 l 129 0 m 332 846 l 447 1104 l 591 1104 l 462 846 l 332 846 z "},"ŵ":{"ha":814,"x_min":47,"x_max":766,"o":"m 129 0 l 47 719 l 183 719 l 237 109 l 250 109 l 334 719 l 466 719 l 551 109 l 563 109 l 624 719 l 766 719 l 665 0 l 488 0 l 404 571 l 396 571 l 312 0 l 129 0 m 179 846 l 342 1104 l 458 1104 l 621 846 l 477 846 l 400 1000 l 323 846 l 179 846 z "},"ẅ":{"ha":814,"x_min":47,"x_max":766,"o":"m 129 0 l 47 719 l 183 719 l 237 109 l 250 109 l 334 719 l 466 719 l 551 109 l 563 109 l 624 719 l 766 719 l 665 0 l 488 0 l 404 571 l 396 571 l 312 0 l 129 0 m 544 840 q 480 866 507 840 q 453 930 453 893 q 480 995 453 968 q 544 1021 507 1021 q 608 995 582 1021 q 635 930 635 968 q 608 866 635 893 q 544 840 582 840 m 259 840 q 195 866 222 840 q 168 930 168 893 q 195 995 168 968 q 259 1021 222 1021 q 323 995 297 1021 q 350 930 350 968 q 323 866 350 893 q 259 840 297 840 z "},"ẁ":{"ha":814,"x_min":47,"x_max":766,"o":"m 129 0 l 47 719 l 183 719 l 237 109 l 250 109 l 334 719 l 466 719 l 551 109 l 563 109 l 624 719 l 766 719 l 665 0 l 488 0 l 404 571 l 396 571 l 312 0 l 129 0 m 349 846 l 220 1104 l 363 1104 l 479 846 l 349 846 z "},"x":{"ha":814,"x_min":72,"x_max":742,"o":"m 72 0 l 329 355 l 72 719 l 235 719 l 407 467 l 579 719 l 742 719 l 481 361 l 742 0 l 579 0 l 404 250 l 235 0 l 72 0 z "},"y":{"ha":814,"x_min":37,"x_max":756,"o":"m 323 0 l 37 719 l 186 719 l 421 109 l 431 109 l 607 719 l 756 719 l 549 64 q 457 -144 508 -65 q 338 -262 407 -222 q 173 -312 269 -301 l 51 -326 l 44 -197 l 157 -183 q 299 -131 243 -173 q 393 0 355 -89 l 323 0 z "},"ý":{"ha":814,"x_min":37,"x_max":756,"o":"m 323 0 l 37 719 l 186 719 l 421 109 l 431 109 l 607 719 l 756 719 l 549 64 q 457 -144 508 -65 q 338 -262 407 -222 q 173 -312 269 -301 l 51 -326 l 44 -197 l 157 -183 q 299 -131 243 -173 q 393 0 355 -89 l 323 0 m 349 846 l 464 1104 l 608 1104 l 479 846 l 349 846 z "},"ŷ":{"ha":814,"x_min":37,"x_max":756,"o":"m 323 0 l 37 719 l 186 719 l 421 109 l 431 109 l 607 719 l 756 719 l 549 64 q 457 -144 508 -65 q 338 -262 407 -222 q 173 -312 269 -301 l 51 -326 l 44 -197 l 157 -183 q 299 -131 243 -173 q 393 0 355 -89 l 323 0 m 196 846 l 359 1104 l 475 1104 l 638 846 l 494 846 l 417 1000 l 340 846 l 196 846 z "},"ÿ":{"ha":814,"x_min":37,"x_max":756,"o":"m 323 0 l 37 719 l 186 719 l 421 109 l 431 109 l 607 719 l 756 719 l 549 64 q 457 -144 508 -65 q 338 -262 407 -222 q 173 -312 269 -301 l 51 -326 l 44 -197 l 157 -183 q 299 -131 243 -173 q 393 0 355 -89 l 323 0 m 561 840 q 497 866 524 840 q 470 930 470 893 q 497 995 470 968 q 561 1021 524 1021 q 625 995 599 1021 q 652 930 652 968 q 625 866 652 893 q 561 840 599 840 m 276 840 q 212 866 239 840 q 185 930 185 893 q 212 995 185 968 q 276 1021 239 1021 q 340 995 314 1021 q 367 930 367 968 q 340 866 367 893 q 276 840 314 840 z "},"ỵ":{"ha":814,"x_min":37,"x_max":756,"o":"m 323 0 l 37 719 l 186 719 l 421 109 l 431 109 l 607 719 l 756 719 l 549 64 q 457 -144 508 -65 q 338 -262 407 -222 q 173 -312 269 -301 l 51 -326 l 44 -197 l 157 -183 q 299 -131 243 -173 q 393 0 355 -89 l 323 0 m 641 -285 q 577 -258 604 -285 q 550 -194 550 -231 q 577 -130 550 -156 q 641 -103 604 -103 q 705 -130 679 -103 q 732 -194 732 -156 q 705 -258 732 -231 q 641 -285 679 -285 z "},"ỳ":{"ha":814,"x_min":37,"x_max":756,"o":"m 323 0 l 37 719 l 186 719 l 421 109 l 431 109 l 607 719 l 756 719 l 549 64 q 457 -144 508 -65 q 338 -262 407 -222 q 173 -312 269 -301 l 51 -326 l 44 -197 l 157 -183 q 299 -131 243 -173 q 393 0 355 -89 l 323 0 m 366 846 l 237 1104 l 380 1104 l 496 846 l 366 846 z "},"ỷ":{"ha":814,"x_min":37,"x_max":756,"o":"m 323 0 l 37 719 l 186 719 l 421 109 l 431 109 l 607 719 l 756 719 l 549 64 q 457 -144 508 -65 q 338 -262 407 -222 q 173 -312 269 -301 l 51 -326 l 44 -197 l 157 -183 q 299 -131 243 -173 q 393 0 355 -89 l 323 0 m 364 846 l 364 871 q 382 928 364 907 q 419 967 401 949 q 437 1007 437 985 q 425 1035 437 1025 q 395 1045 414 1045 q 311 1016 345 1045 l 265 1097 q 326 1134 286 1120 q 409 1147 365 1147 q 511 1112 473 1147 q 549 1017 549 1076 q 537 964 549 984 q 509 929 525 944 q 481 896 494 913 q 469 852 469 879 l 469 846 l 364 846 z "},"ȳ":{"ha":814,"x_min":37,"x_max":756,"o":"m 323 0 l 37 719 l 186 719 l 421 109 l 431 109 l 607 719 l 756 719 l 549 64 q 457 -144 508 -65 q 338 -262 407 -222 q 173 -312 269 -301 l 51 -326 l 44 -197 l 157 -183 q 299 -131 243 -173 q 393 0 355 -89 l 323 0 m 125 846 l 125 974 l 709 974 l 709 846 l 125 846 z "},"ỹ":{"ha":814,"x_min":37,"x_max":756,"o":"m 323 0 l 37 719 l 186 719 l 421 109 l 431 109 l 607 719 l 756 719 l 549 64 q 457 -144 508 -65 q 338 -262 407 -222 q 173 -312 269 -301 l 51 -326 l 44 -197 l 157 -183 q 299 -131 243 -173 q 393 0 355 -89 l 323 0 m 176 831 l 176 879 q 319 1048 176 1048 q 370 1040 346 1048 q 419 1019 393 1031 q 477 991 453 1002 q 518 981 501 981 q 555 1024 555 981 l 555 1085 l 671 1085 l 671 1031 q 544 868 671 868 q 497 876 525 868 q 433 902 469 884 q 389 925 411 913 q 345 936 366 936 q 294 886 294 936 l 294 831 l 176 831 z "},"z":{"ha":814,"x_min":109,"x_max":703,"o":"m 109 0 l 109 119 l 527 600 l 109 600 l 109 719 l 689 719 l 689 600 l 281 119 l 703 119 l 703 0 l 109 0 z "},"ź":{"ha":814,"x_min":109,"x_max":703,"o":"m 109 0 l 109 119 l 527 600 l 109 600 l 109 719 l 689 719 l 689 600 l 281 119 l 703 119 l 703 0 l 109 0 m 338 846 l 454 1104 l 597 1104 l 469 846 l 338 846 z "},"ž":{"ha":814,"x_min":109,"x_max":703,"o":"m 109 0 l 109 119 l 527 600 l 109 600 l 109 719 l 689 719 l 689 600 l 281 119 l 703 119 l 703 0 l 109 0 m 349 846 l 186 1104 l 330 1104 l 407 951 l 484 1104 l 628 1104 l 465 846 l 349 846 z "},"ż":{"ha":814,"x_min":109,"x_max":703,"o":"m 109 0 l 109 119 l 527 600 l 109 600 l 109 719 l 689 719 l 689 600 l 281 119 l 703 119 l 703 0 l 109 0 m 406 840 q 341 866 368 840 q 315 930 315 893 q 341 995 315 968 q 406 1021 368 1021 q 470 995 444 1021 q 496 930 496 968 q 470 866 496 893 q 406 840 444 840 z "},"ª":{"ha":814,"x_min":193,"x_max":674,"o":"m 340 524 q 231 558 270 524 q 193 655 193 593 q 239 764 193 726 q 372 802 286 802 q 489 798 441 802 l 489 799 q 370 875 489 873 l 245 878 l 252 977 l 362 976 q 543 927 484 975 q 602 786 602 878 l 602 617 l 674 608 l 674 532 l 505 528 l 502 606 l 484 606 q 436 545 467 566 q 340 524 405 524 m 370 616 q 459 638 429 616 q 489 684 489 660 l 489 718 l 375 718 q 311 667 311 718 q 370 616 311 616 z "},"º":{"ha":814,"x_min":175,"x_max":639,"o":"m 407 522 q 239 585 302 522 q 175 749 175 647 q 239 915 175 852 q 407 977 302 977 q 575 915 512 977 q 639 749 639 852 q 575 585 639 647 q 407 522 512 522 m 407 624 q 484 659 455 624 q 513 749 513 693 q 484 841 513 806 q 407 876 455 876 q 330 841 359 876 q 300 749 300 806 q 330 659 300 693 q 407 624 359 624 z "},"ⁿ":{"ha":814,"x_min":196,"x_max":609,"o":"m 196 536 l 196 968 l 315 968 l 322 890 l 331 890 q 363 954 334 932 q 439 977 391 977 q 565 935 520 977 q 609 818 609 893 l 609 536 l 483 536 l 483 801 q 405 886 483 886 q 323 789 323 886 l 323 536 l 196 536 z "},"А":{"ha":814,"x_min":31,"x_max":783,"o":"m 31 0 l 309 963 l 505 963 l 783 0 l 641 0 l 578 235 l 236 235 l 173 0 l 31 0 m 401 846 l 271 363 l 543 363 l 413 846 l 401 846 z "},"Б":{"ha":814,"x_min":109,"x_max":760,"o":"m 109 0 l 109 963 l 689 963 l 689 834 l 244 834 l 244 587 l 468 587 q 622 551 556 587 q 723 448 687 514 q 760 294 760 382 q 723 139 760 205 q 622 37 687 73 q 468 0 556 0 l 109 0 m 429 458 l 244 458 l 244 129 l 429 129 q 566 174 514 129 q 617 294 617 220 q 566 413 617 368 q 429 458 514 458 z "},"В":{"ha":814,"x_min":109,"x_max":769,"o":"m 109 0 l 109 963 l 395 963 q 621 900 541 963 q 701 719 701 836 q 641 578 701 631 q 471 514 581 526 l 471 506 q 691 441 613 504 q 769 264 769 378 q 693 69 769 138 q 477 0 617 0 l 109 0 m 361 834 l 244 834 l 244 573 l 370 573 q 509 607 460 573 q 559 705 559 642 q 507 801 559 768 q 361 834 456 834 m 429 444 l 244 444 l 244 129 l 438 129 q 577 170 528 129 q 627 285 627 211 q 575 402 627 361 q 429 444 524 444 z "},"Г":{"ha":814,"x_min":122,"x_max":739,"o":"m 122 0 l 122 963 l 739 963 l 739 834 l 258 834 l 258 0 l 122 0 z "},"Ѓ":{"ha":814,"x_min":122,"x_max":739,"o":"m 122 0 l 122 963 l 739 963 l 739 834 l 258 834 l 258 0 l 122 0 m 332 1072 l 481 1241 l 672 1241 l 496 1072 l 332 1072 z "},"Ґ":{"ha":814,"x_min":122,"x_max":753,"o":"m 122 0 l 122 963 l 617 963 l 617 1173 l 753 1173 l 753 834 l 258 834 l 258 0 l 122 0 z "},"Д":{"ha":814,"x_min":20,"x_max":793,"o":"m 20 -197 l 20 129 l 83 129 q 116 215 102 161 q 141 335 131 269 q 156 467 151 401 q 161 589 161 534 l 161 963 l 708 963 l 708 129 l 793 129 l 793 -197 l 658 -197 l 658 0 l 156 0 l 156 -197 l 20 -197 m 286 593 q 282 475 286 539 q 269 345 277 410 q 246 223 260 280 q 214 129 233 167 l 572 129 l 572 834 l 286 834 l 286 593 z "},"Е":{"ha":814,"x_min":109,"x_max":746,"o":"m 109 0 l 109 963 l 746 963 l 746 834 l 244 834 l 244 547 l 624 547 l 624 418 l 244 418 l 244 129 l 746 129 l 746 0 l 109 0 z "},"Ѐ":{"ha":814,"x_min":109,"x_max":746,"o":"m 109 0 l 109 963 l 746 963 l 746 834 l 244 834 l 244 547 l 624 547 l 624 418 l 244 418 l 244 129 l 746 129 l 746 0 l 109 0 m 359 1072 l 182 1241 l 374 1241 l 523 1072 l 359 1072 z "},"Ё":{"ha":814,"x_min":109,"x_max":746,"o":"m 109 0 l 109 963 l 746 963 l 746 834 l 244 834 l 244 547 l 624 547 l 624 418 l 244 418 l 244 129 l 746 129 l 746 0 l 109 0 m 568 1072 q 504 1098 531 1072 q 477 1162 477 1125 q 504 1227 477 1200 q 568 1253 531 1253 q 633 1227 606 1253 q 659 1162 659 1200 q 633 1098 659 1125 q 568 1072 606 1072 m 283 1072 q 219 1098 246 1072 q 193 1162 193 1125 q 219 1227 193 1200 q 283 1253 246 1253 q 348 1227 321 1253 q 374 1162 374 1200 q 348 1098 374 1125 q 283 1072 321 1072 z "},"Ж":{"ha":814,"x_min":18,"x_max":795,"o":"m 18 -3 l 18 125 l 34 125 q 57 136 47 125 q 67 169 67 146 l 67 370 q 96 438 67 414 q 172 465 125 463 l 189 467 l 189 496 l 172 498 q 96 526 125 501 q 67 593 67 550 l 67 794 q 57 827 67 817 q 34 838 47 838 l 18 838 l 18 966 l 79 966 q 168 935 138 966 q 197 833 197 903 l 197 608 q 204 558 197 570 q 250 546 211 546 l 349 546 l 349 963 l 465 963 l 465 546 l 564 546 q 610 558 604 546 q 616 608 616 570 l 616 833 q 647 935 616 903 q 734 966 677 966 l 795 966 l 795 838 l 780 838 q 757 827 767 838 q 747 794 747 817 l 747 593 q 718 526 747 550 q 642 498 689 501 l 618 496 l 618 467 l 642 465 q 718 438 689 463 q 747 370 747 414 l 747 169 q 757 136 747 146 q 780 125 767 125 l 795 125 l 795 -3 l 734 -3 q 647 28 677 -3 q 616 130 616 60 l 616 355 q 610 405 616 393 q 564 417 604 417 l 465 417 l 465 0 l 349 0 l 349 417 l 250 417 q 204 405 211 417 q 197 355 197 393 l 197 130 q 168 28 197 60 q 79 -3 138 -3 l 18 -3 z "},"З":{"ha":814,"x_min":43,"x_max":727,"o":"m 357 -14 q 43 102 165 -14 l 141 198 q 245 131 197 151 q 360 111 292 111 q 526 156 466 111 q 586 281 586 201 q 524 400 586 359 q 362 442 463 442 l 260 442 l 245 570 q 480 610 410 575 q 551 718 551 646 q 500 812 551 774 q 332 851 450 851 q 272 846 307 851 q 203 836 237 842 q 144 824 169 829 l 127 949 q 178 960 143 954 q 254 971 212 966 q 334 977 296 977 q 606 911 522 977 q 689 741 689 846 q 634 603 689 656 q 455 520 580 549 l 455 512 q 589 480 527 509 q 689 398 651 452 q 727 267 727 345 q 682 119 727 182 q 554 21 637 56 q 357 -14 471 -14 z "},"И":{"ha":814,"x_min":100,"x_max":713,"o":"m 100 0 l 100 963 l 231 963 l 231 237 l 244 237 l 570 963 l 713 963 l 713 0 l 583 0 l 583 726 l 570 726 l 244 0 l 100 0 z "},"Й":{"ha":814,"x_min":100,"x_max":713,"o":"m 100 0 l 100 963 l 231 963 l 231 237 l 244 237 l 570 963 l 713 963 l 713 0 l 583 0 l 583 726 l 570 726 l 244 0 l 100 0 m 407 1065 q 235 1116 296 1065 q 174 1261 174 1168 l 306 1261 q 332 1179 306 1202 q 407 1157 359 1157 q 481 1179 455 1157 q 508 1261 508 1202 l 640 1261 q 579 1116 640 1168 q 407 1065 518 1065 z "},"Ѝ":{"ha":814,"x_min":100,"x_max":713,"o":"m 100 0 l 100 963 l 231 963 l 231 237 l 244 237 l 570 963 l 713 963 l 713 0 l 583 0 l 583 726 l 570 726 l 244 0 l 100 0 m 338 1072 l 162 1241 l 353 1241 l 503 1072 l 338 1072 z "},"К":{"ha":814,"x_min":95,"x_max":766,"o":"m 95 0 l 95 963 l 231 963 l 231 546 l 370 546 q 462 573 437 546 q 500 661 487 600 l 526 785 q 559 893 540 854 q 614 949 579 932 q 707 966 648 966 l 753 966 l 753 838 l 721 838 q 677 821 690 838 q 656 767 665 805 l 620 623 q 573 527 605 563 q 460 491 542 491 l 426 491 l 426 472 l 460 472 q 582 436 547 472 q 633 340 618 400 l 669 196 q 690 142 678 158 q 734 125 703 125 l 766 125 l 766 -3 l 714 -3 q 621 14 655 -3 q 566 70 586 31 q 532 178 547 110 l 507 302 q 468 390 494 363 q 370 417 441 417 l 231 417 l 231 0 l 95 0 z "},"Ќ":{"ha":814,"x_min":95,"x_max":766,"o":"m 95 0 l 95 963 l 231 963 l 231 546 l 370 546 q 462 573 437 546 q 500 661 487 600 l 526 785 q 559 893 540 854 q 614 949 579 932 q 707 966 648 966 l 753 966 l 753 838 l 721 838 q 677 821 690 838 q 656 767 665 805 l 620 623 q 573 527 605 563 q 460 491 542 491 l 426 491 l 426 472 l 460 472 q 582 436 547 472 q 633 340 618 400 l 669 196 q 690 142 678 158 q 734 125 703 125 l 766 125 l 766 -3 l 714 -3 q 621 14 655 -3 q 566 70 586 31 q 532 178 547 110 l 507 302 q 468 390 494 363 q 370 417 441 417 l 231 417 l 231 0 l 95 0 m 318 1072 l 467 1241 l 659 1241 l 482 1072 l 318 1072 z "},"Л":{"ha":814,"x_min":25,"x_max":719,"o":"m 25 1 l 25 130 q 126 164 96 130 q 165 264 157 199 q 172 416 172 328 l 172 963 l 719 963 l 719 0 l 583 0 l 583 834 l 298 834 l 298 421 q 290 246 298 323 q 256 114 282 168 q 174 30 229 59 q 25 1 119 1 z "},"М":{"ha":814,"x_min":87,"x_max":727,"o":"m 87 0 l 87 963 l 292 963 l 401 549 l 412 549 l 522 963 l 727 963 l 727 0 l 597 0 l 597 792 l 579 792 l 469 393 l 345 393 l 235 792 l 217 792 l 217 0 l 87 0 z "},"Н":{"ha":814,"x_min":95,"x_max":719,"o":"m 95 0 l 95 963 l 231 963 l 231 544 l 583 544 l 583 963 l 719 963 l 719 0 l 583 0 l 583 415 l 231 415 l 231 0 l 95 0 z "},"О":{"ha":814,"x_min":52,"x_max":762,"o":"m 407 -14 q 52 475 52 -14 q 407 977 52 977 q 762 475 762 977 q 407 -14 762 -14 m 407 111 q 620 475 620 111 q 407 852 620 852 q 194 475 194 852 q 407 111 194 111 z "},"П":{"ha":814,"x_min":95,"x_max":719,"o":"m 95 0 l 95 963 l 719 963 l 719 0 l 583 0 l 583 834 l 231 834 l 231 0 l 95 0 z "},"Р":{"ha":814,"x_min":109,"x_max":760,"o":"m 109 0 l 109 963 l 392 963 q 664 878 568 963 q 760 637 760 793 q 664 387 760 476 q 392 298 568 298 l 244 298 l 244 0 l 109 0 m 392 834 l 244 834 l 244 427 l 392 427 q 558 479 499 427 q 617 624 617 530 q 558 779 617 724 q 392 834 499 834 z "},"С":{"ha":814,"x_min":65,"x_max":779,"o":"m 514 -14 q 65 483 65 -14 q 178 847 65 718 q 498 977 292 977 q 671 945 597 977 q 779 855 745 913 l 679 755 q 601 827 648 802 q 499 852 554 852 q 289 758 368 852 q 210 490 210 663 q 537 111 210 111 q 731 152 635 111 l 762 33 q 514 -14 644 -14 z "},"Т":{"ha":814,"x_min":54,"x_max":760,"o":"m 339 0 l 339 834 l 54 834 l 54 963 l 760 963 l 760 834 l 475 834 l 475 0 l 339 0 z "},"У":{"ha":814,"x_min":65,"x_max":798,"o":"m 138 0 l 138 129 q 277 141 221 129 q 372 186 334 154 l 65 963 l 214 963 l 452 346 l 463 346 l 648 963 l 798 963 l 561 244 q 475 97 526 151 q 344 22 425 44 q 138 0 264 0 z "},"Ў":{"ha":814,"x_min":65,"x_max":798,"o":"m 138 0 l 138 129 q 277 141 221 129 q 372 186 334 154 l 65 963 l 214 963 l 452 346 l 463 346 l 648 963 l 798 963 l 561 244 q 475 97 526 151 q 344 22 425 44 q 138 0 264 0 m 441 1065 q 269 1116 330 1065 q 208 1261 208 1168 l 340 1261 q 366 1179 340 1202 q 441 1157 393 1157 q 515 1179 489 1157 q 542 1261 542 1202 l 674 1261 q 613 1116 674 1168 q 441 1065 552 1065 z "},"Ф":{"ha":814,"x_min":45,"x_max":769,"o":"m 349 -14 l 349 98 q 45 481 45 127 q 349 879 45 848 l 349 990 l 464 990 l 464 879 q 769 481 769 849 q 464 98 769 127 l 464 -14 l 349 -14 m 633 481 q 457 766 633 736 l 457 210 q 633 481 633 239 m 180 481 q 355 210 180 239 l 355 766 q 180 481 180 736 z "},"Х":{"ha":814,"x_min":45,"x_max":770,"o":"m 45 0 l 340 477 l 45 963 l 201 963 l 408 594 l 614 963 l 770 963 l 475 477 l 770 0 l 614 0 l 408 361 l 201 0 l 45 0 z "},"Ч":{"ha":814,"x_min":95,"x_max":719,"o":"m 393 370 q 165 447 236 370 q 95 695 95 524 l 95 963 l 231 963 l 231 695 q 269 545 231 592 q 393 498 308 498 l 583 498 l 583 963 l 719 963 l 719 0 l 583 0 l 583 370 l 393 370 z "},"Ц":{"ha":814,"x_min":95,"x_max":787,"o":"m 95 0 l 95 963 l 231 963 l 231 129 l 576 129 l 576 963 l 712 963 l 712 129 l 787 129 l 787 -197 l 651 -197 l 651 0 l 95 0 z "},"Ш":{"ha":814,"x_min":87,"x_max":727,"o":"m 87 0 l 87 963 l 222 963 l 222 122 l 349 122 l 349 963 l 465 963 l 465 122 l 591 122 l 591 963 l 727 963 l 727 0 l 87 0 z "},"Щ":{"ha":814,"x_min":87,"x_max":787,"o":"m 87 0 l 87 963 l 222 963 l 222 122 l 349 122 l 349 963 l 465 963 l 465 122 l 591 122 l 591 963 l 727 963 l 727 122 l 787 122 l 787 -197 l 651 -197 l 651 0 l 87 0 z "},"Џ":{"ha":814,"x_min":95,"x_max":719,"o":"m 95 0 l 95 963 l 231 963 l 231 129 l 583 129 l 583 963 l 719 963 l 719 0 l 475 0 l 475 -197 l 339 -197 l 339 0 l 95 0 z "},"Ь":{"ha":814,"x_min":109,"x_max":769,"o":"m 109 0 l 109 963 l 244 963 l 244 621 l 477 621 q 631 583 566 621 q 733 474 696 544 q 769 311 769 404 q 733 147 769 217 q 631 39 696 77 q 477 0 566 0 l 109 0 m 438 492 l 244 492 l 244 129 l 438 129 q 575 179 524 129 q 627 311 627 229 q 575 443 627 393 q 438 492 524 492 z "},"Ъ":{"ha":814,"x_min":0,"x_max":769,"o":"m 170 0 l 170 834 l 0 834 l 0 963 l 305 963 l 305 621 l 477 621 q 631 583 566 621 q 733 474 696 544 q 769 311 769 404 q 733 147 769 217 q 631 39 696 77 q 477 0 566 0 l 170 0 m 438 492 l 305 492 l 305 129 l 438 129 q 575 179 524 129 q 627 311 627 229 q 575 443 627 393 q 438 492 524 492 z "},"Ы":{"ha":814,"x_min":87,"x_max":727,"o":"m 87 0 l 87 963 l 222 963 l 222 621 l 308 621 q 456 536 400 621 q 511 311 511 451 q 456 85 511 170 q 308 0 400 0 l 87 0 m 598 0 l 598 963 l 727 963 l 727 0 l 598 0 m 269 492 l 222 492 l 222 129 l 269 129 q 351 179 320 129 q 382 311 382 229 q 351 443 382 393 q 269 492 320 492 z "},"Љ":{"ha":814,"x_min":36,"x_max":762,"o":"m 36 0 l 36 129 q 125 166 101 129 q 149 302 149 203 l 149 963 l 505 963 l 505 621 l 586 621 q 714 536 666 621 q 762 311 762 451 q 714 85 762 170 q 586 0 666 0 l 383 0 l 383 834 l 258 834 l 258 307 q 237 122 258 189 q 169 27 217 55 q 36 0 121 0 m 547 492 l 505 492 l 505 129 l 547 129 q 610 179 586 129 q 633 311 633 229 q 610 443 633 393 q 547 492 586 492 z "},"Њ":{"ha":814,"x_min":87,"x_max":762,"o":"m 87 0 l 87 963 l 222 963 l 222 544 l 369 544 l 369 963 l 505 963 l 505 621 l 579 621 q 712 536 662 621 q 762 311 762 451 q 712 85 762 170 q 579 0 662 0 l 369 0 l 369 415 l 222 415 l 222 0 l 87 0 m 540 492 l 505 492 l 505 129 l 540 129 q 608 179 582 129 q 633 311 633 229 q 608 443 633 393 q 540 492 582 492 z "},"Ѕ":{"ha":814,"x_min":87,"x_max":720,"o":"m 374 -14 q 87 39 210 -14 l 105 176 q 249 128 180 144 q 385 111 319 111 q 572 245 572 111 q 484 372 572 332 l 317 448 q 166 555 218 492 q 113 712 113 618 q 195 907 113 838 q 425 977 276 977 q 585 948 515 977 q 720 855 655 920 l 625 759 q 523 830 570 808 q 425 852 476 852 q 302 818 346 852 q 258 719 258 785 q 283 643 258 672 q 357 590 309 613 l 498 524 q 661 410 606 473 q 717 248 717 347 q 374 -14 717 -14 z "},"Є":{"ha":814,"x_min":65,"x_max":779,"o":"m 514 -14 q 65 483 65 -14 q 178 847 65 718 q 498 977 292 977 q 671 945 597 977 q 779 855 745 913 l 679 755 q 601 827 648 802 q 499 852 554 852 q 300 775 378 852 q 207 557 222 699 l 585 557 l 585 429 l 206 429 q 537 111 232 111 q 731 152 635 111 l 762 33 q 514 -14 644 -14 z "},"Э":{"ha":814,"x_min":12,"x_max":749,"o":"m 323 -14 q 152 16 231 -14 q 12 102 72 45 l 109 198 q 217 130 170 149 q 330 111 264 111 q 524 195 452 111 q 607 429 596 279 l 226 429 l 226 557 l 604 557 q 507 775 587 699 q 286 852 427 852 q 90 811 185 852 l 58 930 q 309 977 176 977 q 637 850 526 977 q 749 484 749 723 q 642 119 749 251 q 323 -14 536 -14 z "},"І":{"ha":814,"x_min":114,"x_max":700,"o":"m 114 0 l 114 129 l 338 129 l 338 834 l 114 834 l 114 963 l 700 963 l 700 834 l 474 834 l 474 129 l 700 129 l 700 0 l 114 0 z "},"Ї":{"ha":814,"x_min":114,"x_max":700,"o":"m 114 0 l 114 129 l 338 129 l 338 834 l 114 834 l 114 963 l 700 963 l 700 834 l 474 834 l 474 129 l 700 129 l 700 0 l 114 0 m 548 1072 q 484 1098 511 1072 q 457 1162 457 1125 q 484 1227 457 1200 q 548 1253 511 1253 q 612 1227 586 1253 q 639 1162 639 1200 q 612 1098 639 1125 q 548 1072 586 1072 m 263 1072 q 199 1098 226 1072 q 172 1162 172 1125 q 199 1227 172 1200 q 263 1253 226 1253 q 328 1227 301 1253 q 354 1162 354 1200 q 328 1098 354 1125 q 263 1072 301 1072 z "},"Ј":{"ha":814,"x_min":65,"x_max":727,"o":"m 396 -14 q 151 75 237 -14 q 65 323 65 163 l 201 323 q 253 165 201 221 q 399 109 304 109 q 542 157 492 109 q 591 296 591 206 l 591 834 l 339 834 l 339 963 l 727 963 l 727 296 q 640 67 727 149 q 396 -14 552 -14 z "},"Ћ":{"ha":814,"x_min":14,"x_max":720,"o":"m 163 0 l 163 834 l 14 834 l 14 963 l 570 963 l 570 834 l 298 834 l 298 590 l 441 590 q 654 513 588 590 q 720 264 720 436 l 720 0 l 585 0 l 585 264 q 551 414 585 368 q 441 461 517 461 l 298 461 l 298 0 l 163 0 z "},"Ю":{"ha":814,"x_min":54,"x_max":762,"o":"m 54 0 l 54 963 l 183 963 l 183 544 l 290 544 q 353 874 297 771 q 526 977 410 977 q 706 858 650 977 q 762 475 762 739 q 706 102 762 218 q 526 -14 650 -14 q 352 88 408 -14 q 290 415 296 190 l 183 415 l 183 0 l 54 0 m 519 111 q 601 197 576 111 q 627 475 627 283 q 601 763 627 673 q 519 852 576 852 q 436 763 462 852 q 411 475 411 673 q 436 197 411 283 q 519 111 462 111 z "},"Я":{"ha":814,"x_min":49,"x_max":720,"o":"m 49 -3 l 49 125 l 71 125 q 119 139 98 125 q 153 200 140 152 l 177 288 q 236 387 199 365 q 322 410 273 410 l 336 410 l 336 427 q 253 438 298 429 q 168 473 208 448 q 102 547 127 498 q 76 675 76 595 q 161 888 76 813 q 396 963 247 963 l 720 963 l 720 0 l 585 0 l 585 359 l 404 359 q 331 334 351 355 q 300 272 311 313 l 266 134 q 211 34 250 71 q 78 -3 172 -3 l 49 -3 m 396 488 l 585 488 l 585 834 l 396 834 q 267 792 315 834 q 218 665 218 749 q 267 535 218 583 q 396 488 315 488 z "},"Ђ":{"ha":814,"x_min":14,"x_max":754,"o":"m 183 0 l 183 834 l 14 834 l 14 963 l 570 963 l 570 834 l 319 834 l 319 600 l 448 600 q 754 302 754 600 q 435 0 754 0 l 435 129 q 618 302 618 129 q 448 471 618 471 l 319 471 l 319 0 l 183 0 z "},"Ғ":{"ha":814,"x_min":-3,"x_max":739,"o":"m 122 0 l 122 397 l -3 397 l -3 526 l 122 526 l 122 963 l 739 963 l 739 834 l 258 834 l 258 526 l 480 526 l 480 397 l 258 397 l 258 0 l 122 0 z "},"Җ":{"ha":814,"x_min":18,"x_max":814,"o":"m 18 -3 l 18 125 l 34 125 q 57 136 47 125 q 67 169 67 146 l 67 370 q 96 438 67 414 q 172 465 125 463 l 195 467 l 195 496 l 172 498 q 96 526 125 501 q 67 593 67 550 l 67 794 q 57 827 67 817 q 34 838 47 838 l 18 838 l 18 966 l 79 966 q 168 935 138 966 q 197 833 197 903 l 197 608 q 202 558 197 570 q 237 546 208 546 l 322 546 l 322 963 l 437 963 l 437 546 l 523 546 q 557 558 553 546 q 562 608 562 570 l 562 833 q 592 935 562 903 q 680 966 623 966 l 741 966 l 741 838 l 726 838 q 703 827 713 838 q 692 794 692 817 l 692 593 q 664 526 692 550 q 588 498 635 501 l 558 496 l 558 467 l 588 465 q 664 438 635 463 q 692 370 692 414 l 692 172 q 703 139 692 149 q 726 129 713 129 l 814 129 l 814 -197 l 685 -197 l 685 -3 l 680 -3 q 592 28 623 -3 q 562 130 562 60 l 562 355 q 557 405 562 393 q 523 417 553 417 l 437 417 l 437 0 l 322 0 l 322 417 l 237 417 q 202 405 208 417 q 197 355 197 393 l 197 130 q 168 28 197 60 q 79 -3 138 -3 l 18 -3 z "},"Қ":{"ha":814,"x_min":95,"x_max":787,"o":"m 95 0 l 95 963 l 231 963 l 231 546 l 370 546 q 462 573 437 546 q 500 661 487 600 l 526 785 q 559 893 540 854 q 614 949 579 932 q 707 966 648 966 l 753 966 l 753 838 l 721 838 q 677 821 690 838 q 656 767 665 805 l 620 623 q 573 527 605 563 q 460 491 542 491 l 426 491 l 426 472 l 460 472 q 582 436 547 472 q 633 340 618 400 l 669 196 q 690 142 678 158 q 734 125 703 125 l 787 125 l 787 -197 l 658 -197 l 658 1 q 576 53 602 12 q 532 178 549 94 l 507 302 q 468 390 494 363 q 370 417 441 417 l 231 417 l 231 0 l 95 0 z "},"Ң":{"ha":814,"x_min":95,"x_max":787,"o":"m 95 0 l 95 963 l 231 963 l 231 544 l 583 544 l 583 963 l 719 963 l 719 129 l 787 129 l 787 -197 l 658 -197 l 658 0 l 583 0 l 583 415 l 231 415 l 231 0 l 95 0 z "},"Ү":{"ha":814,"x_min":17,"x_max":797,"o":"m 339 0 l 339 341 l 17 963 l 166 963 l 401 481 l 413 481 l 648 963 l 797 963 l 475 341 l 475 0 l 339 0 z "},"Ұ":{"ha":814,"x_min":17,"x_max":797,"o":"m 174 200 l 174 329 l 339 329 l 339 341 l 17 963 l 166 963 l 401 481 l 413 481 l 648 963 l 797 963 l 475 341 l 475 329 l 642 329 l 642 200 l 475 200 l 475 0 l 339 0 l 339 200 l 174 200 z "},"Ҳ":{"ha":814,"x_min":45,"x_max":787,"o":"m 45 0 l 340 477 l 45 963 l 201 963 l 408 594 l 614 963 l 770 963 l 475 477 l 690 129 l 787 129 l 787 -197 l 658 -197 l 658 0 l 614 0 l 408 361 l 201 0 l 45 0 z "},"Ҷ":{"ha":814,"x_min":95,"x_max":787,"o":"m 393 370 q 165 447 236 370 q 95 695 95 524 l 95 963 l 231 963 l 231 695 q 269 545 231 592 q 393 498 308 498 l 583 498 l 583 963 l 719 963 l 719 129 l 787 129 l 787 -197 l 658 -197 l 658 0 l 583 0 l 583 370 l 393 370 z "},"Һ":{"ha":814,"x_min":95,"x_max":719,"o":"m 95 0 l 95 963 l 231 963 l 231 593 l 420 593 q 648 516 578 593 q 719 268 719 439 l 719 0 l 583 0 l 583 268 q 545 418 583 371 q 420 465 506 465 l 231 465 l 231 0 l 95 0 z "},"Ӏ":{"ha":814,"x_min":114,"x_max":700,"o":"m 114 0 l 114 129 l 338 129 l 338 834 l 114 834 l 114 963 l 700 963 l 700 834 l 474 834 l 474 129 l 700 129 l 700 0 l 114 0 z "},"Ә":{"ha":814,"x_min":52,"x_max":762,"o":"m 407 -14 q 52 461 52 -14 q 52 502 52 482 q 54 541 53 522 l 617 541 q 339 852 594 852 q 133 825 229 852 l 114 945 q 339 977 220 977 q 762 475 762 977 q 407 -14 762 -14 m 407 111 q 618 412 601 111 l 195 412 q 407 111 210 111 z "},"Ӣ":{"ha":814,"x_min":100,"x_max":713,"o":"m 100 0 l 100 963 l 231 963 l 231 237 l 244 237 l 570 963 l 713 963 l 713 0 l 583 0 l 583 726 l 570 726 l 244 0 l 100 0 m 144 1072 l 144 1199 l 669 1199 l 669 1072 l 144 1072 z "},"Ө":{"ha":814,"x_min":52,"x_max":762,"o":"m 407 -14 q 52 475 52 -14 q 407 977 52 977 q 762 475 762 977 q 407 -14 762 -14 m 407 852 q 196 544 214 852 l 618 544 q 407 852 600 852 m 407 111 q 618 415 602 111 l 195 415 q 407 111 212 111 z "},"Ӯ":{"ha":814,"x_min":65,"x_max":798,"o":"m 138 0 l 138 129 q 277 141 221 129 q 372 186 334 154 l 65 963 l 214 963 l 452 346 l 463 346 l 648 963 l 798 963 l 561 244 q 475 97 526 151 q 344 22 425 44 q 138 0 264 0 m 178 1072 l 178 1199 l 703 1199 l 703 1072 l 178 1072 z "},"а":{"ha":814,"x_min":65,"x_max":785,"o":"m 315 -14 q 131 40 196 -14 q 65 194 65 94 q 148 369 65 308 q 384 430 231 430 q 526 413 465 430 l 526 452 q 476 557 526 524 q 326 593 425 591 l 153 598 l 167 726 l 312 724 q 577 647 490 721 q 663 430 663 572 l 663 130 l 785 115 l 785 0 l 555 -7 l 548 152 l 534 152 q 468 28 526 69 q 315 -14 410 -14 m 338 102 q 443 125 401 102 q 505 184 484 148 q 526 258 526 220 l 526 301 q 451 313 488 311 q 374 315 413 315 q 201 208 201 315 q 338 102 201 102 z "},"б":{"ha":814,"x_min":83,"x_max":735,"o":"m 419 -14 q 170 94 257 -14 q 83 397 83 201 l 83 477 q 170 786 83 681 q 450 924 258 891 l 700 966 l 707 838 l 487 800 q 332 754 389 784 q 251 675 275 725 q 227 547 227 625 l 227 480 l 243 480 q 326 596 264 555 q 479 637 389 637 q 668 554 601 637 q 735 319 735 471 q 652 74 735 161 q 419 -14 570 -14 m 420 111 q 546 165 501 111 q 590 319 590 220 q 545 462 590 412 q 418 513 500 513 q 279 466 328 513 q 231 332 231 419 q 420 111 231 111 z "},"в":{"ha":814,"x_min":114,"x_max":735,"o":"m 114 0 l 114 719 l 476 719 q 647 669 587 719 q 708 529 708 620 q 656 422 708 461 q 511 380 605 383 l 511 367 q 676 319 618 365 q 735 190 735 273 q 678 50 735 100 q 518 0 621 0 l 114 0 m 442 590 l 258 590 l 258 427 l 452 427 q 530 449 502 427 q 557 509 557 470 q 527 569 557 547 q 442 590 497 590 m 469 319 l 258 319 l 258 129 l 479 129 q 557 154 529 129 q 585 224 585 178 q 554 294 585 269 q 469 319 524 319 z "},"г":{"ha":814,"x_min":214,"x_max":726,"o":"m 214 0 l 214 719 l 726 719 l 726 590 l 358 590 l 358 0 l 214 0 z "},"ѓ":{"ha":814,"x_min":214,"x_max":726,"o":"m 214 0 l 214 719 l 726 719 l 726 590 l 358 590 l 358 0 l 214 0 m 366 846 l 481 1104 l 625 1104 l 496 846 l 366 846 z "},"ґ":{"ha":814,"x_min":214,"x_max":739,"o":"m 214 0 l 214 719 l 604 719 l 604 895 l 739 895 l 739 590 l 358 590 l 358 0 l 214 0 z "},"д":{"ha":814,"x_min":27,"x_max":766,"o":"m 27 -183 l 27 129 l 96 129 q 146 268 131 186 q 162 457 162 349 l 162 719 l 681 719 l 681 129 l 766 129 l 766 -183 l 631 -183 l 631 0 l 163 0 l 163 -183 l 27 -183 m 288 462 q 275 275 288 357 q 232 129 262 192 l 537 129 l 537 590 l 288 590 l 288 462 z "},"е":{"ha":814,"x_min":92,"x_max":722,"o":"m 476 -14 q 192 83 292 -14 q 92 361 92 180 q 177 635 92 537 q 416 732 262 732 q 642 644 562 732 q 722 388 722 556 q 718 296 722 338 l 232 296 q 317 159 251 205 q 492 113 384 113 q 581 118 537 113 q 669 132 624 123 l 686 5 q 570 -10 623 -7 q 476 -14 517 -14 m 418 606 q 285 554 334 606 q 227 406 235 502 l 591 406 q 545 554 591 503 q 418 606 499 606 z "},"ѐ":{"ha":814,"x_min":92,"x_max":722,"o":"m 476 -14 q 192 83 292 -14 q 92 361 92 180 q 177 635 92 537 q 416 732 262 732 q 642 644 562 732 q 722 388 722 556 q 718 296 722 338 l 232 296 q 317 159 251 205 q 492 113 384 113 q 581 118 537 113 q 669 132 624 123 l 686 5 q 570 -10 623 -7 q 476 -14 517 -14 m 418 606 q 285 554 334 606 q 227 406 235 502 l 591 406 q 545 554 591 503 q 418 606 499 606 m 369 846 l 240 1104 l 384 1104 l 499 846 l 369 846 z "},"ё":{"ha":814,"x_min":92,"x_max":722,"o":"m 476 -14 q 192 83 292 -14 q 92 361 92 180 q 177 635 92 537 q 416 732 262 732 q 642 644 562 732 q 722 388 722 556 q 718 296 722 338 l 232 296 q 317 159 251 205 q 492 113 384 113 q 581 118 537 113 q 669 132 624 123 l 686 5 q 570 -10 623 -7 q 476 -14 517 -14 m 418 606 q 285 554 334 606 q 227 406 235 502 l 591 406 q 545 554 591 503 q 418 606 499 606 m 564 840 q 500 866 527 840 q 473 930 473 893 q 500 995 473 968 q 564 1021 527 1021 q 629 995 602 1021 q 655 930 655 968 q 629 866 655 893 q 564 840 602 840 m 279 840 q 215 866 242 840 q 189 930 189 893 q 215 995 189 968 q 279 1021 242 1021 q 344 995 317 1021 q 370 930 370 968 q 344 866 370 893 q 279 840 317 840 z "},"ж":{"ha":814,"x_min":25,"x_max":789,"o":"m 25 -7 l 25 122 l 54 122 q 82 132 70 122 q 94 162 94 141 l 94 253 q 123 321 94 297 q 193 349 151 346 l 218 351 l 218 368 l 193 370 q 123 398 151 374 q 94 466 94 422 l 94 557 q 82 588 94 578 q 54 597 70 597 l 25 597 l 25 726 l 75 726 q 182 695 145 726 q 219 595 219 664 l 219 480 q 225 431 219 443 q 267 418 231 418 l 346 418 l 346 719 l 468 719 l 468 418 l 547 418 q 589 431 583 418 q 595 480 595 443 l 595 595 q 632 695 595 664 q 739 726 669 726 l 789 726 l 789 597 l 760 597 q 732 588 745 597 q 720 557 720 578 l 720 466 q 691 398 720 422 q 621 370 663 374 l 595 368 l 595 351 l 621 349 q 691 321 663 346 q 720 253 720 297 l 720 162 q 732 132 720 141 q 760 122 745 122 l 789 122 l 789 -7 l 739 -7 q 632 24 669 -7 q 595 123 595 55 l 595 239 q 589 288 595 276 q 547 300 583 300 l 468 300 l 468 0 l 346 0 l 346 300 l 267 300 q 225 288 231 300 q 219 239 219 276 l 219 123 q 182 24 219 55 q 75 -7 145 -7 l 25 -7 z "},"з":{"ha":814,"x_min":78,"x_max":703,"o":"m 377 -14 q 215 4 294 -14 q 78 75 135 22 l 147 175 q 259 125 196 140 q 372 111 321 111 q 505 137 456 111 q 553 207 553 163 q 499 291 553 263 q 308 318 444 318 l 279 318 l 272 429 l 310 429 q 450 440 404 429 q 511 472 496 451 q 526 524 526 494 q 470 587 526 566 q 331 608 415 608 q 248 603 284 608 q 153 593 211 599 l 136 715 q 230 727 186 722 q 346 732 275 732 q 586 688 497 732 q 675 547 675 644 q 629 445 675 492 q 495 387 584 398 l 495 373 q 703 197 703 342 q 614 44 703 102 q 377 -14 526 -14 z "},"и":{"ha":814,"x_min":114,"x_max":700,"o":"m 114 0 l 114 719 l 258 719 l 258 197 l 271 197 l 553 719 l 700 719 l 700 0 l 556 0 l 556 522 l 543 522 l 261 0 l 114 0 z "},"й":{"ha":814,"x_min":114,"x_max":700,"o":"m 114 0 l 114 719 l 258 719 l 258 197 l 271 197 l 553 719 l 700 719 l 700 0 l 556 0 l 556 522 l 543 522 l 261 0 l 114 0 m 407 840 q 229 901 286 840 q 172 1087 172 962 l 299 1087 q 323 969 299 1006 q 407 932 348 932 q 491 969 467 932 q 515 1087 515 1007 l 642 1087 q 585 901 642 962 q 407 840 528 840 z "},"ѝ":{"ha":814,"x_min":114,"x_max":700,"o":"m 114 0 l 114 719 l 258 719 l 258 197 l 271 197 l 553 719 l 700 719 l 700 0 l 556 0 l 556 522 l 543 522 l 261 0 l 114 0 m 355 846 l 227 1104 l 370 1104 l 486 846 l 355 846 z "},"к":{"ha":814,"x_min":114,"x_max":728,"o":"m 114 0 l 114 719 l 258 719 l 258 424 l 370 424 q 431 437 414 424 q 460 479 448 450 l 507 595 q 550 675 528 648 q 606 712 572 703 q 692 722 639 722 l 721 722 l 721 593 l 692 593 q 654 587 667 593 q 631 557 641 580 l 584 446 q 537 390 568 409 q 457 369 507 371 l 457 350 q 597 273 565 349 l 645 162 q 667 132 654 139 q 705 125 680 125 l 728 125 l 728 -3 l 699 -3 q 611 6 646 -3 q 552 44 576 16 q 507 123 528 71 l 460 239 q 431 282 448 269 q 370 295 414 295 l 258 295 l 258 0 l 114 0 z "},"ќ":{"ha":814,"x_min":114,"x_max":728,"o":"m 114 0 l 114 719 l 258 719 l 258 424 l 370 424 q 431 437 414 424 q 460 479 448 450 l 507 595 q 550 675 528 648 q 606 712 572 703 q 692 722 639 722 l 721 722 l 721 593 l 692 593 q 654 587 667 593 q 631 557 641 580 l 584 446 q 537 390 568 409 q 457 369 507 371 l 457 350 q 597 273 565 349 l 645 162 q 667 132 654 139 q 705 125 680 125 l 728 125 l 728 -3 l 699 -3 q 611 6 646 -3 q 552 44 576 16 q 507 123 528 71 l 460 239 q 431 282 448 269 q 370 295 414 295 l 258 295 l 258 0 l 114 0 m 332 846 l 447 1104 l 591 1104 l 462 846 l 332 846 z "},"л":{"ha":814,"x_min":43,"x_max":704,"o":"m 43 0 l 43 129 q 128 148 97 129 q 172 211 159 166 q 184 335 184 256 l 184 719 l 704 719 l 704 0 l 560 0 l 560 590 l 310 590 l 310 340 q 286 135 310 209 q 203 31 262 61 q 43 0 145 0 z "},"м":{"ha":814,"x_min":87,"x_max":727,"o":"m 87 0 l 87 719 l 285 719 l 401 305 l 412 305 l 529 719 l 727 719 l 727 0 l 590 0 l 590 548 l 572 548 l 463 149 l 351 149 l 241 548 l 224 548 l 224 0 l 87 0 z "},"н":{"ha":814,"x_min":114,"x_max":700,"o":"m 114 0 l 114 719 l 258 719 l 258 418 l 556 418 l 556 719 l 700 719 l 700 0 l 556 0 l 556 300 l 258 300 l 258 0 l 114 0 z "},"о":{"ha":814,"x_min":92,"x_max":722,"o":"m 407 -14 q 175 84 258 -14 q 92 359 92 182 q 175 635 92 538 q 407 732 258 732 q 639 635 557 732 q 722 359 722 538 q 639 84 722 182 q 407 -14 557 -14 m 407 115 q 529 179 486 115 q 572 359 572 243 q 529 540 572 477 q 407 604 486 604 q 284 540 328 604 q 241 359 241 477 q 284 179 241 243 q 407 115 328 115 z "},"п":{"ha":814,"x_min":114,"x_max":700,"o":"m 114 0 l 114 719 l 700 719 l 700 0 l 556 0 l 556 590 l 258 590 l 258 0 l 114 0 z "},"р":{"ha":814,"x_min":114,"x_max":749,"o":"m 114 -312 l 114 719 l 244 719 l 256 589 l 271 589 q 461 732 290 732 q 674 633 599 732 q 749 353 749 534 q 674 81 749 176 q 463 -14 599 -14 q 330 18 381 -14 q 271 111 279 50 l 258 111 l 258 -312 l 114 -312 m 441 610 q 258 404 258 610 l 258 231 q 439 109 258 109 q 606 353 606 109 q 563 543 606 476 q 441 610 520 610 z "},"с":{"ha":814,"x_min":92,"x_max":744,"o":"m 463 -14 q 189 83 286 -14 q 92 361 92 180 q 187 635 92 537 q 457 732 281 732 q 637 693 562 732 q 744 583 712 654 l 633 500 q 555 576 603 549 q 452 604 508 604 q 297 542 352 604 q 241 368 241 481 q 303 180 241 245 q 479 115 365 115 q 586 120 533 115 q 690 133 640 125 l 707 7 q 585 -9 648 -5 q 463 -14 523 -14 z "},"т":{"ha":814,"x_min":61,"x_max":753,"o":"m 335 0 l 335 590 l 61 590 l 61 719 l 753 719 l 753 590 l 479 590 l 479 0 l 335 0 z "},"у":{"ha":814,"x_min":37,"x_max":756,"o":"m 323 0 l 37 719 l 186 719 l 421 109 l 431 109 l 607 719 l 756 719 l 549 64 q 457 -144 508 -65 q 338 -262 407 -222 q 173 -312 269 -301 l 51 -326 l 44 -197 l 157 -183 q 299 -131 243 -173 q 393 0 355 -89 l 323 0 z "},"ў":{"ha":814,"x_min":37,"x_max":756,"o":"m 323 0 l 37 719 l 186 719 l 421 109 l 431 109 l 607 719 l 756 719 l 549 64 q 457 -144 508 -65 q 338 -262 407 -222 q 173 -312 269 -301 l 51 -326 l 44 -197 l 157 -183 q 299 -131 243 -173 q 393 0 355 -89 l 323 0 m 404 840 q 225 901 282 840 q 168 1087 168 962 l 296 1087 q 320 969 296 1006 q 404 932 345 932 q 488 969 464 932 q 511 1087 511 1007 l 639 1087 q 582 901 639 962 q 404 840 524 840 z "},"ф":{"ha":814,"x_min":31,"x_max":783,"o":"m 198 -14 q 70 73 110 -14 q 31 353 31 160 q 71 643 31 553 q 199 732 111 732 q 325 595 313 732 l 338 595 l 338 1017 l 475 1017 l 475 595 l 489 595 q 614 732 501 732 q 743 643 703 732 q 783 353 783 553 q 744 73 783 160 q 616 -14 704 -14 q 528 16 562 -14 q 489 104 494 46 l 475 104 l 475 -298 l 338 -298 l 338 104 l 325 104 q 286 16 320 46 q 198 -14 252 -14 m 553 610 q 465 404 465 610 l 465 231 q 552 109 465 109 q 620 166 599 109 q 641 353 641 224 q 620 549 641 488 q 553 610 600 610 m 173 353 q 194 166 173 224 q 262 109 215 109 q 349 231 349 109 l 349 404 q 260 610 349 610 q 194 549 215 610 q 173 353 173 488 z "},"х":{"ha":814,"x_min":72,"x_max":742,"o":"m 72 0 l 329 355 l 72 719 l 235 719 l 407 467 l 579 719 l 742 719 l 481 361 l 742 0 l 579 0 l 404 250 l 235 0 l 72 0 z "},"ч":{"ha":814,"x_min":87,"x_max":700,"o":"m 380 258 q 87 549 87 258 l 87 719 l 231 719 l 231 549 q 380 376 231 376 l 556 376 l 556 719 l 700 719 l 700 0 l 556 0 l 556 258 l 380 258 z "},"ц":{"ha":814,"x_min":95,"x_max":766,"o":"m 95 0 l 95 719 l 239 719 l 239 129 l 530 129 l 530 719 l 674 719 l 674 129 l 766 129 l 766 -183 l 631 -183 l 631 0 l 95 0 z "},"ш":{"ha":814,"x_min":76,"x_max":738,"o":"m 76 0 l 76 719 l 220 719 l 220 122 l 345 122 l 345 719 l 467 719 l 467 122 l 594 122 l 594 719 l 738 719 l 738 0 l 76 0 z "},"щ":{"ha":814,"x_min":76,"x_max":785,"o":"m 76 0 l 76 719 l 220 719 l 220 122 l 342 122 l 342 719 l 457 719 l 457 122 l 581 122 l 581 719 l 724 719 l 724 122 l 785 122 l 785 -183 l 650 -183 l 650 0 l 76 0 z "},"џ":{"ha":814,"x_min":117,"x_max":696,"o":"m 117 0 l 117 719 l 261 719 l 261 118 l 553 118 l 553 719 l 696 719 l 696 0 l 479 0 l 479 -183 l 343 -183 l 343 0 l 117 0 z "},"ь":{"ha":814,"x_min":127,"x_max":749,"o":"m 127 0 l 127 719 l 271 719 l 271 486 l 505 486 q 685 422 621 486 q 749 243 749 359 q 685 63 749 127 q 505 0 621 0 l 127 0 m 486 357 l 271 357 l 271 129 l 486 129 q 570 159 540 129 q 600 243 600 189 q 570 327 600 297 q 486 357 540 357 z "},"ъ":{"ha":814,"x_min":0,"x_max":749,"o":"m 168 0 l 168 590 l 0 590 l 0 719 l 312 719 l 312 486 l 491 486 q 682 422 614 486 q 749 243 749 359 q 682 63 749 127 q 491 0 614 0 l 168 0 m 472 357 l 312 357 l 312 129 l 472 129 q 566 159 533 129 q 600 243 600 189 q 566 327 600 297 q 472 357 533 357 z "},"ы":{"ha":814,"x_min":76,"x_max":738,"o":"m 76 0 l 76 719 l 220 719 l 220 486 l 283 486 q 448 422 390 486 q 507 243 507 359 q 448 63 507 127 q 283 0 390 0 l 76 0 m 594 0 l 594 719 l 738 719 l 738 0 l 594 0 m 264 370 l 220 370 l 220 115 l 264 115 q 348 149 318 115 q 378 243 378 182 q 348 337 378 304 q 264 370 318 370 z "},"љ":{"ha":814,"x_min":43,"x_max":794,"o":"m 43 0 l 43 129 q 116 151 96 129 q 136 233 136 173 l 136 719 l 517 719 l 517 486 l 570 486 q 736 422 677 486 q 794 243 794 359 q 736 63 794 127 q 570 0 677 0 l 387 0 l 387 601 l 261 601 l 261 238 q 241 95 261 146 q 174 21 222 43 q 43 0 127 0 m 558 357 l 517 357 l 517 129 l 558 129 q 632 159 606 129 q 659 243 659 189 q 632 327 659 297 q 558 357 606 357 z "},"њ":{"ha":814,"x_min":60,"x_max":794,"o":"m 60 0 l 60 719 l 203 719 l 203 465 l 367 465 l 367 719 l 497 719 l 497 465 l 570 465 q 736 407 677 465 q 794 243 794 349 q 736 63 794 127 q 570 0 677 0 l 367 0 l 367 347 l 203 347 l 203 0 l 60 0 m 558 347 l 497 347 l 497 129 l 558 129 q 632 159 606 129 q 659 243 659 189 q 632 320 659 293 q 558 347 606 347 z "},"ѕ":{"ha":814,"x_min":106,"x_max":708,"o":"m 351 -14 q 212 -9 270 -14 q 106 7 154 -4 l 122 137 q 248 121 193 126 q 351 115 302 115 q 510 137 460 115 q 559 205 559 158 q 542 253 559 237 q 488 278 524 269 l 323 320 q 166 387 216 347 q 117 509 117 427 q 207 680 117 627 q 499 732 298 732 q 689 719 598 732 l 674 594 q 577 602 619 600 q 495 604 535 604 q 320 583 374 604 q 266 515 266 562 q 288 470 266 484 q 357 445 311 456 l 490 412 q 655 340 603 385 q 708 208 708 294 q 623 39 708 92 q 351 -14 538 -14 z "},"є":{"ha":814,"x_min":92,"x_max":744,"o":"m 463 -14 q 189 83 286 -14 q 92 361 92 180 q 187 635 92 537 q 457 732 281 732 q 637 693 562 732 q 744 583 712 654 l 633 500 q 555 576 603 549 q 452 604 508 604 q 306 556 361 604 q 238 420 251 509 l 532 420 l 532 302 l 240 302 q 317 163 256 211 q 479 115 378 115 q 586 120 533 115 q 690 133 640 125 l 707 7 q 585 -9 648 -5 q 463 -14 523 -14 z "},"э":{"ha":814,"x_min":90,"x_max":722,"o":"m 357 -14 q 199 11 269 -14 q 90 70 130 35 l 160 178 q 247 134 194 153 q 362 115 300 115 q 509 164 453 115 q 576 302 564 212 l 282 302 l 282 420 l 572 420 q 486 557 554 510 q 308 604 418 604 q 137 589 227 604 l 149 721 q 324 732 226 732 q 618 636 515 732 q 722 358 722 539 q 627 84 722 182 q 357 -14 532 -14 z "},"і":{"ha":814,"x_min":109,"x_max":747,"o":"m 446 833 q 375 862 405 833 q 346 933 346 892 q 375 1004 346 975 q 446 1034 405 1034 q 517 1004 488 1034 q 547 933 547 975 q 517 862 547 892 q 446 833 488 833 m 109 0 l 109 118 l 382 118 l 382 600 l 149 600 l 149 719 l 526 719 l 526 118 l 747 118 l 747 0 l 109 0 z "},"ї":{"ha":814,"x_min":109,"x_max":747,"o":"m 109 0 l 109 118 l 382 118 l 382 601 l 149 601 l 149 719 l 526 719 l 526 118 l 747 118 l 747 0 l 109 0 m 585 840 q 520 866 547 840 q 494 930 494 893 q 520 995 494 968 q 585 1021 547 1021 q 649 995 623 1021 q 675 930 675 968 q 649 866 675 893 q 585 840 623 840 m 300 840 q 236 866 262 840 q 209 930 209 893 q 236 995 209 968 q 300 1021 262 1021 q 364 995 338 1021 q 391 930 391 968 q 364 866 391 893 q 300 840 338 840 z "},"ј":{"ha":814,"x_min":115,"x_max":616,"o":"m 515 833 q 445 862 474 833 q 415 933 415 892 q 445 1004 415 975 q 515 1034 474 1034 q 587 1004 557 1034 q 616 933 616 975 q 587 862 616 892 q 515 833 557 833 m 122 -326 l 115 -198 l 251 -186 q 409 -122 360 -176 q 458 42 458 -68 l 458 601 l 179 601 l 179 719 l 602 719 l 602 64 q 564 -145 602 -64 q 446 -266 526 -225 q 237 -317 365 -307 l 122 -326 z "},"ћ":{"ha":814,"x_min":0,"x_max":700,"o":"m 141 0 l 141 777 l 0 777 l 0 895 l 141 895 l 141 1017 l 285 1017 l 285 895 l 522 895 l 522 777 l 285 777 l 285 507 l 298 507 q 475 651 309 651 q 641 582 582 651 q 700 387 700 513 l 700 0 l 556 0 l 556 387 q 526 492 556 455 q 441 529 495 529 q 285 323 285 529 l 285 0 l 141 0 z "},"ю":{"ha":814,"x_min":75,"x_max":762,"o":"m 75 0 l 75 719 l 208 719 l 208 416 l 304 416 q 365 657 312 582 q 526 732 418 732 q 706 643 650 732 q 762 353 762 553 q 706 73 762 160 q 526 -14 650 -14 q 363 61 416 -14 q 304 298 311 135 l 208 298 l 208 0 l 75 0 m 519 111 q 596 169 572 111 q 620 353 620 226 q 596 547 620 487 q 519 608 572 608 q 442 547 466 608 q 418 353 418 487 q 442 169 418 226 q 519 111 466 111 z "},"я":{"ha":814,"x_min":85,"x_max":696,"o":"m 85 -3 l 85 125 l 108 125 q 151 137 136 125 q 182 172 166 149 l 216 222 q 267 270 237 254 q 346 286 296 286 l 346 305 l 323 305 q 162 357 219 305 q 105 503 105 408 q 176 662 105 606 q 378 719 248 719 l 696 719 l 696 0 l 553 0 l 553 244 l 469 244 q 402 238 425 244 q 368 220 379 232 q 346 189 356 208 l 317 134 q 268 57 292 87 q 208 12 243 26 q 115 -3 172 -3 l 85 -3 m 378 373 l 553 373 l 553 590 l 378 590 q 287 561 319 590 q 254 478 254 532 q 287 400 254 428 q 378 373 319 373 z "},"ђ":{"ha":814,"x_min":0,"x_max":700,"o":"m 141 0 l 141 777 l 0 777 l 0 895 l 141 895 l 141 1017 l 285 1017 l 285 895 l 522 895 l 522 777 l 285 777 l 285 507 l 298 507 q 475 651 309 651 q 641 582 582 651 q 700 387 700 513 l 700 16 q 634 -230 700 -152 q 423 -317 568 -307 l 349 -326 l 342 -198 l 437 -186 q 528 -137 499 -180 q 556 -5 556 -94 l 556 387 q 526 492 556 455 q 441 529 495 529 q 285 323 285 529 l 285 0 l 141 0 z "},"ғ":{"ha":814,"x_min":72,"x_max":726,"o":"m 214 0 l 214 287 l 72 287 l 72 405 l 214 405 l 214 719 l 726 719 l 726 590 l 358 590 l 358 405 l 534 405 l 534 287 l 358 287 l 358 0 l 214 0 z "},"җ":{"ha":814,"x_min":32,"x_max":791,"o":"m 32 -3 l 32 125 l 75 125 q 98 136 87 125 q 108 169 108 146 l 108 253 q 140 321 108 297 q 220 349 173 345 l 245 351 l 245 368 l 220 370 q 140 398 173 374 q 108 466 108 422 l 108 550 q 98 583 108 573 q 75 593 87 593 l 32 593 l 32 722 l 81 722 q 194 691 155 722 q 233 589 233 659 l 233 480 q 237 442 233 456 q 260 424 241 429 q 326 418 279 418 l 326 719 l 434 719 l 434 418 q 499 424 480 418 q 523 443 519 429 q 526 480 526 456 l 526 589 q 566 691 526 659 q 678 722 605 722 l 728 722 l 728 593 l 685 593 q 662 583 672 593 q 652 550 652 573 l 652 466 q 619 398 652 422 q 540 370 587 374 l 514 368 l 514 351 l 540 349 q 619 321 587 345 q 652 253 652 297 l 652 172 q 662 139 652 149 q 685 129 672 129 l 791 129 l 791 -183 l 655 -183 l 655 -3 q 559 34 593 2 q 526 130 526 66 l 526 239 q 523 277 526 264 q 500 295 519 290 q 434 300 481 300 l 434 0 l 326 0 l 326 300 q 260 295 279 300 q 237 276 241 290 q 233 239 233 263 l 233 130 q 194 28 233 60 q 81 -3 155 -3 l 32 -3 z "},"қ":{"ha":814,"x_min":114,"x_max":791,"o":"m 114 0 l 114 719 l 258 719 l 258 424 l 370 424 q 431 437 414 424 q 460 479 448 450 l 507 595 q 550 675 528 648 q 606 712 572 703 q 692 722 639 722 l 721 722 l 721 593 l 692 593 q 654 587 667 593 q 631 557 641 580 l 584 446 q 537 390 568 409 q 457 369 507 371 l 457 350 q 597 273 565 349 l 645 162 q 667 132 654 139 q 705 125 680 125 l 791 125 l 791 -183 l 655 -183 l 655 -2 q 566 30 598 3 q 507 123 534 57 l 460 239 q 431 282 448 269 q 370 295 414 295 l 258 295 l 258 0 l 114 0 z "},"ң":{"ha":814,"x_min":114,"x_max":791,"o":"m 114 0 l 114 719 l 258 719 l 258 418 l 556 418 l 556 719 l 700 719 l 700 129 l 791 129 l 791 -183 l 655 -183 l 655 0 l 556 0 l 556 300 l 258 300 l 258 0 l 114 0 z "},"ү":{"ha":814,"x_min":54,"x_max":760,"o":"m 335 -312 l 335 9 l 54 719 l 208 719 l 410 167 l 606 719 l 760 719 l 479 9 l 479 -312 l 335 -312 z "},"ұ":{"ha":814,"x_min":54,"x_max":760,"o":"m 146 -118 l 146 0 l 335 0 l 335 9 l 54 719 l 208 719 l 410 167 l 606 719 l 760 719 l 479 9 l 479 0 l 669 0 l 669 -118 l 479 -118 l 479 -312 l 335 -312 l 335 -118 l 146 -118 z "},"ҳ":{"ha":814,"x_min":72,"x_max":784,"o":"m 72 0 l 329 355 l 72 719 l 235 719 l 407 467 l 579 719 l 742 719 l 481 361 l 649 129 l 784 129 l 784 -183 l 648 -183 l 648 0 l 579 0 l 404 250 l 235 0 l 72 0 z "},"ҷ":{"ha":814,"x_min":87,"x_max":791,"o":"m 380 258 q 87 549 87 258 l 87 719 l 231 719 l 231 549 q 380 376 231 376 l 556 376 l 556 719 l 700 719 l 700 129 l 791 129 l 791 -183 l 655 -183 l 655 0 l 556 0 l 556 258 l 380 258 z "},"һ":{"ha":814,"x_min":114,"x_max":700,"o":"m 114 0 l 114 1017 l 258 1017 l 258 589 l 271 589 q 461 732 283 732 q 637 663 575 732 q 700 468 700 594 l 700 0 l 556 0 l 556 468 q 522 573 556 536 q 427 610 488 610 q 258 404 258 610 l 258 0 l 114 0 z "},"ӏ":{"ha":814,"x_min":109,"x_max":747,"o":"m 109 0 l 109 118 l 382 118 l 382 601 l 149 601 l 149 719 l 526 719 l 526 118 l 747 118 l 747 0 l 109 0 z "},"ә":{"ha":814,"x_min":92,"x_max":722,"o":"m 397 -14 q 172 75 252 -14 q 92 331 92 163 q 96 423 92 380 l 582 423 q 496 560 563 513 q 321 606 430 606 q 233 600 277 606 q 145 581 190 593 l 127 700 q 244 727 192 721 q 338 732 297 732 q 622 636 522 732 q 722 358 722 539 q 637 84 722 182 q 397 -14 552 -14 m 396 113 q 529 165 479 113 q 587 313 578 217 l 222 313 q 269 165 222 217 q 396 113 315 113 z "},"ӣ":{"ha":814,"x_min":114,"x_max":700,"o":"m 114 0 l 114 719 l 258 719 l 258 197 l 271 197 l 553 719 l 700 719 l 700 0 l 556 0 l 556 522 l 543 522 l 261 0 l 114 0 m 115 846 l 115 974 l 699 974 l 699 846 l 115 846 z "},"ө":{"ha":814,"x_min":92,"x_max":722,"o":"m 407 -14 q 175 84 258 -14 q 92 359 92 182 q 175 635 92 538 q 407 732 258 732 q 639 635 557 732 q 722 359 722 538 q 639 84 722 182 q 407 -14 557 -14 m 407 604 q 296 554 338 604 q 244 414 254 505 l 570 414 q 518 554 560 505 q 407 604 476 604 m 407 115 q 518 164 476 115 q 570 304 560 214 l 244 304 q 296 164 254 214 q 407 115 338 115 z "},"ӯ":{"ha":814,"x_min":37,"x_max":756,"o":"m 323 0 l 37 719 l 186 719 l 421 109 l 431 109 l 607 719 l 756 719 l 549 64 q 457 -144 508 -65 q 338 -262 407 -222 q 173 -312 269 -301 l 51 -326 l 44 -197 l 157 -183 q 299 -131 243 -173 q 393 0 355 -89 l 323 0 m 125 846 l 125 974 l 709 974 l 709 846 l 125 846 z "},"Α":{"ha":814,"x_min":31,"x_max":783,"o":"m 31 0 l 309 963 l 505 963 l 783 0 l 641 0 l 578 235 l 236 235 l 173 0 l 31 0 m 401 846 l 271 363 l 543 363 l 413 846 l 401 846 z "},"Β":{"ha":814,"x_min":109,"x_max":769,"o":"m 109 0 l 109 963 l 395 963 q 621 900 541 963 q 701 719 701 836 q 641 578 701 631 q 471 514 581 526 l 471 506 q 691 441 613 504 q 769 264 769 378 q 693 69 769 138 q 477 0 617 0 l 109 0 m 361 834 l 244 834 l 244 573 l 370 573 q 509 607 460 573 q 559 705 559 642 q 507 801 559 768 q 361 834 456 834 m 429 444 l 244 444 l 244 129 l 438 129 q 577 170 528 129 q 627 285 627 211 q 575 402 627 361 q 429 444 524 444 z "},"Γ":{"ha":814,"x_min":122,"x_max":739,"o":"m 122 0 l 122 963 l 739 963 l 739 834 l 258 834 l 258 0 l 122 0 z "},"Δ":{"ha":814,"x_min":31,"x_max":783,"o":"m 31 0 l 309 963 l 505 963 l 783 0 l 31 0 m 401 846 l 208 129 l 606 129 l 413 846 l 401 846 z "},"Ε":{"ha":814,"x_min":109,"x_max":746,"o":"m 109 0 l 109 963 l 746 963 l 746 834 l 244 834 l 244 547 l 624 547 l 624 418 l 244 418 l 244 129 l 746 129 l 746 0 l 109 0 z "},"Ζ":{"ha":814,"x_min":102,"x_max":726,"o":"m 102 0 l 102 119 l 547 834 l 102 834 l 102 963 l 712 963 l 712 834 l 254 119 l 726 119 l 726 0 l 102 0 z "},"Η":{"ha":814,"x_min":95,"x_max":719,"o":"m 95 0 l 95 963 l 231 963 l 231 544 l 583 544 l 583 963 l 719 963 l 719 0 l 583 0 l 583 415 l 231 415 l 231 0 l 95 0 z "},"Θ":{"ha":814,"x_min":52,"x_max":762,"o":"m 407 -14 q 52 475 52 -14 q 407 977 52 977 q 762 475 762 977 q 407 -14 762 -14 m 407 852 q 196 545 215 852 l 618 545 q 407 852 599 852 m 407 111 q 618 418 602 111 l 195 418 q 407 111 212 111 z "},"Ι":{"ha":814,"x_min":114,"x_max":700,"o":"m 114 0 l 114 129 l 338 129 l 338 834 l 114 834 l 114 963 l 700 963 l 700 834 l 474 834 l 474 129 l 700 129 l 700 0 l 114 0 z "},"Κ":{"ha":814,"x_min":109,"x_max":795,"o":"m 109 0 l 109 963 l 244 963 l 244 442 q 407 497 338 451 q 521 616 476 543 q 587 779 566 689 q 609 963 609 868 l 749 963 q 699 680 749 814 q 555 452 649 545 l 795 0 l 631 0 l 440 367 q 348 328 397 343 q 244 309 298 313 l 244 0 l 109 0 z "},"Λ":{"ha":814,"x_min":31,"x_max":783,"o":"m 31 0 l 309 963 l 505 963 l 783 0 l 634 0 l 413 846 l 401 846 l 180 0 l 31 0 z "},"Μ":{"ha":814,"x_min":87,"x_max":727,"o":"m 87 0 l 87 963 l 292 963 l 401 549 l 412 549 l 522 963 l 727 963 l 727 0 l 597 0 l 597 792 l 579 792 l 469 393 l 345 393 l 235 792 l 217 792 l 217 0 l 87 0 z "},"Ν":{"ha":814,"x_min":100,"x_max":713,"o":"m 100 0 l 100 963 l 271 963 l 570 231 l 583 231 l 583 963 l 713 963 l 713 0 l 543 0 l 244 732 l 231 732 l 231 0 l 100 0 z "},"Ξ":{"ha":814,"x_min":68,"x_max":746,"o":"m 68 834 l 68 963 l 746 963 l 746 834 l 68 834 m 129 418 l 129 547 l 685 547 l 685 418 l 129 418 m 68 0 l 68 129 l 746 129 l 746 0 l 68 0 z "},"Ο":{"ha":814,"x_min":52,"x_max":762,"o":"m 407 -14 q 52 475 52 -14 q 407 977 52 977 q 762 475 762 977 q 407 -14 762 -14 m 407 111 q 620 475 620 111 q 407 852 620 852 q 194 475 194 852 q 407 111 194 111 z "},"Π":{"ha":814,"x_min":95,"x_max":719,"o":"m 95 0 l 95 963 l 719 963 l 719 0 l 583 0 l 583 834 l 231 834 l 231 0 l 95 0 z "}}}
